<?xml version="1.0" encoding="utf-8" standalone="no"?>
<!DOCTYPE svg PUBLIC "-//W3C//DTD SVG 1.1//EN"
  "http://www.w3.org/Graphics/SVG/1.1/DTD/svg11.dtd">
<!-- Created with matplotlib (https://matplotlib.org/) -->
<svg height="246.614173pt" version="1.1" viewBox="0 0 198.425197 246.614173" width="198.425197pt" xmlns="http://www.w3.org/2000/svg" xmlns:xlink="http://www.w3.org/1999/xlink">
 <defs>
  <style type="text/css">
*{stroke-linecap:butt;stroke-linejoin:round;}
  </style>
 </defs>
 <g id="figure_1">
  <g id="patch_1">
   <path d="M 0 246.614173 
L 198.425197 246.614173 
L 198.425197 0 
L 0 0 
z
" style="fill:#ffffff;"/>
  </g>
  <g id="axes_1">
   <g id="patch_2">
    <path clip-path="url(#pe86d51a454)" d="M 167.720172 69.603875 
L 162.609942 74.714105 
L 161.823753 73.534821 
L 87.397938 123.152031 
L 87.397938 123.152031 
L 161.823753 73.534821 
L 161.037564 72.355537 
z
" style="stroke:#000000;stroke-linejoin:miter;stroke-width:0.5;"/>
   </g>
   <g id="patch_3">
    <path clip-path="url(#pe86d51a454)" d="M 85.03937 178.582677 
L 83.622047 171.496063 
L 85.03937 171.496063 
L 85.03937 127.559055 
L 85.03937 127.559055 
L 85.03937 171.496063 
L 86.456693 171.496063 
z
" style="stroke:#000000;stroke-linejoin:miter;stroke-width:0.5;"/>
   </g>
   <g id="patch_4">
    <path clip-path="url(#pe86d51a454)" d="M 118.135774 221.255586 
L 114.496701 215.011705 
L 115.837412 214.552032 
L 85.958715 127.405831 
L 85.958715 127.405831 
L 115.837412 214.552032 
L 117.178123 214.09236 
z
" style="stroke:#000000;stroke-linejoin:miter;stroke-width:0.5;"/>
   </g>
   <g id="patch_5">
    <path clip-path="url(#pe86d51a454)" d="M 83.466992 183.775891 
L 80.715329 190.458499 
L 79.536045 189.67231 
L 58.265292 221.57844 
L 58.265292 221.57844 
L 79.536045 189.67231 
L 78.356761 188.886121 
z
" style="stroke:#000000;stroke-linejoin:miter;stroke-width:0.5;"/>
   </g>
   <g id="patch_6">
    <path clip-path="url(#pe86d51a454)" d="M 83.034973 122.720012 
L 77.021781 118.711218 
L 78.02398 117.709019 
L 30.350854 70.035893 
L 30.350854 70.035893 
L 78.02398 117.709019 
L 79.026179 116.706821 
z
" style="stroke:#000000;stroke-linejoin:miter;stroke-width:0.5;"/>
   </g>
   <g id="patch_7">
    <path clip-path="url(#pe86d51a454)" d="M 82.204724 181.417323 
L 75.11811 182.834646 
L 75.11811 181.417323 
L 31.181102 181.417323 
L 31.181102 181.417323 
L 75.11811 181.417323 
L 75.11811 180 
z
" style="stroke:#000000;stroke-linejoin:miter;stroke-width:0.5;"/>
   </g>
   <g id="patch_8">
    <path clip-path="url(#pe86d51a454)" d="M 141.870207 25.047065 
L 146.943274 30.194191 
L 145.758324 30.971814 
L 168.523494 65.661596 
L 168.523494 65.661596 
L 145.758324 30.971814 
L 144.573374 31.749437 
z
" style="stroke:#000000;stroke-linejoin:miter;stroke-width:0.5;"/>
   </g>
   <g id="patch_9">
    <path clip-path="url(#pe86d51a454)" d="M 170.07874 121.889764 
L 168.661417 114.80315 
L 170.07874 114.80315 
L 170.07874 70.866142 
L 170.07874 70.866142 
L 170.07874 114.80315 
L 171.496063 114.80315 
z
" style="stroke:#000000;stroke-linejoin:miter;stroke-width:0.5;"/>
   </g>
   <g id="patch_10">
    <path clip-path="url(#pe86d51a454)" d="M 168.523494 65.661596 
L 163.450427 60.514471 
L 164.635377 59.736847 
L 141.870207 25.047065 
L 141.870207 25.047065 
L 164.635377 59.736847 
L 165.820327 58.959224 
z
" style="stroke:#000000;stroke-linejoin:miter;stroke-width:0.5;"/>
   </g>
   <g id="patch_11">
    <path clip-path="url(#pe86d51a454)" d="M 167.543356 222.669316 
L 160.57105 220.767778 
L 161.204896 219.500086 
L 87.574754 182.685015 
L 87.574754 182.685015 
L 161.204896 219.500086 
L 161.838742 218.232394 
z
" style="stroke:#000000;stroke-linejoin:miter;stroke-width:0.5;"/>
   </g>
   <g id="patch_12">
    <path clip-path="url(#pe86d51a454)" d="M 167.720172 126.296788 
L 162.609942 131.407018 
L 161.823753 130.227734 
L 87.397938 179.844944 
L 87.397938 179.844944 
L 161.823753 130.227734 
L 161.037564 129.04845 
z
" style="stroke:#000000;stroke-linejoin:miter;stroke-width:0.5;"/>
   </g>
   <g id="patch_13">
    <path clip-path="url(#pe86d51a454)" d="M 168.377953 70.299213 
L 165.259843 76.818898 
L 164.125984 75.968504 
L 86.740157 179.149606 
L 86.740157 179.149606 
L 164.125984 75.968504 
L 162.992126 75.11811 
z
" style="stroke:#000000;stroke-linejoin:miter;stroke-width:0.5;"/>
   </g>
   <g id="patch_14">
    <path clip-path="url(#pe86d51a454)" d="M 139.382794 25.354156 
L 138.390873 32.512718 
L 137.052378 32.046634 
L 85.971537 178.740332 
L 85.971537 178.740332 
L 137.052378 32.046634 
L 135.713882 31.580551 
z
" style="stroke:#000000;stroke-linejoin:miter;stroke-width:0.5;"/>
   </g>
   <g id="patch_15">
    <path clip-path="url(#pe86d51a454)" d="M 167.244094 223.937008 
L 160.15748 225.354331 
L 160.15748 223.937008 
L 121.889764 223.937008 
L 121.889764 223.937008 
L 160.15748 223.937008 
L 160.15748 222.519685 
z
" style="stroke:#000000;stroke-linejoin:miter;stroke-width:0.5;"/>
   </g>
   <g id="patch_16">
    <path clip-path="url(#pe86d51a454)" d="M 83.034973 179.412926 
L 77.021781 175.404131 
L 78.02398 174.401933 
L 30.350854 126.728807 
L 30.350854 126.728807 
L 78.02398 174.401933 
L 79.026179 173.399734 
z
" style="stroke:#000000;stroke-linejoin:miter;stroke-width:0.5;"/>
   </g>
   <g id="patch_17">
    <path clip-path="url(#pe86d51a454)" d="M 167.623411 123.307873 
L 160.77682 120.994198 
L 161.485088 119.766533 
L 98.833282 83.62126 
L 98.833282 83.62126 
L 161.485088 119.766533 
L 162.193356 118.538869 
z
" style="stroke:#000000;stroke-dasharray:0.5,0.825;stroke-dashoffset:0;stroke-linejoin:miter;stroke-width:0.5;"/>
   </g>
   <g id="patch_18">
    <path clip-path="url(#pe86d51a454)" d="M 167.2951 68.566812 
L 160.603657 71.29692 
L 160.335999 69.9051 
L 99.161593 81.669409 
L 99.161593 81.669409 
L 160.335999 69.9051 
L 160.068341 68.51328 
z
" style="stroke:#000000;stroke-dasharray:0.5,0.825;stroke-dashoffset:0;stroke-linejoin:miter;stroke-width:0.5;"/>
   </g>
   <g id="patch_19">
    <path clip-path="url(#pe86d51a454)" d="M 138.6316 24.957848 
L 135.563539 31.501234 
L 134.423198 30.659554 
L 98.061314 79.924042 
L 98.061314 79.924042 
L 134.423198 30.659554 
L 133.282856 29.817873 
z
" style="stroke:#000000;stroke-dasharray:0.5,0.825;stroke-dashoffset:0;stroke-linejoin:miter;stroke-width:0.5;"/>
   </g>
   <g id="patch_20">
    <path clip-path="url(#pe86d51a454)" d="M 118.607271 221.137964 
L 116.088131 214.364276 
L 117.487653 214.140353 
L 96.8258 85.003769 
L 96.8258 85.003769 
L 117.487653 214.140353 
L 118.887175 213.916429 
z
" style="stroke:#000000;stroke-dasharray:0.5,0.825;stroke-dashoffset:0;stroke-linejoin:miter;stroke-width:0.5;"/>
   </g>
   <g id="patch_21">
    <path clip-path="url(#pe86d51a454)" d="M 56.996428 221.118658 
L 56.34604 213.921027 
L 57.755214 214.072784 
L 76.231918 42.503389 
L 76.231918 42.503389 
L 57.755214 214.072784 
L 59.164389 214.224541 
z
" style="stroke:#000000;stroke-dasharray:0.5,0.825;stroke-dashoffset:0;stroke-linejoin:miter;stroke-width:0.5;"/>
   </g>
   <g id="patch_22">
    <path clip-path="url(#pe86d51a454)" d="M 30.789735 66.594274 
L 36.179319 61.779579 
L 36.89793 63.001218 
L 74.092155 41.122262 
L 74.092155 41.122262 
L 36.89793 63.001218 
L 37.616541 64.222857 
z
" style="stroke:#000000;stroke-dasharray:0.5,0.825;stroke-dashoffset:0;stroke-linejoin:miter;stroke-width:0.5;"/>
   </g>
   <g id="patch_23">
    <path clip-path="url(#pe86d51a454)" d="M 29.258937 178.733558 
L 30.198255 171.567904 
L 31.540137 172.024144 
L 75.622953 42.368805 
L 75.622953 42.368805 
L 31.540137 172.024144 
L 32.88202 172.480385 
z
" style="stroke:#000000;stroke-dasharray:0.5,0.825;stroke-dashoffset:0;stroke-linejoin:miter;stroke-width:0.5;"/>
   </g>
   <g id="patch_24">
    <path clip-path="url(#pe86d51a454)" d="M 29.743973 122.258205 
L 32.00466 115.393935 
L 33.237763 116.092693 
L 75.137917 42.151244 
L 75.137917 42.151244 
L 33.237763 116.092693 
L 34.470865 116.791451 
z
" style="stroke:#000000;stroke-dasharray:0.5,0.825;stroke-dashoffset:0;stroke-linejoin:miter;stroke-width:0.5;"/>
   </g>
   <g id="patch_25">
    <path clip-path="url(#pe86d51a454)" d="M 87.191594 126.569172 
L 93.494534 130.104968 
L 92.572152 131.18108 
L 142.414706 173.903269 
L 142.414706 173.903269 
L 92.572152 131.18108 
L 91.649771 132.257191 
z
" style="stroke:#000000;stroke-dasharray:0.5,0.825;stroke-dashoffset:0;stroke-linejoin:miter;stroke-width:0.5;"/>
   </g>
   <g id="patch_26">
    <path clip-path="url(#pe86d51a454)" d="M 168.752444 221.431782 
L 164.184092 215.831866 
L 165.436705 215.168718 
L 145.893225 178.253257 
L 145.893225 178.253257 
L 165.436705 215.168718 
L 166.689317 214.50557 
z
" style="stroke:#000000;stroke-dasharray:0.5,0.825;stroke-dashoffset:0;stroke-linejoin:miter;stroke-width:0.5;"/>
   </g>
   <g id="patch_27">
    <path clip-path="url(#pe86d51a454)" d="M 87.861247 181.148573 
L 94.781564 179.065759 
L 94.915939 180.476697 
L 141.745052 176.016782 
L 141.745052 176.016782 
L 94.915939 180.476697 
L 95.050314 181.887636 
z
" style="stroke:#000000;stroke-dasharray:0.5,0.825;stroke-dashoffset:0;stroke-linejoin:miter;stroke-width:0.5;"/>
   </g>
   <g id="patch_28">
    <path clip-path="url(#pe86d51a454)" d="M 140.314961 25.511811 
C 141.066717 25.511811 141.787785 25.213135 142.319358 24.681563 
C 142.85093 24.14999 143.149606 23.428922 143.149606 22.677165 
C 143.149606 21.925409 142.85093 21.204341 142.319358 20.672768 
C 141.787785 20.141196 141.066717 19.84252 140.314961 19.84252 
C 139.563204 19.84252 138.842136 20.141196 138.310563 20.672768 
C 137.778991 21.204341 137.480315 21.925409 137.480315 22.677165 
C 137.480315 23.428922 137.778991 24.14999 138.310563 24.681563 
C 138.842136 25.213135 139.563204 25.511811 140.314961 25.511811 
z
" style="stroke:#000000;stroke-linejoin:miter;"/>
   </g>
   <g id="patch_29">
    <path clip-path="url(#pe86d51a454)" d="M 28.346457 70.866142 
C 29.098214 70.866142 29.819282 70.567466 30.350854 70.035893 
C 30.882426 69.504321 31.181102 68.783253 31.181102 68.031496 
C 31.181102 67.279739 30.882426 66.558671 30.350854 66.027099 
C 29.819282 65.495527 29.098214 65.19685 28.346457 65.19685 
C 27.5947 65.19685 26.873632 65.495527 26.34206 66.027099 
C 25.810487 66.558671 25.511811 67.279739 25.511811 68.031496 
C 25.511811 68.783253 25.810487 69.504321 26.34206 70.035893 
C 26.873632 70.567466 27.5947 70.866142 28.346457 70.866142 
z
" style="stroke:#000000;stroke-linejoin:miter;"/>
   </g>
   <g id="patch_30">
    <path clip-path="url(#pe86d51a454)" d="M 170.07874 70.866142 
C 170.830497 70.866142 171.551565 70.567466 172.083137 70.035893 
C 172.61471 69.504321 172.913386 68.783253 172.913386 68.031496 
C 172.913386 67.279739 172.61471 66.558671 172.083137 66.027099 
C 171.551565 65.495527 170.830497 65.19685 170.07874 65.19685 
C 169.326983 65.19685 168.605915 65.495527 168.074343 66.027099 
C 167.542771 66.558671 167.244094 67.279739 167.244094 68.031496 
C 167.244094 68.783253 167.542771 69.504321 168.074343 70.035893 
C 168.605915 70.567466 169.326983 70.866142 170.07874 70.866142 
z
" style="stroke:#000000;stroke-linejoin:miter;"/>
   </g>
   <g id="patch_31">
    <path clip-path="url(#pe86d51a454)" d="M 28.346457 127.559055 
C 29.098214 127.559055 29.819282 127.260379 30.350854 126.728807 
C 30.882426 126.197234 31.181102 125.476166 31.181102 124.724409 
C 31.181102 123.972653 30.882426 123.251585 30.350854 122.720012 
C 29.819282 122.18844 29.098214 121.889764 28.346457 121.889764 
C 27.5947 121.889764 26.873632 122.18844 26.34206 122.720012 
C 25.810487 123.251585 25.511811 123.972653 25.511811 124.724409 
C 25.511811 125.476166 25.810487 126.197234 26.34206 126.728807 
C 26.873632 127.260379 27.5947 127.559055 28.346457 127.559055 
z
" style="stroke:#000000;stroke-linejoin:miter;"/>
   </g>
   <g id="patch_32">
    <path clip-path="url(#pe86d51a454)" d="M 85.03937 127.559055 
C 85.791127 127.559055 86.512195 127.260379 87.043767 126.728807 
C 87.57534 126.197234 87.874016 125.476166 87.874016 124.724409 
C 87.874016 123.972653 87.57534 123.251585 87.043767 122.720012 
C 86.512195 122.18844 85.791127 121.889764 85.03937 121.889764 
C 84.287613 121.889764 83.566545 122.18844 83.034973 122.720012 
C 82.503401 123.251585 82.204724 123.972653 82.204724 124.724409 
C 82.204724 125.476166 82.503401 126.197234 83.034973 126.728807 
C 83.566545 127.260379 84.287613 127.559055 85.03937 127.559055 
z
" style="stroke:#000000;stroke-linejoin:miter;"/>
   </g>
   <g id="patch_33">
    <path clip-path="url(#pe86d51a454)" d="M 170.07874 127.559055 
C 170.830497 127.559055 171.551565 127.260379 172.083137 126.728807 
C 172.61471 126.197234 172.913386 125.476166 172.913386 124.724409 
C 172.913386 123.972653 172.61471 123.251585 172.083137 122.720012 
C 171.551565 122.18844 170.830497 121.889764 170.07874 121.889764 
C 169.326983 121.889764 168.605915 122.18844 168.074343 122.720012 
C 167.542771 123.251585 167.244094 123.972653 167.244094 124.724409 
C 167.244094 125.476166 167.542771 126.197234 168.074343 126.728807 
C 168.605915 127.260379 169.326983 127.559055 170.07874 127.559055 
z
" style="stroke:#000000;stroke-linejoin:miter;"/>
   </g>
   <g id="patch_34">
    <path clip-path="url(#pe86d51a454)" d="M 28.346457 184.251969 
C 29.098214 184.251969 29.819282 183.953292 30.350854 183.42172 
C 30.882426 182.890148 31.181102 182.16908 31.181102 181.417323 
C 31.181102 180.665566 30.882426 179.944498 30.350854 179.412926 
C 29.819282 178.881353 29.098214 178.582677 28.346457 178.582677 
C 27.5947 178.582677 26.873632 178.881353 26.34206 179.412926 
C 25.810487 179.944498 25.511811 180.665566 25.511811 181.417323 
C 25.511811 182.16908 25.810487 182.890148 26.34206 183.42172 
C 26.873632 183.953292 27.5947 184.251969 28.346457 184.251969 
z
" style="stroke:#000000;stroke-linejoin:miter;"/>
   </g>
   <g id="patch_35">
    <path clip-path="url(#pe86d51a454)" d="M 85.03937 184.251969 
C 85.791127 184.251969 86.512195 183.953292 87.043767 183.42172 
C 87.57534 182.890148 87.874016 182.16908 87.874016 181.417323 
C 87.874016 180.665566 87.57534 179.944498 87.043767 179.412926 
C 86.512195 178.881353 85.791127 178.582677 85.03937 178.582677 
C 84.287613 178.582677 83.566545 178.881353 83.034973 179.412926 
C 82.503401 179.944498 82.204724 180.665566 82.204724 181.417323 
C 82.204724 182.16908 82.503401 182.890148 83.034973 183.42172 
C 83.566545 183.953292 84.287613 184.251969 85.03937 184.251969 
z
" style="stroke:#000000;stroke-linejoin:miter;"/>
   </g>
   <g id="patch_36">
    <path clip-path="url(#pe86d51a454)" d="M 170.07874 226.771654 
C 170.830497 226.771654 171.551565 226.472977 172.083137 225.941405 
C 172.61471 225.409833 172.913386 224.688765 172.913386 223.937008 
C 172.913386 223.185251 172.61471 222.464183 172.083137 221.932611 
C 171.551565 221.401038 170.830497 221.102362 170.07874 221.102362 
C 169.326983 221.102362 168.605915 221.401038 168.074343 221.932611 
C 167.542771 222.464183 167.244094 223.185251 167.244094 223.937008 
C 167.244094 224.688765 167.542771 225.409833 168.074343 225.941405 
C 168.605915 226.472977 169.326983 226.771654 170.07874 226.771654 
z
" style="stroke:#000000;stroke-linejoin:miter;"/>
   </g>
   <g id="patch_37">
    <path clip-path="url(#pe86d51a454)" d="M 56.692913 226.771654 
C 57.44467 226.771654 58.165738 226.472977 58.697311 225.941405 
C 59.228883 225.409833 59.527559 224.688765 59.527559 223.937008 
C 59.527559 223.185251 59.228883 222.464183 58.697311 221.932611 
C 58.165738 221.401038 57.44467 221.102362 56.692913 221.102362 
C 55.941157 221.102362 55.220089 221.401038 54.688516 221.932611 
C 54.156944 222.464183 53.858268 223.185251 53.858268 223.937008 
C 53.858268 224.688765 54.156944 225.409833 54.688516 225.941405 
C 55.220089 226.472977 55.941157 226.771654 56.692913 226.771654 
z
" style="stroke:#000000;stroke-linejoin:miter;"/>
   </g>
   <g id="patch_38">
    <path clip-path="url(#pe86d51a454)" d="M 119.055118 226.771654 
C 119.806875 226.771654 120.527943 226.472977 121.059515 225.941405 
C 121.591088 225.409833 121.889764 224.688765 121.889764 223.937008 
C 121.889764 223.185251 121.591088 222.464183 121.059515 221.932611 
C 120.527943 221.401038 119.806875 221.102362 119.055118 221.102362 
C 118.303361 221.102362 117.582293 221.401038 117.050721 221.932611 
C 116.519149 222.464183 116.220472 223.185251 116.220472 223.937008 
C 116.220472 224.688765 116.519149 225.409833 117.050721 225.941405 
C 117.582293 226.472977 118.303361 226.771654 119.055118 226.771654 
z
" style="stroke:#000000;stroke-linejoin:miter;"/>
   </g>
   <g id="patch_39">
    <path clip-path="url(#pe86d51a454)" d="M 96.377953 85.03937 
C 97.12971 85.03937 97.850778 84.740694 98.38235 84.209122 
C 98.913922 83.677549 99.212598 82.956481 99.212598 82.204724 
C 99.212598 81.452968 98.913922 80.7319 98.38235 80.200327 
C 97.850778 79.668755 97.12971 79.370079 96.377953 79.370079 
C 95.626196 79.370079 94.905128 79.668755 94.373556 80.200327 
C 93.841983 80.7319 93.543307 81.452968 93.543307 82.204724 
C 93.543307 82.956481 93.841983 83.677549 94.373556 84.209122 
C 94.905128 84.740694 95.626196 85.03937 96.377953 85.03937 
z
" style="fill:none;stroke:#000000;stroke-linejoin:miter;"/>
   </g>
   <g id="patch_40">
    <path clip-path="url(#pe86d51a454)" d="M 76.535433 42.519685 
C 77.28719 42.519685 78.008258 42.221009 78.53983 41.689437 
C 79.071403 41.157864 79.370079 40.436796 79.370079 39.685039 
C 79.370079 38.933283 79.071403 38.212215 78.53983 37.680642 
C 78.008258 37.14907 77.28719 36.850394 76.535433 36.850394 
C 75.783676 36.850394 75.062608 37.14907 74.531036 37.680642 
C 73.999464 38.212215 73.700787 38.933283 73.700787 39.685039 
C 73.700787 40.436796 73.999464 41.157864 74.531036 41.689437 
C 75.062608 42.221009 75.783676 42.519685 76.535433 42.519685 
z
" style="fill:none;stroke:#000000;stroke-linejoin:miter;"/>
   </g>
   <g id="patch_41">
    <path clip-path="url(#pe86d51a454)" d="M 144.566929 178.582677 
C 145.318686 178.582677 146.039754 178.284001 146.571326 177.752429 
C 147.102899 177.220856 147.401575 176.499788 147.401575 175.748031 
C 147.401575 174.996275 147.102899 174.275207 146.571326 173.743634 
C 146.039754 173.212062 145.318686 172.913386 144.566929 172.913386 
C 143.815172 172.913386 143.094104 173.212062 142.562532 173.743634 
C 142.03096 174.275207 141.732283 174.996275 141.732283 175.748031 
C 141.732283 176.499788 142.03096 177.220856 142.562532 177.752429 
C 143.094104 178.284001 143.815172 178.582677 144.566929 178.582677 
z
" style="fill:none;stroke:#000000;stroke-linejoin:miter;"/>
   </g>
   <g id="matplotlib.axis_1"/>
   <g id="matplotlib.axis_2"/>
   <g id="text_1">
    <!-- $O$ -->
    <defs>
     <path d="M 72.59375 43.703125 
C 72.59375 60.125 61.796875 70.1875 47.796875 70.1875 
C 26.40625 70.1875 4.796875 47.28125 4.796875 24.28125 
C 4.796875 8.65625 15.203125 -2 29.703125 -2 
C 50.703125 -2 72.59375 19.8125 72.59375 43.703125 
z
M 30.296875 0.296875 
C 22.09375 0.296875 13.40625 6.265625 13.40625 21.796875 
C 13.40625 30.84375 16.703125 45.6875 24.90625 55.65625 
C 32.203125 64.421875 40.59375 68 47.296875 68 
C 56.09375 68 64.59375 61.625 64.59375 47.28125 
C 64.59375 38.421875 60.796875 24.578125 54.09375 15.125 
C 46.796875 4.96875 37.703125 0.296875 30.296875 0.296875 
z
" id="CMMI12-79"/>
    </defs>
    <g transform="translate(143.84192 20.665957)scale(0.12 -0.12)">
     <use transform="scale(0.996264)" xlink:href="#CMMI12-79"/>
    </g>
   </g>
   <g id="text_2">
    <!-- $D$ -->
    <defs>
     <path d="M 15.703125 7.375 
C 14.796875 3.890625 14.59375 2.890625 7.59375 2.890625 
C 5.703125 2.890625 4.703125 2.890625 4.703125 1.09375 
C 4.703125 0 5.296875 0 7.296875 0 
L 39 0 
C 59.203125 0 78.90625 20.8125 78.90625 43.015625 
C 78.90625 57.359375 70.296875 68 56 68 
L 23.90625 68 
C 22 68 21.09375 68 21.09375 66.109375 
C 21.09375 65.109375 22 65.109375 23.5 65.109375 
C 29.59375 65.109375 29.59375 64.3125 29.59375 63.21875 
C 29.59375 63.03125 29.59375 62.421875 29.203125 60.921875 
z
M 36.796875 61.421875 
C 37.703125 65.109375 38.09375 65.109375 42 65.109375 
L 53 65.109375 
C 62.40625 65.109375 71 60.03125 71 46.296875 
C 71 41.3125 69 24 59.296875 13.046875 
C 56.5 9.765625 48.90625 2.890625 37.40625 2.890625 
L 26 2.890625 
C 24.59375 2.890625 24.40625 2.890625 23.796875 3 
C 22.703125 3.09375 22.59375 3.296875 22.59375 4.09375 
C 22.59375 4.796875 22.796875 5.390625 23 6.28125 
z
" id="CMMI12-68"/>
    </defs>
    <g transform="translate(15.486804 76.020288)scale(0.12 -0.12)">
     <use transform="scale(0.996264)" xlink:href="#CMMI12-68"/>
    </g>
   </g>
   <g id="text_3">
    <!-- $M$ -->
    <defs>
     <path d="M 90.796875 60.71875 
C 91.703125 64.109375 91.90625 65.109375 99 65.109375 
C 100.90625 65.109375 101.796875 65.109375 101.796875 67 
C 101.796875 68 101.09375 68 99.203125 68 
L 87.203125 68 
C 84.703125 68 84.59375 67.90625 83.5 66.296875 
L 47 8.78125 
L 39.5 65.796875 
C 39.203125 68 39.09375 68 36.5 68 
L 24.09375 68 
C 22.203125 68 21.296875 68 21.296875 66.109375 
C 21.296875 65.109375 22.203125 65.109375 23.703125 65.109375 
C 29.796875 65.109375 29.796875 64.3125 29.796875 63.21875 
C 29.796875 63.03125 29.796875 62.421875 29.40625 60.921875 
L 16.59375 9.90625 
C 15.40625 5.109375 13.09375 2.90625 6.40625 2.90625 
C 6.09375 2.90625 4.90625 2.90625 4.90625 1.140625 
C 4.90625 0 5.796875 0 6.203125 0 
C 8.203125 0 13.296875 0 15.296875 0 
L 20.09375 0 
C 21.5 0 23.203125 0 24.59375 0 
C 25.296875 0 26.40625 0 26.40625 1.90625 
C 26.40625 2.8125 25.40625 2.90625 25 2.90625 
C 21.703125 2.90625 18.5 3.5 18.5 7.09375 
C 18.5 8.09375 18.5 8.1875 18.90625 9.578125 
L 32.703125 64.515625 
L 32.796875 64.515625 
L 41.09375 2.6875 
C 41.40625 0.296875 41.5 0 42.40625 0 
C 43.5 0 44 0.796875 44.5 1.703125 
L 84.703125 65.015625 
L 84.796875 65.015625 
L 70.296875 7.390625 
C 69.40625 3.90625 69.203125 2.90625 62.203125 2.90625 
C 60.296875 2.90625 59.296875 2.90625 59.296875 1.09375 
C 59.296875 0 60.203125 0 60.796875 0 
C 62.5 0 64.5 0 66.203125 0 
L 78 0 
C 79.703125 0 81.796875 0 83.5 0 
C 84.296875 0 85.40625 0 85.40625 1.90625 
C 85.40625 2.90625 84.5 2.90625 83 2.90625 
C 76.90625 2.90625 76.90625 3.65625 76.90625 4.59375 
C 76.90625 4.703125 76.90625 5.390625 77.09375 6.1875 
z
" id="CMMI12-77"/>
    </defs>
    <g transform="translate(174.416335 66.020288)scale(0.12 -0.12)">
     <use transform="scale(0.996264)" xlink:href="#CMMI12-77"/>
    </g>
   </g>
   <g id="text_4">
    <!-- $V$ -->
    <defs>
     <path d="M 61.90625 56.875 
C 65.296875 62.25 68.40625 64.625 73.5 65.03125 
C 74.5 65.125 75.296875 65.125 75.296875 66.90625 
C 75.296875 67.3125 75.09375 67.90625 74.203125 67.90625 
C 72.40625 67.90625 68.09375 67.90625 66.296875 67.90625 
C 63.40625 67.90625 60.40625 67.90625 57.59375 67.90625 
C 56.796875 67.90625 55.796875 67.90625 55.796875 66.03125 
C 55.796875 65.125 56.703125 65.03125 57.09375 65.03125 
C 60.796875 64.734375 61.203125 62.953125 61.203125 61.75 
C 61.203125 60.265625 59.796875 57.96875 59.703125 57.875 
L 28.296875 8.4375 
L 21.296875 62.015625 
C 21.296875 65 26.5 65 27.59375 65 
C 29.09375 65 30 65 30 66.90625 
C 30 67.90625 28.90625 67.90625 28.59375 67.90625 
C 26.90625 67.90625 24.90625 67.90625 23.203125 67.90625 
L 17.59375 67.90625 
C 10.296875 67.90625 7.296875 67.90625 7.203125 67.90625 
C 6.59375 67.90625 5.40625 67.90625 5.40625 66.09375 
C 5.40625 65 6.09375 65 7.703125 65 
C 12.796875 65 13.09375 64.09375 13.40625 61.625 
L 21.40625 0.375 
C 21.703125 -1.703125 21.703125 -2 23.09375 -2 
C 24.296875 -2 24.796875 -1.703125 25.796875 -0.125 
z
" id="CMMI12-86"/>
    </defs>
    <g transform="translate(16.934287 132.713201)scale(0.12 -0.12)">
     <use transform="scale(0.996264)" xlink:href="#CMMI12-86"/>
    </g>
   </g>
   <g id="text_5">
    <!-- $A$ -->
    <defs>
     <path d="M 17 10.796875 
C 13.5 4.90625 10.09375 2.90625 5.296875 2.90625 
C 4.203125 2.8125 3.40625 2.8125 3.40625 0.90625 
C 3.40625 0.375 3.90625 0 4.59375 0 
C 6.40625 0 10.90625 0 12.703125 0 
C 15.59375 0 18.796875 0 21.59375 0 
C 22.203125 0 23.40625 0 23.40625 1.90625 
C 23.40625 2.8125 22.59375 2.90625 22 2.90625 
C 19.703125 2.90625 17.796875 3.6875 17.796875 6.0625 
C 17.796875 7.4375 18.40625 8.53125 19.703125 10.703125 
L 27.296875 23.109375 
L 52.796875 23.109375 
C 52.90625 22.234375 52.90625 21.453125 53 20.5625 
C 53.296875 18 54.5 7.734375 54.5 5.875 
C 54.5 2.90625 49.40625 2.90625 47.796875 2.90625 
C 46.703125 2.90625 45.59375 2.90625 45.59375 1.09375 
C 45.59375 0 46.5 0 47.09375 0 
C 48.796875 0 50.796875 0 52.5 0 
L 58.203125 0 
C 64.296875 0 68.703125 0 68.796875 0 
C 69.5 0 70.59375 0 70.59375 1.90625 
C 70.59375 2.90625 69.703125 2.90625 68.203125 2.90625 
C 62.703125 2.90625 62.59375 3.8125 62.296875 6.78125 
L 56.203125 68.8125 
C 56 70.796875 55.59375 71 54.5 71 
C 53.5 71 52.90625 70.796875 52 69.296875 
z
M 29 26 
L 49.09375 59.671875 
L 52.5 26 
z
" id="CMMI12-65"/>
    </defs>
    <g transform="translate(72.651702 132.713201)scale(0.12 -0.12)">
     <use transform="scale(0.996264)" xlink:href="#CMMI12-65"/>
    </g>
   </g>
   <g id="text_6">
    <!-- $E$ -->
    <defs>
     <path d="M 69.5 23.265625 
C 69.59375 23.5625 69.90625 24.28125 69.90625 24.671875 
C 69.90625 25.171875 69.5 25.671875 68.90625 25.671875 
C 68.5 25.671875 68.296875 25.578125 68 25.265625 
C 67.796875 25.171875 67.796875 24.96875 66.90625 22.953125 
C 61 8.90625 56.703125 2.890625 40.703125 2.890625 
L 26.09375 2.890625 
C 24.703125 2.890625 24.5 2.890625 23.90625 3 
C 22.796875 3.09375 22.703125 3.296875 22.703125 4.09375 
C 22.703125 4.796875 22.90625 5.390625 23.09375 6.296875 
L 30 34 
L 39.90625 34 
C 47.703125 34 48.296875 32.28125 48.296875 29.28125 
C 48.296875 28.28125 48.296875 27.375 47.59375 24.375 
C 47.40625 23.96875 47.296875 23.5625 47.296875 23.265625 
C 47.296875 22.5625 47.796875 22.265625 48.40625 22.265625 
C 49.296875 22.265625 49.40625 22.953125 49.796875 24.359375 
L 55.5 47.53125 
C 55.5 48.015625 55.09375 48.515625 54.5 48.515625 
C 53.59375 48.515625 53.5 48.125 53.09375 46.71875 
C 51.09375 39.078125 49.09375 36.890625 40.203125 36.890625 
L 30.703125 36.890625 
L 36.90625 61.40625 
C 37.796875 64.90625 38 64.90625 42.09375 64.90625 
L 56.40625 64.90625 
C 68.703125 64.90625 71.203125 61.609375 71.203125 54.03125 
C 71.203125 53.921875 71.203125 51.140625 70.796875 47.84375 
C 70.703125 47.4375 70.59375 46.84375 70.59375 46.640625 
C 70.59375 45.84375 71.09375 45.546875 71.703125 45.546875 
C 72.40625 45.546875 72.796875 45.953125 73 47.734375 
L 75.09375 65.21875 
C 75.09375 65.546875 75.296875 66.609375 75.296875 66.828125 
C 75.296875 68 74.40625 68 72.59375 68 
L 23.796875 68 
C 21.90625 68 20.90625 68 20.90625 66.078125 
C 20.90625 64.90625 21.59375 64.90625 23.296875 64.90625 
C 29.5 64.90625 29.5 64.28125 29.5 63.3125 
C 29.5 62.8125 29.40625 62.40625 29.09375 61.3125 
L 15.59375 7.390625 
C 14.703125 3.890625 14.5 2.890625 7.5 2.890625 
C 5.59375 2.890625 4.59375 2.890625 4.59375 1.09375 
C 4.59375 0 5.203125 0 7.203125 0 
L 57.40625 0 
C 59.59375 0 59.703125 0.09375 60.40625 1.71875 
z
" id="CMMI12-69"/>
    </defs>
    <g transform="translate(174.746073 122.713201)scale(0.12 -0.12)">
     <use transform="scale(0.996264)" xlink:href="#CMMI12-69"/>
    </g>
   </g>
   <g id="text_7">
    <!-- $L$ -->
    <defs>
     <path d="M 36.703125 60.328125 
C 37.59375 64.109375 37.90625 65.109375 46.703125 65.109375 
C 49.40625 65.109375 50.09375 65.109375 50.09375 67 
C 50.09375 68 49 68 48.59375 68 
C 46.59375 68 44.296875 68 42.296875 68 
L 28.90625 68 
C 27 68 24.796875 68 22.90625 68 
C 22.09375 68 21 68 21 66.109375 
C 21 65.109375 21.90625 65.109375 23.40625 65.109375 
C 29.5 65.109375 29.5 64.3125 29.5 63.21875 
C 29.5 63.03125 29.5 62.421875 29.09375 60.921875 
L 15.59375 7.375 
C 14.703125 3.890625 14.5 2.890625 7.5 2.890625 
C 5.59375 2.890625 4.59375 2.890625 4.59375 1.09375 
C 4.59375 0 5.203125 0 7.203125 0 
L 52 0 
C 54.203125 0 54.296875 0.09375 55 1.890625 
L 62.703125 23.09375 
C 62.90625 23.59375 63.09375 24.1875 63.09375 24.484375 
C 63.09375 25.078125 62.59375 25.484375 62.09375 25.484375 
C 62 25.484375 61.5 25.484375 61.296875 25.078125 
C 61.09375 24.984375 61.09375 24.78125 60.296875 22.890625 
C 57.09375 14.140625 52.59375 2.890625 35.703125 2.890625 
L 26.09375 2.890625 
C 24.703125 2.890625 24.5 2.890625 23.90625 3 
C 22.796875 3.09375 22.703125 3.296875 22.703125 4.09375 
C 22.703125 4.796875 22.90625 5.390625 23.09375 6.265625 
z
" id="CMMI12-76"/>
    </defs>
    <g transform="translate(16.364205 189.406115)scale(0.12 -0.12)">
     <use transform="scale(0.996264)" xlink:href="#CMMI12-76"/>
    </g>
   </g>
   <g id="text_8">
    <!-- $P$ -->
    <defs>
     <path d="M 29.59375 31.609375 
L 46.40625 31.609375 
C 60.203125 31.609375 74 41.765625 74 53.140625 
C 74 60.90625 67.40625 68 54.796875 68 
L 23.90625 68 
C 22 68 21.09375 68 21.09375 66.109375 
C 21.09375 65.109375 22 65.109375 23.5 65.109375 
C 29.59375 65.109375 29.59375 64.3125 29.59375 63.21875 
C 29.59375 63.03125 29.59375 62.421875 29.203125 60.921875 
L 15.703125 7.375 
C 14.796875 3.890625 14.59375 2.890625 7.59375 2.890625 
C 5.703125 2.890625 4.703125 2.890625 4.703125 1.09375 
C 4.703125 0 5.59375 0 6.203125 0 
C 8.09375 0 10.09375 0 12 0 
L 23.703125 0 
C 25.59375 0 27.703125 0 29.59375 0 
C 30.40625 0 31.5 0 31.5 1.890625 
C 31.5 2.890625 30.59375 2.890625 29.09375 2.890625 
C 23.09375 2.890625 23 3.59375 23 4.578125 
C 23 5.078125 23.09375 5.765625 23.203125 6.265625 
z
M 36.796875 61.40625 
C 37.703125 65.109375 38.09375 65.109375 42 65.109375 
L 51.90625 65.109375 
C 59.40625 65.109375 65.59375 62.703125 65.59375 55.234375 
C 65.59375 52.640625 64.296875 44.171875 59.703125 39.59375 
C 58 37.796875 53.203125 34 44.09375 34 
L 30 34 
z
" id="CMMI12-80"/>
    </defs>
    <g transform="translate(83.266736 194.406115)scale(0.12 -0.12)">
     <use transform="scale(0.996264)" xlink:href="#CMMI12-80"/>
    </g>
   </g>
   <g id="text_9">
    <!-- $C$ -->
    <defs>
     <path d="M 74.703125 69.109375 
C 74.703125 70 74 70 73.796875 70 
C 73.59375 70 73.203125 70 72.40625 69 
L 65.5 60.65625 
C 62 66.625 56.5 70 49 70 
C 27.40625 70 5 48.25 5 24.921875 
C 5 8.328125 16.703125 -2 31.296875 -2 
C 39.296875 -2 46.296875 1.375 52.09375 6.25 
C 60.796875 13.484375 63.40625 23.140625 63.40625 23.921875 
C 63.40625 24.8125 62.59375 24.8125 62.296875 24.8125 
C 61.40625 24.8125 61.296875 24.21875 61.09375 23.8125 
C 56.5 8.34375 43 0.890625 33 0.890625 
C 22.40625 0.890625 13.203125 7.640625 13.203125 21.734375 
C 13.203125 24.921875 14.203125 42.1875 25.5 55.1875 
C 31 61.546875 40.40625 67.109375 49.90625 67.109375 
C 60.90625 67.109375 65.796875 58.078125 65.796875 47.9375 
C 65.796875 45.359375 65.5 43.1875 65.5 42.78125 
C 65.5 41.890625 66.5 41.890625 66.796875 41.890625 
C 67.90625 41.890625 68 41.984375 68.40625 43.765625 
z
" id="CMMI12-67"/>
    </defs>
    <g transform="translate(173.891219 231.9258)scale(0.12 -0.12)">
     <use transform="scale(0.996264)" xlink:href="#CMMI12-67"/>
    </g>
   </g>
   <g id="text_10">
    <!-- $B$ -->
    <defs>
     <path d="M 36.59375 61.265625 
C 37.5 65 37.90625 65 41.796875 65 
L 54.796875 65 
C 66.09375 65 66.09375 55.375 66.09375 54.453125 
C 66.09375 46.34375 58 36 44.796875 36 
L 30.40625 36 
z
M 53.5 35.546875 
C 64.40625 37.53125 74.296875 45.09375 74.296875 54.265625 
C 74.296875 62.03125 67.40625 68 56.09375 68 
L 24 68 
C 22.09375 68 21.203125 68 21.203125 66.03125 
C 21.203125 65 22.09375 65 23.59375 65 
C 29.703125 65 29.703125 64.25 29.703125 63.1875 
C 29.703125 63 29.703125 62.390625 29.296875 60.890625 
L 15.796875 7.375 
C 14.90625 3.890625 14.703125 2.890625 7.703125 2.890625 
C 5.796875 2.890625 4.796875 2.890625 4.796875 1.09375 
C 4.796875 0 5.40625 0 7.40625 0 
L 41.703125 0 
C 57 0 68.796875 11.546875 68.796875 21.609375 
C 68.796875 29.78125 61.59375 34.75 53.5 35.546875 
z
M 39.296875 2.890625 
L 25.796875 2.890625 
C 24.40625 2.890625 24.203125 2.890625 23.59375 3 
C 22.5 3.09375 22.40625 3.296875 22.40625 4.078125 
C 22.40625 4.765625 22.59375 5.359375 22.796875 6.234375 
L 29.796875 34 
L 48.59375 34 
C 60.40625 34 60.40625 23.171875 60.40625 22.390625 
C 60.40625 12.9375 51.703125 2.890625 39.296875 2.890625 
z
" id="CMMI12-66"/>
    </defs>
    <g transform="translate(44.246438 231.9258)scale(0.12 -0.12)">
     <use transform="scale(0.996264)" xlink:href="#CMMI12-66"/>
    </g>
   </g>
   <g id="text_11">
    <!-- $R$ -->
    <defs>
     <path d="M 36.796875 61.3125 
C 37.703125 65 38.09375 65 42 65 
L 49.203125 65 
C 57.796875 65 64.203125 62.421875 64.203125 54.671875 
C 64.203125 49.609375 61.59375 35 41.5 35 
L 30.203125 35 
z
M 50.703125 33.890625 
C 63.09375 36.578125 72.796875 44.546875 72.796875 53.09375 
C 72.796875 60.84375 64.90625 68 51 68 
L 23.90625 68 
C 21.90625 68 21 68 21 66.03125 
C 21 65 21.703125 65 23.59375 65 
C 29.59375 65 29.59375 64.25 29.59375 63.203125 
C 29.59375 63.015625 29.59375 62.40625 29.203125 60.921875 
L 15.703125 7.484375 
C 14.796875 4 14.59375 3 7.703125 3 
C 5.40625 3 4.703125 3 4.703125 1.109375 
C 4.703125 0.109375 5.796875 0.109375 6.09375 0.109375 
C 7.90625 0.109375 10 0.109375 11.90625 0.109375 
L 23.703125 0.109375 
C 25.5 0.109375 27.59375 0.109375 29.40625 0.109375 
C 30.203125 0.109375 31.296875 0.109375 31.296875 2 
C 31.296875 3 30.40625 3 28.90625 3 
C 22.796875 3 22.796875 3.796875 22.796875 4.78125 
C 22.796875 4.890625 22.796875 5.578125 23 6.359375 
L 29.703125 33 
L 41.703125 33 
C 51.203125 33 53 27.046875 53 23.78125 
C 53 22.296875 52 18.421875 51.296875 15.84375 
C 50.203125 11.296875 49.90625 10.1875 49.90625 8.3125 
C 49.90625 1.28125 55.703125 -2 62.40625 -2 
C 70.5 -2 74 7.828125 74 9.234375 
C 74 9.921875 73.5 10.21875 72.90625 10.21875 
C 72.09375 10.21875 71.90625 9.625 71.703125 8.828125 
C 69.296875 1.78125 65.203125 0 62.703125 0 
C 60.203125 0 58.59375 1.09375 58.59375 5.5625 
C 58.59375 7.953125 59.796875 17 59.90625 17.5 
C 60.40625 21.171875 60.40625 21.5625 60.40625 22.375 
C 60.40625 29.625 54.5 32.703125 50.703125 33.890625 
z
" id="CMMI12-82"/>
    </defs>
    <g transform="translate(106.600069 231.9258)scale(0.12 -0.12)">
     <use transform="scale(0.996264)" xlink:href="#CMMI12-82"/>
    </g>
   </g>
   <g id="text_12">
    <!-- $U_0$ -->
    <defs>
     <path d="M 50.59375 23.03125 
C 47.09375 9.078125 35.5 0.890625 26.09375 0.890625 
C 18.90625 0.890625 14 5.671875 14 13.921875 
C 14 14.3125 14 17.296875 15.09375 21.671875 
L 24.90625 60.734375 
C 25.796875 64.109375 26 65.109375 33.09375 65.109375 
C 34.90625 65.109375 35.90625 65.109375 35.90625 66.90625 
C 35.90625 68 35 68 34.40625 68 
C 32.59375 68 30.5 68 28.59375 68 
L 16.796875 68 
C 14.90625 68 12.796875 68 10.90625 68 
C 10.203125 68 9 68 9 66.109375 
C 9 65.109375 9.703125 65.109375 11.59375 65.109375 
C 17.59375 65.109375 17.59375 64.3125 17.59375 63.21875 
C 17.59375 62.625 16.90625 59.75 16.40625 58.046875 
L 7.703125 23.25 
C 7.40625 22.15625 6.796875 19.46875 6.796875 16.796875 
C 6.796875 5.84375 14.703125 -2 25.59375 -2 
C 35.703125 -2 46.90625 6 52 18.703125 
C 52.703125 20.390625 53.59375 23.90625 54.203125 26.59375 
C 55.203125 30.203125 57.296875 39 58 41.59375 
L 61.796875 56.609375 
C 63.09375 61.8125 63.90625 65.109375 72.703125 65.109375 
C 73.5 65.203125 73.90625 66 73.90625 66.90625 
C 73.90625 68 73 68 72.59375 68 
C 71.203125 68 69.40625 68 68 68 
L 63.296875 68 
C 57.09375 68 53.90625 68 53.796875 68 
C 53.203125 68 52 68 52 66.109375 
C 52 65.109375 52.796875 65.109375 53.5 65.109375 
C 59.5 65.109375 59.90625 62.8125 59.90625 61.015625 
C 59.90625 60.125 59.90625 59.8125 59.5 58.421875 
z
" id="CMMI12-85"/>
     <path d="M 42 31.640625 
C 42 37.75 41.90625 48.125 37.703125 56.109375 
C 34 63.109375 28.09375 65.59375 22.90625 65.59375 
C 18.09375 65.59375 12 63.40625 8.203125 56.203125 
C 4.203125 48.71875 3.796875 39.4375 3.796875 31.640625 
C 3.796875 25.953125 3.90625 17.28125 7 9.671875 
C 11.296875 -0.609375 19 -2 22.90625 -2 
C 27.5 -2 34.5 -0.109375 38.59375 9.375 
C 41.59375 16.28125 42 24.359375 42 31.640625 
z
M 22.90625 -0.40625 
C 16.5 -0.40625 12.703125 5.078125 11.296875 12.6875 
C 10.203125 18.5625 10.203125 27.15625 10.203125 32.75 
C 10.203125 40.4375 10.203125 46.828125 11.5 52.921875 
C 13.40625 61.390625 19 64 22.90625 64 
C 27 64 32.296875 61.296875 34.203125 53.125 
C 35.5 47.4375 35.59375 40.734375 35.59375 32.75 
C 35.59375 26.25 35.59375 18.265625 34.40625 12.375 
C 32.296875 1.484375 26.40625 -0.40625 22.90625 -0.40625 
z
" id="CMR17-48"/>
    </defs>
    <g transform="translate(82.28574 90.193516)scale(0.12 -0.12)">
     <use transform="translate(0 14.943915)scale(0.996264)" xlink:href="#CMMI12-85"/>
     <use transform="translate(66.252119 0)scale(0.697382)" xlink:href="#CMR17-48"/>
    </g>
   </g>
   <g id="text_13">
    <!-- $U_1$ -->
    <defs>
     <path d="M 26.59375 63.40625 
C 26.59375 65.5 26.5 65.5 25.09375 65.5 
C 21.203125 61.1875 15.296875 59.796875 9.703125 59.796875 
C 9.40625 59.796875 8.90625 59.796875 8.796875 59.5 
C 8.703125 59.296875 8.703125 59.09375 8.703125 57 
C 11.796875 57 17 57.59375 21 59.984375 
L 21 7.203125 
C 21 3.6875 20.796875 2.5 12.203125 2.5 
L 9.203125 2.5 
L 9.203125 0 
C 14 0 19 0 23.796875 0 
C 28.59375 0 33.59375 0 38.40625 0 
L 38.40625 2.5 
L 35.40625 2.5 
C 26.796875 2.5 26.59375 3.59375 26.59375 7.15625 
z
" id="CMR17-49"/>
    </defs>
    <g transform="translate(78.44322 37.673831)scale(0.12 -0.12)">
     <use transform="translate(0 14.943915)scale(0.996264)" xlink:href="#CMMI12-85"/>
     <use transform="translate(66.252119 0)scale(0.697382)" xlink:href="#CMR17-49"/>
    </g>
   </g>
   <g id="text_14">
    <!-- $U_2$ -->
    <defs>
     <path d="M 41.703125 15.453125 
L 39.90625 15.453125 
C 38.90625 8.375 38.09375 7.171875 37.703125 6.5625 
C 37.203125 5.765625 30 5.765625 28.59375 5.765625 
L 9.40625 5.765625 
C 13 9.671875 20 16.75 28.5 24.953125 
C 34.59375 30.734375 41.703125 37.53125 41.703125 47.421875 
C 41.703125 59.21875 32.296875 66 21.796875 66 
C 10.796875 66 4.09375 56.3125 4.09375 47.34375 
C 4.09375 43.4375 7 42.9375 8.203125 42.9375 
C 9.203125 42.9375 12.203125 43.546875 12.203125 47.03125 
C 12.203125 50.109375 9.59375 51 8.203125 51 
C 7.59375 51 7 50.90625 6.59375 50.703125 
C 8.5 59.21875 14.296875 63.40625 20.40625 63.40625 
C 29.09375 63.40625 34.796875 56.515625 34.796875 47.421875 
C 34.796875 38.734375 29.703125 31.25 24 24.75 
L 4.09375 2.28125 
L 4.09375 0 
L 39.296875 0 
z
" id="CMR17-50"/>
    </defs>
    <g transform="translate(146.474716 173.736824)scale(0.12 -0.12)">
     <use transform="translate(0 14.943915)scale(0.996264)" xlink:href="#CMMI12-85"/>
     <use transform="translate(66.252119 0)scale(0.697382)" xlink:href="#CMR17-50"/>
    </g>
   </g>
  </g>
 </g>
 <defs>
  <clipPath id="pe86d51a454">
   <rect height="246.614173" width="198.425197" x="0" y="0"/>
  </clipPath>
 </defs>
</svg>
