<?xml version="1.0" encoding="utf-8" standalone="no"?>
<!DOCTYPE svg PUBLIC "-//W3C//DTD SVG 1.1//EN"
  "http://www.w3.org/Graphics/SVG/1.1/DTD/svg11.dtd">
<!-- Created with matplotlib (https://matplotlib.org/) -->
<svg height="113.385827pt" version="1.1" viewBox="0 0 113.385827 113.385827" width="113.385827pt" xmlns="http://www.w3.org/2000/svg" xmlns:xlink="http://www.w3.org/1999/xlink">
 <defs>
  <style type="text/css">
*{stroke-linecap:butt;stroke-linejoin:round;}
  </style>
 </defs>
 <g id="figure_1">
  <g id="patch_1">
   <path d="M 0 113.385827 
L 113.385827 113.385827 
L 113.385827 0 
L 0 0 
z
" style="fill:#ffffff;"/>
  </g>
  <g id="axes_1">
   <g id="patch_2">
    <path clip-path="url(#p9f2a0f49c1)" d="M 56.692913 53.858268 
L 55.275591 46.771654 
L 56.692913 46.771654 
L 56.692913 19.84252 
L 56.692913 19.84252 
L 56.692913 46.771654 
L 58.110236 46.771654 
z
" style="stroke:#000000;stroke-linejoin:miter;stroke-width:0.5;"/>
   </g>
   <g id="patch_3">
    <path clip-path="url(#p9f2a0f49c1)" d="M 56.692913 59.527559 
L 58.110236 66.614173 
L 56.692913 66.614173 
L 56.692913 96.377953 
L 56.692913 96.377953 
L 56.692913 66.614173 
L 55.275591 66.614173 
z
" style="stroke:#000000;stroke-linejoin:miter;stroke-width:0.5;"/>
   </g>
   <g id="patch_4">
    <path clip-path="url(#p9f2a0f49c1)" d="M 53.858268 56.692913 
L 46.771654 58.110236 
L 46.771654 56.692913 
L 14.173228 56.692913 
L 14.173228 56.692913 
L 46.771654 56.692913 
L 46.771654 55.275591 
z
" style="stroke:#000000;stroke-linejoin:miter;stroke-width:0.5;"/>
   </g>
   <g id="patch_5">
    <path clip-path="url(#p9f2a0f49c1)" d="M 59.098162 58.192912 
L 65.861282 60.740285 
L 65.111282 61.94291 
L 84.590027 74.090552 
L 84.590027 74.090552 
L 65.111282 61.94291 
L 64.361283 63.145534 
z
" style="stroke:#000000;stroke-linejoin:miter;stroke-width:0.5;"/>
   </g>
   <g id="patch_6">
    <path clip-path="url(#p9f2a0f49c1)" d="M 55.101982 54.34682 
L 49.951607 49.277052 
L 51.124654 48.481587 
L 33.986882 23.209085 
L 33.986882 23.209085 
L 51.124654 48.481587 
L 52.297701 47.686121 
z
" style="stroke:#000000;stroke-linejoin:miter;stroke-width:0.5;"/>
   </g>
   <g id="patch_7">
    <path clip-path="url(#p9f2a0f49c1)" d="M 58.606566 54.601706 
L 62.345093 48.41686 
L 63.390697 49.373686 
L 82.275324 28.736877 
L 82.275324 28.736877 
L 63.390697 49.373686 
L 64.436301 50.330512 
z
" style="stroke:#000000;stroke-linejoin:miter;stroke-width:0.5;"/>
   </g>
   <g id="patch_8">
    <path clip-path="url(#p9f2a0f49c1)" d="M 54.198693 55.346035 
L 47.289704 53.225948 
L 47.963143 51.978838 
L 21.391858 37.630343 
L 21.391858 37.630343 
L 47.963143 51.978838 
L 48.636583 50.731728 
z
" style="stroke:#000000;stroke-linejoin:miter;stroke-width:0.5;"/>
   </g>
   <g id="patch_9">
    <path clip-path="url(#p9f2a0f49c1)" d="M 59.527559 56.692913 
L 66.614173 55.275591 
L 66.614173 56.692913 
L 90.708661 56.692913 
L 90.708661 56.692913 
L 66.614173 56.692913 
L 66.614173 58.110236 
z
" style="stroke:#000000;stroke-linejoin:miter;stroke-width:0.5;"/>
   </g>
   <g id="patch_10">
    <path clip-path="url(#p9f2a0f49c1)" d="M 55.203518 59.104742 
L 52.685942 65.879011 
L 51.480028 65.134313 
L 33.885346 93.625967 
L 33.885346 93.625967 
L 51.480028 65.134313 
L 50.274114 64.389615 
z
" style="stroke:#000000;stroke-linejoin:miter;stroke-width:0.5;"/>
   </g>
   <g id="patch_11">
    <path clip-path="url(#p9f2a0f49c1)" d="M 54.157529 57.960605 
L 48.452915 62.397528 
L 47.819069 61.129836 
L 21.433022 74.322859 
L 21.433022 74.322859 
L 47.819069 61.129836 
L 47.185223 59.862144 
z
" style="stroke:#000000;stroke-linejoin:miter;stroke-width:0.5;"/>
   </g>
   <g id="patch_12">
    <path clip-path="url(#p9f2a0f49c1)" d="M 56.692913 19.84252 
C 57.44467 19.84252 58.165738 19.543844 58.697311 19.012271 
C 59.228883 18.480699 59.527559 17.759631 59.527559 17.007874 
C 59.527559 16.256117 59.228883 15.535049 58.697311 15.003477 
C 58.165738 14.471904 57.44467 14.173228 56.692913 14.173228 
C 55.941157 14.173228 55.220089 14.471904 54.688516 15.003477 
C 54.156944 15.535049 53.858268 16.256117 53.858268 17.007874 
C 53.858268 17.759631 54.156944 18.480699 54.688516 19.012271 
C 55.220089 19.543844 55.941157 19.84252 56.692913 19.84252 
z
" style="stroke:#000000;stroke-linejoin:miter;"/>
   </g>
   <g id="patch_13">
    <path clip-path="url(#p9f2a0f49c1)" d="M 84.188976 29.480315 
C 84.940733 29.480315 85.661801 29.181639 86.193374 28.650066 
C 86.724946 28.118494 87.023622 27.397426 87.023622 26.645669 
C 87.023622 25.893912 86.724946 25.172844 86.193374 24.641272 
C 85.661801 24.1097 84.940733 23.811024 84.188976 23.811024 
C 83.43722 23.811024 82.716152 24.1097 82.184579 24.641272 
C 81.653007 25.172844 81.354331 25.893912 81.354331 26.645669 
C 81.354331 27.397426 81.653007 28.118494 82.184579 28.650066 
C 82.716152 29.181639 83.43722 29.480315 84.188976 29.480315 
z
" style="stroke:#000000;stroke-linejoin:miter;"/>
   </g>
   <g id="patch_14">
    <path clip-path="url(#p9f2a0f49c1)" d="M 93.543307 59.527559 
C 94.295064 59.527559 95.016132 59.228883 95.547704 58.697311 
C 96.079277 58.165738 96.377953 57.44467 96.377953 56.692913 
C 96.377953 55.941157 96.079277 55.220089 95.547704 54.688516 
C 95.016132 54.156944 94.295064 53.858268 93.543307 53.858268 
C 92.79155 53.858268 92.070482 54.156944 91.53891 54.688516 
C 91.007338 55.220089 90.708661 55.941157 90.708661 56.692913 
C 90.708661 57.44467 91.007338 58.165738 91.53891 58.697311 
C 92.070482 59.228883 92.79155 59.527559 93.543307 59.527559 
z
" style="stroke:#000000;stroke-linejoin:miter;"/>
   </g>
   <g id="patch_15">
    <path clip-path="url(#p9f2a0f49c1)" d="M 86.995276 78.425197 
C 87.747032 78.425197 88.4681 78.126521 88.999673 77.594948 
C 89.531245 77.063376 89.829921 76.342308 89.829921 75.590551 
C 89.829921 74.838794 89.531245 74.117726 88.999673 73.586154 
C 88.4681 73.054582 87.747032 72.755906 86.995276 72.755906 
C 86.243519 72.755906 85.522451 73.054582 84.990878 73.586154 
C 84.459306 74.117726 84.16063 74.838794 84.16063 75.590551 
C 84.16063 76.342308 84.459306 77.063376 84.990878 77.594948 
C 85.522451 78.126521 86.243519 78.425197 86.995276 78.425197 
z
" style="stroke:#000000;stroke-linejoin:miter;"/>
   </g>
   <g id="patch_16">
    <path clip-path="url(#p9f2a0f49c1)" d="M 56.692913 102.047244 
C 57.44467 102.047244 58.165738 101.748568 58.697311 101.216996 
C 59.228883 100.685423 59.527559 99.964355 59.527559 99.212598 
C 59.527559 98.460842 59.228883 97.739774 58.697311 97.208201 
C 58.165738 96.676629 57.44467 96.377953 56.692913 96.377953 
C 55.941157 96.377953 55.220089 96.676629 54.688516 97.208201 
C 54.156944 97.739774 53.858268 98.460842 53.858268 99.212598 
C 53.858268 99.964355 54.156944 100.685423 54.688516 101.216996 
C 55.220089 101.748568 55.941157 102.047244 56.692913 102.047244 
z
" style="stroke:#000000;stroke-linejoin:miter;"/>
   </g>
   <g id="patch_17">
    <path clip-path="url(#p9f2a0f49c1)" d="M 18.897638 78.425197 
C 19.649395 78.425197 20.370463 78.126521 20.902035 77.594948 
C 21.433607 77.063376 21.732283 76.342308 21.732283 75.590551 
C 21.732283 74.838794 21.433607 74.117726 20.902035 73.586154 
C 20.370463 73.054582 19.649395 72.755906 18.897638 72.755906 
C 18.145881 72.755906 17.424813 73.054582 16.893241 73.586154 
C 16.361668 74.117726 16.062992 74.838794 16.062992 75.590551 
C 16.062992 76.342308 16.361668 77.063376 16.893241 77.594948 
C 17.424813 78.126521 18.145881 78.425197 18.897638 78.425197 
z
" style="stroke:#000000;stroke-linejoin:miter;"/>
   </g>
   <g id="patch_18">
    <path clip-path="url(#p9f2a0f49c1)" d="M 32.395951 98.872441 
C 33.147707 98.872441 33.868775 98.573765 34.400348 98.042192 
C 34.93192 97.51062 35.230596 96.789552 35.230596 96.037795 
C 35.230596 95.286038 34.93192 94.56497 34.400348 94.033398 
C 33.868775 93.501826 33.147707 93.20315 32.395951 93.20315 
C 31.644194 93.20315 30.923126 93.501826 30.391553 94.033398 
C 29.859981 94.56497 29.561305 95.286038 29.561305 96.037795 
C 29.561305 96.789552 29.859981 97.51062 30.391553 98.042192 
C 30.923126 98.573765 31.644194 98.872441 32.395951 98.872441 
z
" style="stroke:#000000;stroke-linejoin:miter;"/>
   </g>
   <g id="patch_19">
    <path clip-path="url(#p9f2a0f49c1)" d="M 11.338583 59.527559 
C 12.090339 59.527559 12.811408 59.228883 13.34298 58.697311 
C 13.874552 58.165738 14.173228 57.44467 14.173228 56.692913 
C 14.173228 55.941157 13.874552 55.220089 13.34298 54.688516 
C 12.811408 54.156944 12.090339 53.858268 11.338583 53.858268 
C 10.586826 53.858268 9.865758 54.156944 9.334186 54.688516 
C 8.802613 55.220089 8.503937 55.941157 8.503937 56.692913 
C 8.503937 57.44467 8.802613 58.165738 9.334186 58.697311 
C 9.865758 59.228883 10.586826 59.527559 11.338583 59.527559 
z
" style="stroke:#000000;stroke-linejoin:miter;"/>
   </g>
   <g id="patch_20">
    <path clip-path="url(#p9f2a0f49c1)" d="M 32.395951 23.697638 
C 33.147707 23.697638 33.868775 23.398962 34.400348 22.867389 
C 34.93192 22.335817 35.230596 21.614749 35.230596 20.862992 
C 35.230596 20.111235 34.93192 19.390167 34.400348 18.858595 
C 33.868775 18.327023 33.147707 18.028346 32.395951 18.028346 
C 31.644194 18.028346 30.923126 18.327023 30.391553 18.858595 
C 29.859981 19.390167 29.561305 20.111235 29.561305 20.862992 
C 29.561305 21.614749 29.859981 22.335817 30.391553 22.867389 
C 30.923126 23.398962 31.644194 23.697638 32.395951 23.697638 
z
" style="stroke:#000000;stroke-linejoin:miter;"/>
   </g>
   <g id="patch_21">
    <path clip-path="url(#p9f2a0f49c1)" d="M 18.897638 39.11811 
C 19.649395 39.11811 20.370463 38.819434 20.902035 38.287862 
C 21.433607 37.756289 21.732283 37.035221 21.732283 36.283465 
C 21.732283 35.531708 21.433607 34.81064 20.902035 34.279067 
C 20.370463 33.747495 19.649395 33.448819 18.897638 33.448819 
C 18.145881 33.448819 17.424813 33.747495 16.893241 34.279067 
C 16.361668 34.81064 16.062992 35.531708 16.062992 36.283465 
C 16.062992 37.035221 16.361668 37.756289 16.893241 38.287862 
C 17.424813 38.819434 18.145881 39.11811 18.897638 39.11811 
z
" style="stroke:#000000;stroke-linejoin:miter;"/>
   </g>
   <g id="patch_22">
    <path clip-path="url(#p9f2a0f49c1)" d="M 56.692913 59.527559 
C 57.44467 59.527559 58.165738 59.228883 58.697311 58.697311 
C 59.228883 58.165738 59.527559 57.44467 59.527559 56.692913 
C 59.527559 55.941157 59.228883 55.220089 58.697311 54.688516 
C 58.165738 54.156944 57.44467 53.858268 56.692913 53.858268 
C 55.941157 53.858268 55.220089 54.156944 54.688516 54.688516 
C 54.156944 55.220089 53.858268 55.941157 53.858268 56.692913 
C 53.858268 57.44467 54.156944 58.165738 54.688516 58.697311 
C 55.220089 59.228883 55.941157 59.527559 56.692913 59.527559 
z
" style="stroke:#000000;stroke-linejoin:miter;"/>
   </g>
   <g id="matplotlib.axis_1"/>
   <g id="matplotlib.axis_2"/>
   <g id="text_1">
    <!-- $V_0$ -->
    <defs>
     <path d="M 61.90625 56.875 
C 65.296875 62.25 68.40625 64.625 73.5 65.03125 
C 74.5 65.125 75.296875 65.125 75.296875 66.90625 
C 75.296875 67.3125 75.09375 67.90625 74.203125 67.90625 
C 72.40625 67.90625 68.09375 67.90625 66.296875 67.90625 
C 63.40625 67.90625 60.40625 67.90625 57.59375 67.90625 
C 56.796875 67.90625 55.796875 67.90625 55.796875 66.03125 
C 55.796875 65.125 56.703125 65.03125 57.09375 65.03125 
C 60.796875 64.734375 61.203125 62.953125 61.203125 61.75 
C 61.203125 60.265625 59.796875 57.96875 59.703125 57.875 
L 28.296875 8.4375 
L 21.296875 62.015625 
C 21.296875 65 26.5 65 27.59375 65 
C 29.09375 65 30 65 30 66.90625 
C 30 67.90625 28.90625 67.90625 28.59375 67.90625 
C 26.90625 67.90625 24.90625 67.90625 23.203125 67.90625 
L 17.59375 67.90625 
C 10.296875 67.90625 7.296875 67.90625 7.203125 67.90625 
C 6.59375 67.90625 5.40625 67.90625 5.40625 66.09375 
C 5.40625 65 6.09375 65 7.703125 65 
C 12.796875 65 13.09375 64.09375 13.40625 61.625 
L 21.40625 0.375 
C 21.703125 -1.703125 21.703125 -2 23.09375 -2 
C 24.296875 -2 24.796875 -1.703125 25.796875 -0.125 
z
" id="CMMI12-86"/>
     <path d="M 42 31.640625 
C 42 37.75 41.90625 48.125 37.703125 56.109375 
C 34 63.109375 28.09375 65.59375 22.90625 65.59375 
C 18.09375 65.59375 12 63.40625 8.203125 56.203125 
C 4.203125 48.71875 3.796875 39.4375 3.796875 31.640625 
C 3.796875 25.953125 3.90625 17.28125 7 9.671875 
C 11.296875 -0.609375 19 -2 22.90625 -2 
C 27.5 -2 34.5 -0.109375 38.59375 9.375 
C 41.59375 16.28125 42 24.359375 42 31.640625 
z
M 22.90625 -0.40625 
C 16.5 -0.40625 12.703125 5.078125 11.296875 12.6875 
C 10.203125 18.5625 10.203125 27.15625 10.203125 32.75 
C 10.203125 40.4375 10.203125 46.828125 11.5 52.921875 
C 13.40625 61.390625 19 64 22.90625 64 
C 27 64 32.296875 61.296875 34.203125 53.125 
C 35.5 47.4375 35.59375 40.734375 35.59375 32.75 
C 35.59375 26.25 35.59375 18.265625 34.40625 12.375 
C 32.296875 1.484375 26.40625 -0.40625 22.90625 -0.40625 
z
" id="CMR17-48"/>
    </defs>
    <g transform="translate(58.679322 14.249468)scale(0.09 -0.09)">
     <use transform="translate(0 14.943915)scale(0.996264)" xlink:href="#CMMI12-86"/>
     <use transform="translate(56.869579 0)scale(0.697382)" xlink:href="#CMR17-48"/>
    </g>
   </g>
   <g id="text_2">
    <!-- $V_9$ -->
    <defs>
     <path d="M 35.203125 29.125 
C 35.203125 7.25 26.09375 0.484375 18.59375 0.484375 
C 16.296875 0.484375 10.703125 0.484375 8.40625 4.59375 
C 11 4.1875 12.90625 5.578125 12.90625 8.09375 
C 12.90625 10.8125 10.703125 11.703125 9.296875 11.703125 
C 8.40625 11.703125 5.703125 11.296875 5.703125 7.90625 
C 5.703125 1.109375 11.59375 -2 18.796875 -2 
C 30.296875 -2 42 10.53125 42 32.390625 
C 42 59.640625 30.796875 65.296875 23.203125 65.296875 
C 13.296875 65.296875 3.796875 56.6875 3.796875 43.40625 
C 3.796875 31.109375 11.90625 22 22.09375 22 
C 30.5 22 34.203125 29.734375 35.203125 33 
z
M 22.296875 23.59375 
C 19.59375 23.59375 15.796875 24.09375 12.703125 30.03125 
C 10.59375 33.890625 10.59375 38.453125 10.59375 43.296875 
C 10.59375 49.15625 10.59375 53.203125 13.40625 57.5625 
C 14.796875 59.640625 17.40625 63 23.203125 63 
C 35 63 35 45.078125 35 41.125 
C 35 34.09375 31.796875 23.59375 22.296875 23.59375 
z
" id="CMR17-57"/>
    </defs>
    <g transform="translate(88.175385 33.887263)scale(0.09 -0.09)">
     <use transform="translate(0 14.943915)scale(0.996264)" xlink:href="#CMMI12-86"/>
     <use transform="translate(56.869579 0)scale(0.697382)" xlink:href="#CMR17-57"/>
    </g>
   </g>
   <g id="text_3">
    <!-- $V_{11}$ -->
    <defs>
     <path d="M 26.59375 63.40625 
C 26.59375 65.5 26.5 65.5 25.09375 65.5 
C 21.203125 61.1875 15.296875 59.796875 9.703125 59.796875 
C 9.40625 59.796875 8.90625 59.796875 8.796875 59.5 
C 8.703125 59.296875 8.703125 59.09375 8.703125 57 
C 11.796875 57 17 57.59375 21 59.984375 
L 21 7.203125 
C 21 3.6875 20.796875 2.5 12.203125 2.5 
L 9.203125 2.5 
L 9.203125 0 
C 14 0 19 0 23.796875 0 
C 28.59375 0 33.59375 0 38.40625 0 
L 38.40625 2.5 
L 35.40625 2.5 
C 26.796875 2.5 26.59375 3.59375 26.59375 7.15625 
z
" id="CMR17-49"/>
    </defs>
    <g transform="translate(93.703259 53.934507)scale(0.09 -0.09)">
     <use transform="translate(0 14.943915)scale(0.996264)" xlink:href="#CMMI12-86"/>
     <use transform="translate(56.869579 0)scale(0.697382)" xlink:href="#CMR17-49"/>
     <use transform="translate(88.852761 0)scale(0.697382)" xlink:href="#CMR17-49"/>
    </g>
   </g>
   <g id="text_4">
    <!-- $V_3$ -->
    <defs>
     <path d="M 22.09375 33.703125 
C 31 33.703125 34.90625 25.96875 34.90625 17.03125 
C 34.90625 5 28.5 0.390625 22.703125 0.390625 
C 17.40625 0.390625 8.796875 3.03125 6.09375 10.828125 
C 6.59375 10.625 7.09375 10.625 7.59375 10.625 
C 10 10.625 11.796875 12.21875 11.796875 14.8125 
C 11.796875 17.703125 9.59375 19 7.59375 19 
C 5.90625 19 3.296875 18.203125 3.296875 14.46875 
C 3.296875 5.234375 12.296875 -2 22.90625 -2 
C 34 -2 42.5 6.71875 42.5 16.953125 
C 42.5 26.671875 34.5 33.703125 25 34.796875 
C 32.59375 36.375 39.90625 43.0625 39.90625 52.015625 
C 39.90625 59.6875 32 65.296875 23 65.296875 
C 13.90625 65.296875 5.90625 59.828125 5.90625 52.015625 
C 5.90625 48.59375 8.5 48 9.796875 48 
C 11.90625 48 13.703125 49.296875 13.703125 51.890625 
C 13.703125 54.46875 11.90625 55.765625 9.796875 55.765625 
C 9.40625 55.765625 8.90625 55.765625 8.5 55.578125 
C 11.40625 61.859375 19.296875 63 22.796875 63 
C 26.296875 63 32.90625 61.328125 32.90625 51.875 
C 32.90625 49.109375 32.5 44.1875 29.09375 39.84375 
C 26.09375 36 22.703125 36 19.40625 35.6875 
C 18.90625 35.6875 16.59375 35.453125 16.203125 35.453125 
C 15.5 35.359375 15.09375 35.265625 15.09375 34.5 
C 15.09375 33.796875 15.203125 33.703125 17.203125 33.703125 
z
" id="CMR17-51"/>
    </defs>
    <g transform="translate(89.981684 84.832145)scale(0.09 -0.09)">
     <use transform="translate(0 14.943915)scale(0.996264)" xlink:href="#CMMI12-86"/>
     <use transform="translate(56.869579 0)scale(0.697382)" xlink:href="#CMR17-51"/>
    </g>
   </g>
   <g id="text_5">
    <!-- $V_1$ -->
    <g transform="translate(45.679322 106.454192)scale(0.09 -0.09)">
     <use transform="translate(0 14.943915)scale(0.996264)" xlink:href="#CMMI12-86"/>
     <use transform="translate(56.869579 0)scale(0.697382)" xlink:href="#CMR17-49"/>
    </g>
   </g>
   <g id="text_6">
    <!-- $V_{13}$ -->
    <g transform="translate(4.05759 72.832145)scale(0.09 -0.09)">
     <use transform="translate(0 14.943915)scale(0.996264)" xlink:href="#CMMI12-86"/>
     <use transform="translate(56.869579 0)scale(0.697382)" xlink:href="#CMR17-49"/>
     <use transform="translate(88.852761 0)scale(0.697382)" xlink:href="#CMR17-51"/>
    </g>
   </g>
   <g id="text_7">
    <!-- $V_{12}$ -->
    <defs>
     <path d="M 41.703125 15.453125 
L 39.90625 15.453125 
C 38.90625 8.375 38.09375 7.171875 37.703125 6.5625 
C 37.203125 5.765625 30 5.765625 28.59375 5.765625 
L 9.40625 5.765625 
C 13 9.671875 20 16.75 28.5 24.953125 
C 34.59375 30.734375 41.703125 37.53125 41.703125 47.421875 
C 41.703125 59.21875 32.296875 66 21.796875 66 
C 10.796875 66 4.09375 56.3125 4.09375 47.34375 
C 4.09375 43.4375 7 42.9375 8.203125 42.9375 
C 9.203125 42.9375 12.203125 43.546875 12.203125 47.03125 
C 12.203125 50.109375 9.59375 51 8.203125 51 
C 7.59375 51 7 50.90625 6.59375 50.703125 
C 8.5 59.21875 14.296875 63.40625 20.40625 63.40625 
C 29.09375 63.40625 34.796875 56.515625 34.796875 47.421875 
C 34.796875 38.734375 29.703125 31.25 24 24.75 
L 4.09375 2.28125 
L 4.09375 0 
L 39.296875 0 
z
" id="CMR17-50"/>
    </defs>
    <g transform="translate(17.555903 93.279389)scale(0.09 -0.09)">
     <use transform="translate(0 14.943915)scale(0.996264)" xlink:href="#CMMI12-86"/>
     <use transform="translate(56.869579 0)scale(0.697382)" xlink:href="#CMR17-49"/>
     <use transform="translate(88.852761 0)scale(0.697382)" xlink:href="#CMR17-50"/>
    </g>
   </g>
   <g id="text_8">
    <!-- $V_2$ -->
    <g transform="translate(3.324991 51.934507)scale(0.09 -0.09)">
     <use transform="translate(0 14.943915)scale(0.996264)" xlink:href="#CMMI12-86"/>
     <use transform="translate(56.869579 0)scale(0.697382)" xlink:href="#CMR17-50"/>
    </g>
   </g>
   <g id="text_9">
    <!-- $V_4$ -->
    <defs>
     <path d="M 33.59375 64.40625 
C 33.59375 66.5 33.5 66.5 31.703125 66.5 
L 2 19.59375 
L 2 17 
L 27.796875 17 
L 27.796875 7.140625 
C 27.796875 3.5 27.59375 2.5 20.59375 2.5 
L 18.703125 2.5 
L 18.703125 0 
C 21.90625 0 27.296875 0 30.703125 0 
C 34.09375 0 39.5 0 42.703125 0 
L 42.703125 2.5 
L 40.796875 2.5 
C 33.796875 2.5 33.59375 3.5 33.59375 7.140625 
L 33.59375 17 
L 43.796875 17 
L 43.796875 19.59375 
L 33.59375 19.59375 
z
M 28.09375 57.859375 
L 28.09375 19.59375 
L 4 19.59375 
z
" id="CMR17-52"/>
    </defs>
    <g transform="translate(20.382359 18.104586)scale(0.09 -0.09)">
     <use transform="translate(0 14.943915)scale(0.996264)" xlink:href="#CMMI12-86"/>
     <use transform="translate(56.869579 0)scale(0.697382)" xlink:href="#CMR17-52"/>
    </g>
   </g>
   <g id="text_10">
    <!-- $V_{10}$ -->
    <g transform="translate(4.05759 33.525059)scale(0.09 -0.09)">
     <use transform="translate(0 14.943915)scale(0.996264)" xlink:href="#CMMI12-86"/>
     <use transform="translate(56.869579 0)scale(0.697382)" xlink:href="#CMR17-49"/>
     <use transform="translate(88.852761 0)scale(0.697382)" xlink:href="#CMR17-48"/>
    </g>
   </g>
   <g id="text_11">
    <!-- $G_2$ -->
    <defs>
     <path d="M 74.59375 69.109375 
C 74.59375 70 73.90625 70 73.703125 70 
C 73.5 70 73.09375 70 72.296875 69 
L 65.40625 60.765625 
C 64.90625 61.5625 62.90625 65.046875 59 67.328125 
C 54.703125 70 50.40625 70 48.90625 70 
C 27.5 70 5 48.359375 5 24.921875 
C 5 8.53125 16.40625 -2 31.40625 -2 
C 38.59375 -2 47.703125 0.390625 52.703125 6.671875 
C 53.796875 2.890625 56 0.1875 56.703125 0.1875 
C 57.203125 0.1875 57.296875 0.5 57.40625 0.5 
C 57.5 0.6875 58.296875 4.21875 58.796875 6.015625 
L 60.40625 12.453125 
C 61.203125 15.765625 61.59375 17.171875 62.296875 20.171875 
C 63.296875 24 63.5 24 69 24 
C 69.40625 24 70.59375 24 70.59375 26.03125 
C 70.59375 27.09375 69.59375 27.09375 69.296875 27.09375 
C 67.59375 27.09375 65.703125 27.09375 63.90625 27.09375 
L 58.5 27.09375 
C 54.296875 27.09375 49.90625 27.09375 45.796875 27.09375 
C 44.90625 27.09375 43.703125 27.09375 43.703125 25.171875 
C 43.703125 24.09375 44.5 24.09375 44.5 24 
L 47 24 
C 54.90625 24 54.90625 23.265625 54.90625 21.90625 
C 54.90625 21.796875 53 11.734375 51.09375 8.765625 
C 47.296875 3.1875 39.40625 0.890625 33.5 0.890625 
C 25.796875 0.890625 13.296875 4.875 13.296875 22.03125 
C 13.296875 28.6875 15.703125 43.875 25.40625 55.09375 
C 31.703125 62.25 41 67.109375 49.796875 67.109375 
C 61.59375 67.109375 65.796875 57.109375 65.796875 47.984375 
C 65.796875 46.40625 65.40625 44.234375 65.40625 42.84375 
C 65.40625 41.953125 66.40625 41.953125 66.703125 41.953125 
C 67.796875 41.953125 67.90625 42.046875 68.296875 43.828125 
z
" id="CMMI12-71"/>
    </defs>
    <g transform="translate(58.75855 72.934507)scale(0.09 -0.09)">
     <use transform="translate(0 14.943915)scale(0.996264)" xlink:href="#CMMI12-71"/>
     <use transform="translate(76.946862 0)scale(0.697382)" xlink:href="#CMR17-50"/>
    </g>
   </g>
  </g>
 </g>
 <defs>
  <clipPath id="p9f2a0f49c1">
   <rect height="113.385827" width="113.385827" x="0" y="0"/>
  </clipPath>
 </defs>
</svg>
