<?xml version="1.0" encoding="utf-8" standalone="no"?>
<!DOCTYPE svg PUBLIC "-//W3C//DTD SVG 1.1//EN"
  "http://www.w3.org/Graphics/SVG/1.1/DTD/svg11.dtd">
<!-- Created with matplotlib (https://matplotlib.org/) -->
<svg height="93.543307pt" version="1.1" viewBox="0 0 124.724409 93.543307" width="124.724409pt" xmlns="http://www.w3.org/2000/svg" xmlns:xlink="http://www.w3.org/1999/xlink">
 <defs>
  <style type="text/css">
*{stroke-linecap:butt;stroke-linejoin:round;}
  </style>
 </defs>
 <g id="figure_1">
  <g id="patch_1">
   <path d="M 0 93.543307 
L 124.724409 93.543307 
L 124.724409 0 
L 0 0 
z
" style="fill:#ffffff;"/>
  </g>
  <g id="axes_1">
   <g id="patch_2">
    <path clip-path="url(#pdae1c9bc34)" d="M 95.190911 28.874456 
L 98.156599 22.284039 
L 99.309922 23.107841 
L 106.068931 13.645229 
L 106.068931 13.645229 
L 99.309922 23.107841 
L 100.463245 23.931643 
z
" style="stroke:#000000;stroke-linejoin:miter;stroke-width:0.5;"/>
   </g>
   <g id="patch_3">
    <path clip-path="url(#pdae1c9bc34)" d="M 15.28985 25.282616 
L 19.384129 31.237931 
L 18.081404 31.796242 
L 21.560544 39.914235 
L 21.560544 39.914235 
L 18.081404 31.796242 
L 16.778679 32.354553 
z
" style="stroke:#000000;stroke-linejoin:miter;stroke-width:0.5;"/>
   </g>
   <g id="patch_4">
    <path clip-path="url(#pdae1c9bc34)" d="M 20.155554 65.214188 
L 19.529485 58.0144 
L 20.93814 58.170917 
L 22.364131 45.336993 
L 22.364131 45.336993 
L 20.93814 58.170917 
L 22.346794 58.327434 
z
" style="stroke:#000000;stroke-linejoin:miter;stroke-width:0.5;"/>
   </g>
   <g id="patch_5">
    <path clip-path="url(#pdae1c9bc34)" d="M 24.914699 40.779381 
L 29.638382 35.309854 
L 30.508534 36.428621 
L 45.951443 24.417469 
L 45.951443 24.417469 
L 30.508534 36.428621 
L 31.378686 37.547388 
z
" style="stroke:#000000;stroke-linejoin:miter;stroke-width:0.5;"/>
   </g>
   <g id="patch_6">
    <path clip-path="url(#pdae1c9bc34)" d="M 45.354331 22.677165 
L 38.267717 24.094488 
L 38.267717 22.677165 
L 17.007874 22.677165 
L 17.007874 22.677165 
L 38.267717 22.677165 
L 38.267717 21.259843 
z
" style="stroke:#000000;stroke-linejoin:miter;stroke-width:0.5;"/>
   </g>
   <g id="patch_7">
    <path clip-path="url(#pdae1c9bc34)" d="M 25.21255 43.787377 
L 32.184856 45.688915 
L 31.55101 46.956607 
L 48.488238 55.425221 
L 48.488238 55.425221 
L 31.55101 46.956607 
L 30.917164 48.224299 
z
" style="stroke:#000000;stroke-linejoin:miter;stroke-width:0.5;"/>
   </g>
   <g id="patch_8">
    <path clip-path="url(#pdae1c9bc34)" d="M 48.424381 25.502019 
L 50.425319 32.446453 
L 49.012892 32.564155 
L 50.788218 53.868059 
L 50.788218 53.868059 
L 49.012892 32.564155 
L 47.600465 32.681857 
z
" style="stroke:#000000;stroke-linejoin:miter;stroke-width:0.5;"/>
   </g>
   <g id="patch_9">
    <path clip-path="url(#pdae1c9bc34)" d="M 91.112618 32.639516 
L 85.765104 37.500893 
L 85.035897 36.285548 
L 53.454311 55.2345 
L 53.454311 55.2345 
L 85.035897 36.285548 
L 84.30669 35.070204 
z
" style="stroke:#000000;stroke-linejoin:miter;stroke-width:0.5;"/>
   </g>
   <g id="patch_10">
    <path clip-path="url(#pdae1c9bc34)" d="M 22.506501 67.062776 
L 28.682094 63.308984 
L 29.166454 64.640974 
L 48.359641 57.661634 
L 48.359641 57.661634 
L 29.166454 64.640974 
L 29.650815 65.972965 
z
" style="stroke:#000000;stroke-linejoin:miter;stroke-width:0.5;"/>
   </g>
   <g id="patch_11">
    <path clip-path="url(#pdae1c9bc34)" d="M 90.733527 51.398259 
L 83.896396 53.739743 
L 83.709078 52.334853 
L 53.833402 56.318276 
L 53.833402 56.318276 
L 83.709078 52.334853 
L 83.521759 50.929963 
z
" style="stroke:#000000;stroke-linejoin:miter;stroke-width:0.5;"/>
   </g>
   <g id="patch_12">
    <path clip-path="url(#pdae1c9bc34)" d="M 53.454311 55.2345 
L 58.801826 50.373123 
L 59.531032 51.588467 
L 91.112618 32.639516 
L 91.112618 32.639516 
L 59.531032 51.588467 
L 60.260239 52.803812 
z
" style="stroke:#000000;stroke-linejoin:miter;stroke-width:0.5;"/>
   </g>
   <g id="patch_13">
    <path clip-path="url(#pdae1c9bc34)" d="M 108.706418 48.871399 
L 103.018399 44.413221 
L 104.094511 43.49084 
L 95.38807 33.333326 
L 95.38807 33.333326 
L 104.094511 43.49084 
L 105.170623 42.568459 
z
" style="stroke:#000000;stroke-dasharray:0.5,0.825;stroke-dashoffset:0;stroke-linejoin:miter;stroke-width:0.5;"/>
   </g>
   <g id="patch_14">
    <path clip-path="url(#pdae1c9bc34)" d="M 109.092768 53.454311 
L 106.662079 60.260239 
L 105.446735 59.531032 
L 95.00172 76.93939 
L 95.00172 76.93939 
L 105.446735 59.531032 
L 104.231391 58.801826 
z
" style="stroke:#000000;stroke-dasharray:0.5,0.825;stroke-dashoffset:0;stroke-linejoin:miter;stroke-width:0.5;"/>
   </g>
   <g id="patch_15">
    <path clip-path="url(#pdae1c9bc34)" d="M 69.299188 30.881841 
L 73.73611 36.586455 
L 72.468418 37.220301 
L 92.275615 76.834695 
L 92.275615 76.834695 
L 72.468418 37.220301 
L 71.200726 37.854147 
z
" style="stroke:#000000;stroke-dasharray:0.5,0.825;stroke-dashoffset:0;stroke-linejoin:miter;stroke-width:0.5;"/>
   </g>
   <g id="patch_16">
    <path clip-path="url(#pdae1c9bc34)" d="M 65.272203 78.720833 
L 58.049349 78.477366 
L 58.373971 77.09772 
L 22.601812 68.680741 
L 22.601812 68.680741 
L 58.373971 77.09772 
L 58.698594 75.718074 
z
" style="stroke:#000000;stroke-linejoin:miter;stroke-width:0.5;"/>
   </g>
   <g id="patch_17">
    <path clip-path="url(#pdae1c9bc34)" d="M 69.927774 77.263103 
L 73.614981 71.047525 
L 74.668469 71.995664 
L 91.647029 53.130598 
L 91.647029 53.130598 
L 74.668469 71.995664 
L 75.721957 72.943803 
z
" style="stroke:#000000;stroke-linejoin:miter;stroke-width:0.5;"/>
   </g>
   <g id="patch_18">
    <path clip-path="url(#pdae1c9bc34)" d="M 93.543307 76.535433 
L 92.125984 69.448819 
L 93.543307 69.448819 
L 93.543307 53.858268 
L 93.543307 53.858268 
L 93.543307 69.448819 
L 94.96063 69.448819 
z
" style="stroke:#000000;stroke-linejoin:miter;stroke-width:0.5;"/>
   </g>
   <g id="patch_19">
    <path clip-path="url(#pdae1c9bc34)" d="M 96.377953 51.023622 
L 103.464567 49.606299 
L 103.464567 51.023622 
L 107.716535 51.023622 
L 107.716535 51.023622 
L 103.464567 51.023622 
L 103.464567 52.440945 
z
" style="stroke:#000000;stroke-dasharray:0.5,0.825;stroke-dashoffset:0;stroke-linejoin:miter;stroke-width:0.5;"/>
   </g>
   <g id="patch_20">
    <path clip-path="url(#pdae1c9bc34)" d="M 68.031496 76.535433 
L 66.614173 69.448819 
L 68.031496 69.448819 
L 68.031496 31.181102 
L 68.031496 31.181102 
L 68.031496 69.448819 
L 69.448819 69.448819 
z
" style="stroke:#000000;stroke-dasharray:0.5,0.825;stroke-dashoffset:0;stroke-linejoin:miter;stroke-width:0.5;"/>
   </g>
   <g id="patch_21">
    <path clip-path="url(#pdae1c9bc34)" d="M 25.382778 41.674181 
L 31.724057 38.207615 
L 32.146809 39.560421 
L 65.325884 29.191961 
L 65.325884 29.191961 
L 32.146809 39.560421 
L 32.569561 40.913228 
z
" style="stroke:#000000;stroke-dasharray:0.5,0.825;stroke-dashoffset:0;stroke-linejoin:miter;stroke-width:0.5;"/>
   </g>
   <g id="patch_22">
    <path clip-path="url(#pdae1c9bc34)" d="M 50.914556 23.455902 
L 58.117874 24.039955 
L 57.728505 25.402745 
L 65.305916 27.56772 
L 65.305916 27.56772 
L 57.728505 25.402745 
L 57.339137 26.765535 
z
" style="stroke:#000000;stroke-dasharray:0.5,0.825;stroke-dashoffset:0;stroke-linejoin:miter;stroke-width:0.5;"/>
   </g>
   <g id="patch_23">
    <path clip-path="url(#pdae1c9bc34)" d="M 22.030668 66.229491 
L 26.600038 60.630405 
L 27.50104 61.724479 
L 65.843347 30.148462 
L 65.843347 30.148462 
L 27.50104 61.724479 
L 28.402043 62.818554 
z
" style="stroke:#000000;stroke-dasharray:0.5,0.825;stroke-dashoffset:0;stroke-linejoin:miter;stroke-width:0.5;"/>
   </g>
   <g id="patch_24">
    <path clip-path="url(#pdae1c9bc34)" d="M 22.677165 45.354331 
C 23.428922 45.354331 24.14999 45.055655 24.681563 44.524082 
C 25.213135 43.99251 25.511811 43.271442 25.511811 42.519685 
C 25.511811 41.767928 25.213135 41.04686 24.681563 40.515288 
C 24.14999 39.983716 23.428922 39.685039 22.677165 39.685039 
C 21.925409 39.685039 21.204341 39.983716 20.672768 40.515288 
C 20.141196 41.04686 19.84252 41.767928 19.84252 42.519685 
C 19.84252 43.271442 20.141196 43.99251 20.672768 44.524082 
C 21.204341 45.055655 21.925409 45.354331 22.677165 45.354331 
z
" style="stroke:#000000;stroke-linejoin:miter;"/>
   </g>
   <g id="patch_25">
    <path clip-path="url(#pdae1c9bc34)" d="M 48.188976 25.511811 
C 48.940733 25.511811 49.661801 25.213135 50.193374 24.681563 
C 50.724946 24.14999 51.023622 23.428922 51.023622 22.677165 
C 51.023622 21.925409 50.724946 21.204341 50.193374 20.672768 
C 49.661801 20.141196 48.940733 19.84252 48.188976 19.84252 
C 47.43722 19.84252 46.716152 20.141196 46.184579 20.672768 
C 45.653007 21.204341 45.354331 21.925409 45.354331 22.677165 
C 45.354331 23.428922 45.653007 24.14999 46.184579 24.681563 
C 46.716152 25.213135 47.43722 25.511811 48.188976 25.511811 
z
" style="stroke:#000000;stroke-linejoin:miter;"/>
   </g>
   <g id="patch_26">
    <path clip-path="url(#pdae1c9bc34)" d="M 14.173228 25.511811 
C 14.924985 25.511811 15.646053 25.213135 16.177626 24.681563 
C 16.709198 24.14999 17.007874 23.428922 17.007874 22.677165 
C 17.007874 21.925409 16.709198 21.204341 16.177626 20.672768 
C 15.646053 20.141196 14.924985 19.84252 14.173228 19.84252 
C 13.421472 19.84252 12.700404 20.141196 12.168831 20.672768 
C 11.637259 21.204341 11.338583 21.925409 11.338583 22.677165 
C 11.338583 23.428922 11.637259 24.14999 12.168831 24.681563 
C 12.700404 25.213135 13.421472 25.511811 14.173228 25.511811 
z
" style="stroke:#000000;stroke-linejoin:miter;"/>
   </g>
   <g id="patch_27">
    <path clip-path="url(#pdae1c9bc34)" d="M 51.023622 59.527559 
C 51.775379 59.527559 52.496447 59.228883 53.028019 58.697311 
C 53.559592 58.165738 53.858268 57.44467 53.858268 56.692913 
C 53.858268 55.941157 53.559592 55.220089 53.028019 54.688516 
C 52.496447 54.156944 51.775379 53.858268 51.023622 53.858268 
C 50.271865 53.858268 49.550797 54.156944 49.019225 54.688516 
C 48.487653 55.220089 48.188976 55.941157 48.188976 56.692913 
C 48.188976 57.44467 48.487653 58.165738 49.019225 58.697311 
C 49.550797 59.228883 50.271865 59.527559 51.023622 59.527559 
z
" style="stroke:#000000;stroke-linejoin:miter;"/>
   </g>
   <g id="patch_28">
    <path clip-path="url(#pdae1c9bc34)" d="M 93.543307 34.015748 
C 94.295064 34.015748 95.016132 33.717072 95.547704 33.1855 
C 96.079277 32.653927 96.377953 31.932859 96.377953 31.181102 
C 96.377953 30.429346 96.079277 29.708278 95.547704 29.176705 
C 95.016132 28.645133 94.295064 28.346457 93.543307 28.346457 
C 92.79155 28.346457 92.070482 28.645133 91.53891 29.176705 
C 91.007338 29.708278 90.708661 30.429346 90.708661 31.181102 
C 90.708661 31.932859 91.007338 32.653927 91.53891 33.1855 
C 92.070482 33.717072 92.79155 34.015748 93.543307 34.015748 
z
" style="stroke:#000000;stroke-linejoin:miter;"/>
   </g>
   <g id="patch_29">
    <path clip-path="url(#pdae1c9bc34)" d="M 93.543307 82.204724 
C 94.295064 82.204724 95.016132 81.906048 95.547704 81.374476 
C 96.079277 80.842904 96.377953 80.121836 96.377953 79.370079 
C 96.377953 78.618322 96.079277 77.897254 95.547704 77.365682 
C 95.016132 76.834109 94.295064 76.535433 93.543307 76.535433 
C 92.79155 76.535433 92.070482 76.834109 91.53891 77.365682 
C 91.007338 77.897254 90.708661 78.618322 90.708661 79.370079 
C 90.708661 80.121836 91.007338 80.842904 91.53891 81.374476 
C 92.070482 81.906048 92.79155 82.204724 93.543307 82.204724 
z
" style="stroke:#000000;stroke-linejoin:miter;"/>
   </g>
   <g id="patch_30">
    <path clip-path="url(#pdae1c9bc34)" d="M 19.84252 70.866142 
C 20.594277 70.866142 21.315345 70.567466 21.846917 70.035893 
C 22.378489 69.504321 22.677165 68.783253 22.677165 68.031496 
C 22.677165 67.279739 22.378489 66.558671 21.846917 66.027099 
C 21.315345 65.495527 20.594277 65.19685 19.84252 65.19685 
C 19.090763 65.19685 18.369695 65.495527 17.838123 66.027099 
C 17.30655 66.558671 17.007874 67.279739 17.007874 68.031496 
C 17.007874 68.783253 17.30655 69.504321 17.838123 70.035893 
C 18.369695 70.567466 19.090763 70.866142 19.84252 70.866142 
z
" style="stroke:#000000;stroke-linejoin:miter;"/>
   </g>
   <g id="patch_31">
    <path clip-path="url(#pdae1c9bc34)" d="M 93.543307 53.858268 
C 94.295064 53.858268 95.016132 53.559592 95.547704 53.028019 
C 96.079277 52.496447 96.377953 51.775379 96.377953 51.023622 
C 96.377953 50.271865 96.079277 49.550797 95.547704 49.019225 
C 95.016132 48.487653 94.295064 48.188976 93.543307 48.188976 
C 92.79155 48.188976 92.070482 48.487653 91.53891 49.019225 
C 91.007338 49.550797 90.708661 50.271865 90.708661 51.023622 
C 90.708661 51.775379 91.007338 52.496447 91.53891 53.028019 
C 92.070482 53.559592 92.79155 53.858268 93.543307 53.858268 
z
" style="stroke:#000000;stroke-linejoin:miter;"/>
   </g>
   <g id="patch_32">
    <path clip-path="url(#pdae1c9bc34)" d="M 68.031496 82.204724 
C 68.783253 82.204724 69.504321 81.906048 70.035893 81.374476 
C 70.567466 80.842904 70.866142 80.121836 70.866142 79.370079 
C 70.866142 78.618322 70.567466 77.897254 70.035893 77.365682 
C 69.504321 76.834109 68.783253 76.535433 68.031496 76.535433 
C 67.279739 76.535433 66.558671 76.834109 66.027099 77.365682 
C 65.495527 77.897254 65.19685 78.618322 65.19685 79.370079 
C 65.19685 80.121836 65.495527 80.842904 66.027099 81.374476 
C 66.558671 81.906048 67.279739 82.204724 68.031496 82.204724 
z
" style="stroke:#000000;stroke-linejoin:miter;"/>
   </g>
   <g id="patch_33">
    <path clip-path="url(#pdae1c9bc34)" d="M 110.551181 53.858268 
C 111.302938 53.858268 112.024006 53.559592 112.555578 53.028019 
C 113.087151 52.496447 113.385827 51.775379 113.385827 51.023622 
C 113.385827 50.271865 113.087151 49.550797 112.555578 49.019225 
C 112.024006 48.487653 111.302938 48.188976 110.551181 48.188976 
C 109.799424 48.188976 109.078356 48.487653 108.546784 49.019225 
C 108.015212 49.550797 107.716535 50.271865 107.716535 51.023622 
C 107.716535 51.775379 108.015212 52.496447 108.546784 53.028019 
C 109.078356 53.559592 109.799424 53.858268 110.551181 53.858268 
z
" style="fill:none;stroke:#000000;stroke-linejoin:miter;stroke-width:0.5;"/>
   </g>
   <g id="patch_34">
    <path clip-path="url(#pdae1c9bc34)" d="M 68.031496 31.181102 
C 68.783253 31.181102 69.504321 30.882426 70.035893 30.350854 
C 70.567466 29.819282 70.866142 29.098214 70.866142 28.346457 
C 70.866142 27.5947 70.567466 26.873632 70.035893 26.34206 
C 69.504321 25.810487 68.783253 25.511811 68.031496 25.511811 
C 67.279739 25.511811 66.558671 25.810487 66.027099 26.34206 
C 65.495527 26.873632 65.19685 27.5947 65.19685 28.346457 
C 65.19685 29.098214 65.495527 29.819282 66.027099 30.350854 
C 66.558671 30.882426 67.279739 31.181102 68.031496 31.181102 
z
" style="fill:none;stroke:#000000;stroke-linejoin:miter;stroke-width:0.5;"/>
   </g>
   <g id="patch_35">
    <path clip-path="url(#pdae1c9bc34)" d="M 107.716535 14.173228 
C 108.468292 14.173228 109.18936 13.874552 109.720933 13.34298 
C 110.252505 12.811408 110.551181 12.090339 110.551181 11.338583 
C 110.551181 10.586826 110.252505 9.865758 109.720933 9.334186 
C 109.18936 8.802613 108.468292 8.503937 107.716535 8.503937 
C 106.964779 8.503937 106.243711 8.802613 105.712138 9.334186 
C 105.180566 9.865758 104.88189 10.586826 104.88189 11.338583 
C 104.88189 12.090339 105.180566 12.811408 105.712138 13.34298 
C 106.243711 13.874552 106.964779 14.173228 107.716535 14.173228 
z
" style="fill:none;"/>
   </g>
   <g id="matplotlib.axis_1"/>
   <g id="matplotlib.axis_2"/>
   <g id="text_1">
    <!-- $V_0$ -->
    <defs>
     <path d="M 61.90625 56.875 
C 65.296875 62.25 68.40625 64.625 73.5 65.03125 
C 74.5 65.125 75.296875 65.125 75.296875 66.90625 
C 75.296875 67.3125 75.09375 67.90625 74.203125 67.90625 
C 72.40625 67.90625 68.09375 67.90625 66.296875 67.90625 
C 63.40625 67.90625 60.40625 67.90625 57.59375 67.90625 
C 56.796875 67.90625 55.796875 67.90625 55.796875 66.03125 
C 55.796875 65.125 56.703125 65.03125 57.09375 65.03125 
C 60.796875 64.734375 61.203125 62.953125 61.203125 61.75 
C 61.203125 60.265625 59.796875 57.96875 59.703125 57.875 
L 28.296875 8.4375 
L 21.296875 62.015625 
C 21.296875 65 26.5 65 27.59375 65 
C 29.09375 65 30 65 30 66.90625 
C 30 67.90625 28.90625 67.90625 28.59375 67.90625 
C 26.90625 67.90625 24.90625 67.90625 23.203125 67.90625 
L 17.59375 67.90625 
C 10.296875 67.90625 7.296875 67.90625 7.203125 67.90625 
C 6.59375 67.90625 5.40625 67.90625 5.40625 66.09375 
C 5.40625 65 6.09375 65 7.703125 65 
C 12.796875 65 13.09375 64.09375 13.40625 61.625 
L 21.40625 0.375 
C 21.703125 -1.703125 21.703125 -2 23.09375 -2 
C 24.296875 -2 24.796875 -1.703125 25.796875 -0.125 
z
" id="CMMI12-86"/>
     <path d="M 42 31.640625 
C 42 37.75 41.90625 48.125 37.703125 56.109375 
C 34 63.109375 28.09375 65.59375 22.90625 65.59375 
C 18.09375 65.59375 12 63.40625 8.203125 56.203125 
C 4.203125 48.71875 3.796875 39.4375 3.796875 31.640625 
C 3.796875 25.953125 3.90625 17.28125 7 9.671875 
C 11.296875 -0.609375 19 -2 22.90625 -2 
C 27.5 -2 34.5 -0.109375 38.59375 9.375 
C 41.59375 16.28125 42 24.359375 42 31.640625 
z
M 22.90625 -0.40625 
C 16.5 -0.40625 12.703125 5.078125 11.296875 12.6875 
C 10.203125 18.5625 10.203125 27.15625 10.203125 32.75 
C 10.203125 40.4375 10.203125 46.828125 11.5 52.921875 
C 13.40625 61.390625 19 64 22.90625 64 
C 27 64 32.296875 61.296875 34.203125 53.125 
C 35.5 47.4375 35.59375 40.734375 35.59375 32.75 
C 35.59375 26.25 35.59375 18.265625 34.40625 12.375 
C 32.296875 1.484375 26.40625 -0.40625 22.90625 -0.40625 
z
" id="CMR17-48"/>
    </defs>
    <g transform="translate(10.663574 49.761279)scale(0.09 -0.09)">
     <use transform="translate(0 14.943915)scale(0.996264)" xlink:href="#CMMI12-86"/>
     <use transform="translate(56.869579 0)scale(0.697382)" xlink:href="#CMR17-48"/>
    </g>
   </g>
   <g id="text_2">
    <!-- $V_1$ -->
    <defs>
     <path d="M 26.59375 63.40625 
C 26.59375 65.5 26.5 65.5 25.09375 65.5 
C 21.203125 61.1875 15.296875 59.796875 9.703125 59.796875 
C 9.40625 59.796875 8.90625 59.796875 8.796875 59.5 
C 8.703125 59.296875 8.703125 59.09375 8.703125 57 
C 11.796875 57 17 57.59375 21 59.984375 
L 21 7.203125 
C 21 3.6875 20.796875 2.5 12.203125 2.5 
L 9.203125 2.5 
L 9.203125 0 
C 14 0 19 0 23.796875 0 
C 28.59375 0 33.59375 0 38.40625 0 
L 38.40625 2.5 
L 35.40625 2.5 
C 26.796875 2.5 26.59375 3.59375 26.59375 7.15625 
z
" id="CMR17-49"/>
    </defs>
    <g transform="translate(50.175385 19.918759)scale(0.09 -0.09)">
     <use transform="translate(0 14.943915)scale(0.996264)" xlink:href="#CMMI12-86"/>
     <use transform="translate(56.869579 0)scale(0.697382)" xlink:href="#CMR17-49"/>
    </g>
   </g>
   <g id="text_3">
    <!-- $V_2$ -->
    <defs>
     <path d="M 41.703125 15.453125 
L 39.90625 15.453125 
C 38.90625 8.375 38.09375 7.171875 37.703125 6.5625 
C 37.203125 5.765625 30 5.765625 28.59375 5.765625 
L 9.40625 5.765625 
C 13 9.671875 20 16.75 28.5 24.953125 
C 34.59375 30.734375 41.703125 37.53125 41.703125 47.421875 
C 41.703125 59.21875 32.296875 66 21.796875 66 
C 10.796875 66 4.09375 56.3125 4.09375 47.34375 
C 4.09375 43.4375 7 42.9375 8.203125 42.9375 
C 9.203125 42.9375 12.203125 43.546875 12.203125 47.03125 
C 12.203125 50.109375 9.59375 51 8.203125 51 
C 7.59375 51 7 50.90625 6.59375 50.703125 
C 8.5 59.21875 14.296875 63.40625 20.40625 63.40625 
C 29.09375 63.40625 34.796875 56.515625 34.796875 47.421875 
C 34.796875 38.734375 29.703125 31.25 24 24.75 
L 4.09375 2.28125 
L 4.09375 0 
L 39.296875 0 
z
" id="CMR17-50"/>
    </defs>
    <g transform="translate(15.159637 18.918759)scale(0.09 -0.09)">
     <use transform="translate(0 14.943915)scale(0.996264)" xlink:href="#CMMI12-86"/>
     <use transform="translate(56.869579 0)scale(0.697382)" xlink:href="#CMR17-50"/>
    </g>
   </g>
   <g id="text_4">
    <!-- $V_3$ -->
    <defs>
     <path d="M 22.09375 33.703125 
C 31 33.703125 34.90625 25.96875 34.90625 17.03125 
C 34.90625 5 28.5 0.390625 22.703125 0.390625 
C 17.40625 0.390625 8.796875 3.03125 6.09375 10.828125 
C 6.59375 10.625 7.09375 10.625 7.59375 10.625 
C 10 10.625 11.796875 12.21875 11.796875 14.8125 
C 11.796875 17.703125 9.59375 19 7.59375 19 
C 5.90625 19 3.296875 18.203125 3.296875 14.46875 
C 3.296875 5.234375 12.296875 -2 22.90625 -2 
C 34 -2 42.5 6.71875 42.5 16.953125 
C 42.5 26.671875 34.5 33.703125 25 34.796875 
C 32.59375 36.375 39.90625 43.0625 39.90625 52.015625 
C 39.90625 59.6875 32 65.296875 23 65.296875 
C 13.90625 65.296875 5.90625 59.828125 5.90625 52.015625 
C 5.90625 48.59375 8.5 48 9.796875 48 
C 11.90625 48 13.703125 49.296875 13.703125 51.890625 
C 13.703125 54.46875 11.90625 55.765625 9.796875 55.765625 
C 9.40625 55.765625 8.90625 55.765625 8.5 55.578125 
C 11.40625 61.859375 19.296875 63 22.796875 63 
C 26.296875 63 32.90625 61.328125 32.90625 51.875 
C 32.90625 49.109375 32.5 44.1875 29.09375 39.84375 
C 26.09375 36 22.703125 36 19.40625 35.6875 
C 18.90625 35.6875 16.59375 35.453125 16.203125 35.453125 
C 15.5 35.359375 15.09375 35.265625 15.09375 34.5 
C 15.09375 33.796875 15.203125 33.703125 17.203125 33.703125 
z
" id="CMR17-51"/>
    </defs>
    <g transform="translate(52.01003 66.934507)scale(0.09 -0.09)">
     <use transform="translate(0 14.943915)scale(0.996264)" xlink:href="#CMMI12-86"/>
     <use transform="translate(56.869579 0)scale(0.697382)" xlink:href="#CMR17-51"/>
    </g>
   </g>
   <g id="text_5">
    <!-- $V_4$ -->
    <defs>
     <path d="M 33.59375 64.40625 
C 33.59375 66.5 33.5 66.5 31.703125 66.5 
L 2 19.59375 
L 2 17 
L 27.796875 17 
L 27.796875 7.140625 
C 27.796875 3.5 27.59375 2.5 20.59375 2.5 
L 18.703125 2.5 
L 18.703125 0 
C 21.90625 0 27.296875 0 30.703125 0 
C 34.09375 0 39.5 0 42.703125 0 
L 42.703125 2.5 
L 40.796875 2.5 
C 33.796875 2.5 33.59375 3.5 33.59375 7.140625 
L 33.59375 17 
L 43.796875 17 
L 43.796875 19.59375 
L 33.59375 19.59375 
z
M 28.09375 57.859375 
L 28.09375 19.59375 
L 4 19.59375 
z
" id="CMR17-52"/>
    </defs>
    <g transform="translate(82.529715 28.422696)scale(0.09 -0.09)">
     <use transform="translate(0 14.943915)scale(0.996264)" xlink:href="#CMMI12-86"/>
     <use transform="translate(56.869579 0)scale(0.697382)" xlink:href="#CMR17-52"/>
    </g>
   </g>
   <g id="text_6">
    <!-- $V_5$ -->
    <defs>
     <path d="M 11.40625 57.6875 
C 12.40625 57.28125 16.5 56 20.703125 56 
C 30 56 35.09375 61.109375 38 64.0625 
C 38 64.953125 38 65.5 37.40625 65.5 
C 37.296875 65.5 37.09375 65.5 36.296875 65.046875 
C 32.796875 63.40625 28.703125 62.078125 23.703125 62.078125 
C 20.703125 62.078125 16.203125 62.484375 11.296875 64.671875 
C 10.203125 65.171875 10 65.171875 9.90625 65.171875 
C 9.40625 65.171875 9.296875 65.0625 9.296875 63.078125 
L 9.296875 34.421875 
C 9.296875 32.640625 9.296875 32.140625 10.296875 32.140625 
C 10.796875 32.140625 11 32.34375 11.5 33.03125 
C 14.703125 37.515625 19.09375 39.40625 24.09375 39.40625 
C 27.59375 39.40625 35.09375 37.21875 35.09375 20.140625 
C 35.09375 16.953125 35.09375 11.171875 32.09375 6.578125 
C 29.59375 2.484375 25.703125 0.390625 21.40625 0.390625 
C 14.796875 0.390625 8.09375 5 6.296875 12.71875 
C 6.703125 12.609375 7.5 12.421875 7.90625 12.421875 
C 9.203125 12.421875 11.703125 13.125 11.703125 16.21875 
C 11.703125 18.90625 9.796875 20 7.90625 20 
C 5.59375 20 4.09375 18.59375 4.09375 15.796875 
C 4.09375 7.09375 11 -2 21.59375 -2 
C 31.90625 -2 41.703125 6.875 41.703125 19.75 
C 41.703125 31.71875 33.90625 41 24.203125 41 
C 19.09375 41 14.796875 39.109375 11.40625 35.53125 
z
" id="CMR17-53"/>
    </defs>
    <g transform="translate(97.529715 86.611673)scale(0.09 -0.09)">
     <use transform="translate(0 14.943915)scale(0.996264)" xlink:href="#CMMI12-86"/>
     <use transform="translate(56.869579 0)scale(0.697382)" xlink:href="#CMR17-53"/>
    </g>
   </g>
   <g id="text_7">
    <!-- $V_6$ -->
    <defs>
     <path d="M 10.59375 34 
C 10.59375 57.65625 21.796875 63 28.296875 63 
C 30.40625 63 35.5 62.640625 37.5 59 
C 35.90625 59 32.90625 59 32.90625 55.515625 
C 32.90625 52.828125 35.09375 51.921875 36.5 51.921875 
C 37.40625 51.921875 40.09375 52.3125 40.09375 55.625 
C 40.09375 61.78125 35.09375 65.296875 28.203125 65.296875 
C 16.296875 65.296875 3.796875 52.96875 3.796875 31 
C 3.796875 3.953125 15.09375 -2 23.09375 -2 
C 32.796875 -2 42 6.671875 42 20.046875 
C 42 32.515625 33.90625 41.59375 23.703125 41.59375 
C 17.59375 41.59375 13.09375 37.609375 10.59375 30.625 
z
M 23.09375 0.390625 
C 10.796875 0.390625 10.796875 18.75 10.796875 22.4375 
C 10.796875 29.625 14.203125 40 23.5 40 
C 25.203125 40 30.09375 40 33.40625 33.125 
C 35.203125 29.21875 35.203125 25.140625 35.203125 20.140625 
C 35.203125 14.75 35.203125 10.78125 33.09375 6.78125 
C 30.90625 2.671875 27.703125 0.390625 23.09375 0.390625 
z
" id="CMR17-54"/>
    </defs>
    <g transform="translate(8.828928 75.27309)scale(0.09 -0.09)">
     <use transform="translate(0 14.943915)scale(0.996264)" xlink:href="#CMMI12-86"/>
     <use transform="translate(56.869579 0)scale(0.697382)" xlink:href="#CMR17-54"/>
    </g>
   </g>
   <g id="text_8">
    <!-- $V_7$ -->
    <defs>
     <path d="M 45.09375 61.578125 
L 45.09375 63.765625 
L 21.59375 63.765625 
C 9.90625 63.765625 9.703125 65.078125 9.296875 67 
L 7.5 67 
L 4.59375 48.34375 
L 6.40625 48.34375 
C 6.703125 50.234375 7.40625 55.3125 8.59375 57.203125 
C 9.203125 58 16.59375 58 18.296875 58 
L 40.296875 58 
L 29.203125 41.578125 
C 21.796875 30.53125 16.703125 15.609375 16.703125 2.578125 
C 16.703125 1.390625 16.703125 -2 20.296875 -2 
C 23.90625 -2 23.90625 1.390625 23.90625 2.671875 
L 23.90625 7.265625 
C 23.90625 23.5625 26.703125 34.3125 31.296875 41.1875 
z
" id="CMR17-55"/>
    </defs>
    <g transform="translate(82.529715 48.265216)scale(0.09 -0.09)">
     <use transform="translate(0 14.943915)scale(0.996264)" xlink:href="#CMMI12-86"/>
     <use transform="translate(56.869579 0)scale(0.697382)" xlink:href="#CMR17-55"/>
    </g>
   </g>
   <g id="text_9">
    <!-- $G_{\hat{3}}$ -->
    <defs>
     <path d="M 74.59375 69.109375 
C 74.59375 70 73.90625 70 73.703125 70 
C 73.5 70 73.09375 70 72.296875 69 
L 65.40625 60.765625 
C 64.90625 61.5625 62.90625 65.046875 59 67.328125 
C 54.703125 70 50.40625 70 48.90625 70 
C 27.5 70 5 48.359375 5 24.921875 
C 5 8.53125 16.40625 -2 31.40625 -2 
C 38.59375 -2 47.703125 0.390625 52.703125 6.671875 
C 53.796875 2.890625 56 0.1875 56.703125 0.1875 
C 57.203125 0.1875 57.296875 0.5 57.40625 0.5 
C 57.5 0.6875 58.296875 4.21875 58.796875 6.015625 
L 60.40625 12.453125 
C 61.203125 15.765625 61.59375 17.171875 62.296875 20.171875 
C 63.296875 24 63.5 24 69 24 
C 69.40625 24 70.59375 24 70.59375 26.03125 
C 70.59375 27.09375 69.59375 27.09375 69.296875 27.09375 
C 67.59375 27.09375 65.703125 27.09375 63.90625 27.09375 
L 58.5 27.09375 
C 54.296875 27.09375 49.90625 27.09375 45.796875 27.09375 
C 44.90625 27.09375 43.703125 27.09375 43.703125 25.171875 
C 43.703125 24.09375 44.5 24.09375 44.5 24 
L 47 24 
C 54.90625 24 54.90625 23.265625 54.90625 21.90625 
C 54.90625 21.796875 53 11.734375 51.09375 8.765625 
C 47.296875 3.1875 39.40625 0.890625 33.5 0.890625 
C 25.796875 0.890625 13.296875 4.875 13.296875 22.03125 
C 13.296875 28.6875 15.703125 43.875 25.40625 55.09375 
C 31.703125 62.25 41 67.109375 49.796875 67.109375 
C 61.59375 67.109375 65.796875 57.109375 65.796875 47.984375 
C 65.796875 46.40625 65.40625 44.234375 65.40625 42.84375 
C 65.40625 41.953125 66.40625 41.953125 66.703125 41.953125 
C 67.796875 41.953125 67.90625 42.046875 68.296875 43.828125 
z
" id="CMMI12-71"/>
     <path d="M 22.90625 69.078125 
L 10.59375 55.546875 
L 11.796875 54.34375 
L 22.90625 65.09375 
L 34 54.34375 
L 35.203125 55.546875 
z
" id="CMR17-94"/>
    </defs>
    <g transform="translate(69.097132 89.860746)scale(0.09 -0.09)">
     <use transform="translate(0 29.045894)scale(0.996264)" xlink:href="#CMMI12-71"/>
     <use transform="translate(76.946862 14.932331)scale(0.697382)" xlink:href="#CMR17-94"/>
     <use transform="translate(76.946862 0)scale(0.697382)" xlink:href="#CMR17-51"/>
    </g>
   </g>
   <g id="text_10">
    <!-- $E_0$ -->
    <defs>
     <path d="M 69.5 23.265625 
C 69.59375 23.5625 69.90625 24.28125 69.90625 24.671875 
C 69.90625 25.171875 69.5 25.671875 68.90625 25.671875 
C 68.5 25.671875 68.296875 25.578125 68 25.265625 
C 67.796875 25.171875 67.796875 24.96875 66.90625 22.953125 
C 61 8.90625 56.703125 2.890625 40.703125 2.890625 
L 26.09375 2.890625 
C 24.703125 2.890625 24.5 2.890625 23.90625 3 
C 22.796875 3.09375 22.703125 3.296875 22.703125 4.09375 
C 22.703125 4.796875 22.90625 5.390625 23.09375 6.296875 
L 30 34 
L 39.90625 34 
C 47.703125 34 48.296875 32.28125 48.296875 29.28125 
C 48.296875 28.28125 48.296875 27.375 47.59375 24.375 
C 47.40625 23.96875 47.296875 23.5625 47.296875 23.265625 
C 47.296875 22.5625 47.796875 22.265625 48.40625 22.265625 
C 49.296875 22.265625 49.40625 22.953125 49.796875 24.359375 
L 55.5 47.53125 
C 55.5 48.015625 55.09375 48.515625 54.5 48.515625 
C 53.59375 48.515625 53.5 48.125 53.09375 46.71875 
C 51.09375 39.078125 49.09375 36.890625 40.203125 36.890625 
L 30.703125 36.890625 
L 36.90625 61.40625 
C 37.796875 64.90625 38 64.90625 42.09375 64.90625 
L 56.40625 64.90625 
C 68.703125 64.90625 71.203125 61.609375 71.203125 54.03125 
C 71.203125 53.921875 71.203125 51.140625 70.796875 47.84375 
C 70.703125 47.4375 70.59375 46.84375 70.59375 46.640625 
C 70.59375 45.84375 71.09375 45.546875 71.703125 45.546875 
C 72.40625 45.546875 72.796875 45.953125 73 47.734375 
L 75.09375 65.21875 
C 75.09375 65.546875 75.296875 66.609375 75.296875 66.828125 
C 75.296875 68 74.40625 68 72.59375 68 
L 23.796875 68 
C 21.90625 68 20.90625 68 20.90625 66.078125 
C 20.90625 64.90625 21.59375 64.90625 23.296875 64.90625 
C 29.5 64.90625 29.5 64.28125 29.5 63.3125 
C 29.5 62.8125 29.40625 62.40625 29.09375 61.3125 
L 15.59375 7.390625 
C 14.703125 3.890625 14.5 2.890625 7.5 2.890625 
C 5.59375 2.890625 4.59375 2.890625 4.59375 1.09375 
C 4.59375 0 5.203125 0 7.203125 0 
L 57.40625 0 
C 59.59375 0 59.703125 0.09375 60.40625 1.71875 
z
" id="CMMI12-69"/>
    </defs>
    <g transform="translate(111.83399 48.265216)scale(0.09 -0.09)">
     <use transform="translate(0 14.943915)scale(0.996264)" xlink:href="#CMMI12-69"/>
     <use transform="translate(72.211218 0)scale(0.697382)" xlink:href="#CMR17-48"/>
    </g>
   </g>
   <g id="text_11">
    <!-- $E_1$ -->
    <g transform="translate(66.314305 24.588051)scale(0.09 -0.09)">
     <use transform="translate(0 14.943915)scale(0.996264)" xlink:href="#CMMI12-69"/>
     <use transform="translate(72.211218 0)scale(0.697382)" xlink:href="#CMR17-49"/>
    </g>
   </g>
   <g id="text_12">
    <!-- $do(\Lambda)$ -->
    <defs>
     <path d="M 50.296875 66.515625 
C 50.40625 66.90625 50.59375 67.5 50.59375 68 
C 50.59375 69 49.59375 69 49.40625 69 
C 49.296875 69 44.40625 68.5625 43.90625 68.4375 
C 42.203125 68.328125 40.703125 68.09375 38.90625 68.09375 
C 36.40625 67.890625 35.703125 67.796875 35.703125 66 
C 35.703125 65 36.5 65 37.90625 65 
C 42.796875 65 42.90625 64.109375 42.90625 63.125 
C 42.90625 62.53125 42.703125 61.75 42.59375 61.453125 
L 36.5 37.421875 
C 35.40625 40.015625 32.703125 44 27.5 44 
C 16.203125 44 4 29.4375 4 14.671875 
C 4 4.796875 9.796875 -1 16.59375 -1 
C 22.09375 -1 26.796875 3.296875 29.59375 6.59375 
C 30.59375 0.703125 35.296875 -1 38.296875 -1 
C 41.296875 -1 43.703125 0.796875 45.5 4.390625 
C 47.09375 7.78125 48.5 13.875 48.5 14.265625 
C 48.5 14.765625 48.09375 15.171875 47.5 15.171875 
C 46.59375 15.171875 46.5 14.671875 46.09375 13.171875 
C 44.59375 7.28125 42.703125 1 38.59375 1 
C 35.703125 1 35.5 3.578125 35.5 5.578125 
C 35.5 5.96875 35.5 8.046875 36.203125 10.84375 
z
M 30.09375 11.875 
C 29.59375 10.171875 29.59375 9.984375 28.203125 8.078125 
C 26 5.28125 21.59375 1 16.90625 1 
C 12.796875 1 10.5 4.6875 10.5 10.578125 
C 10.5 16.0625 13.59375 27.234375 15.5 31.4375 
C 18.90625 38.421875 23.59375 42.015625 27.5 42.015625 
C 34.09375 42.015625 35.40625 33.828125 35.40625 33.03125 
C 35.40625 32.9375 35.09375 31.625 35 31.4375 
z
" id="CMMI12-100"/>
     <path d="M 45.59375 27.4375 
C 45.59375 36.921875 39.40625 44 30.296875 44 
C 17.09375 44 4.09375 29.640625 4.09375 15.5625 
C 4.09375 6.09375 10.296875 -1 19.40625 -1 
C 32.703125 -1 45.59375 13.375 45.59375 27.4375 
z
M 19.5 1 
C 14.5 1 10.796875 4.984375 10.796875 11.96875 
C 10.796875 16.5625 13.203125 26.75 16 31.734375 
C 20.5 39.421875 26.09375 42.015625 30.203125 42.015625 
C 35.09375 42.015625 38.90625 38.015625 38.90625 31.03125 
C 38.90625 27.046875 36.796875 16.359375 33 10.28125 
C 28.90625 3.59375 23.40625 1 19.5 1 
z
" id="CMMI12-111"/>
     <path d="M 30.59375 -24.390625 
C 30.59375 -24.296875 30.59375 -24.09375 30.296875 -23.796875 
C 25.703125 -19.125 13.40625 -6.359375 13.40625 24.703125 
C 13.40625 55.765625 25.5 68.421875 30.40625 73.390625 
C 30.40625 73.5 30.59375 73.703125 30.59375 74 
C 30.59375 74.296875 30.296875 74.5 29.90625 74.5 
C 28.796875 74.5 20.296875 67.125 15.40625 56.15625 
C 10.40625 45.109375 9 34.359375 9 24.8125 
C 9 17.625 9.703125 5.484375 15.703125 -7.359375 
C 20.5 -17.734375 28.703125 -25 29.90625 -25 
C 30.40625 -25 30.59375 -24.796875 30.59375 -24.390625 
z
" id="CMR17-40"/>
     <path d="M 33.59375 68.796875 
C 33.09375 70.390625 33 70.5 32 70.5 
C 31 70.5 30.90625 70.390625 30.40625 68.796875 
L 10.703125 9 
C 8.90625 3.703125 5.59375 2.5 2.296875 2.5 
L 2.296875 0 
C 4 0 7.5 0 9.296875 0 
C 11.796875 0 15.703125 0 18.09375 -0.09375 
L 18.09375 2.5 
C 12.796875 2.5 12.5 6.3125 12.5 7.015625 
C 12.5 7.71875 12.703125 8.3125 13 9.3125 
L 29.59375 59.921875 
L 47 7.203125 
C 47.5 5.8125 47.5 5.609375 47.5 5.3125 
C 47.5 2.5 43.296875 2.5 41.203125 2.5 
L 41.203125 0 
C 44.09375 0 49.203125 0 52.296875 0 
C 54.796875 0 59.40625 0 61.703125 -0.09375 
L 61.703125 2.5 
C 57.296875 2.5 55.5 2.5 54.296875 6 
z
" id="CMR17-3"/>
     <path d="M 26.296875 24.703125 
C 26.296875 31.875 25.59375 44.015625 19.59375 56.859375 
C 14.796875 67.234375 6.59375 74.5 5.40625 74.5 
C 5.09375 74.5 4.703125 74.390625 4.703125 73.890625 
C 4.703125 73.703125 4.796875 73.59375 4.90625 73.390625 
C 9.703125 68.40625 21.90625 55.75 21.90625 24.75 
C 21.90625 -6.359375 9.796875 -19.015625 4.90625 -24.015625 
C 4.796875 -24.203125 4.703125 -24.3125 4.703125 -24.5 
C 4.703125 -25 5.09375 -25 5.40625 -25 
C 6.5 -25 15 -17.625 19.90625 -6.65625 
C 24.90625 4.390625 26.296875 15.140625 26.296875 24.703125 
z
" id="CMR17-41"/>
    </defs>
    <g transform="translate(96.315792 11.580177)scale(0.09 -0.09)">
     <use transform="scale(0.996264)" xlink:href="#CMMI12-100"/>
     <use transform="translate(50.689097 0)scale(0.996264)" xlink:href="#CMMI12-111"/>
     <use transform="translate(97.584406 0)scale(0.996264)" xlink:href="#CMR17-40"/>
     <use transform="translate(132.865174 0)scale(0.996264)" xlink:href="#CMR17-3"/>
     <use transform="translate(196.732696 0)scale(0.996264)" xlink:href="#CMR17-41"/>
    </g>
   </g>
  </g>
 </g>
 <defs>
  <clipPath id="pdae1c9bc34">
   <rect height="93.543307" width="124.724409" x="0" y="0"/>
  </clipPath>
 </defs>
</svg>
