<?xml version="1.0" encoding="utf-8" standalone="no"?>
<!DOCTYPE svg PUBLIC "-//W3C//DTD SVG 1.1//EN"
  "http://www.w3.org/Graphics/SVG/1.1/DTD/svg11.dtd">
<!-- Created with matplotlib (https://matplotlib.org/) -->
<svg height="141.732283pt" version="1.1" viewBox="0 0 184.251969 141.732283" width="184.251969pt" xmlns="http://www.w3.org/2000/svg" xmlns:xlink="http://www.w3.org/1999/xlink">
 <defs>
  <style type="text/css">
*{stroke-linecap:butt;stroke-linejoin:round;}
  </style>
 </defs>
 <g id="figure_1">
  <g id="patch_1">
   <path d="M 0 141.732283 
L 184.251969 141.732283 
L 184.251969 0 
L 0 0 
z
" style="fill:#ffffff;"/>
  </g>
  <g id="axes_1">
   <g id="patch_2">
    <path clip-path="url(#p69c7352b3c)" d="M 152.900787 97.322835 
L 154.31811 104.409449 
L 152.900787 104.409449 
L 152.900787 123.307087 
L 152.900787 123.307087 
L 152.900787 104.409449 
L 151.483465 104.409449 
z
" style="stroke:#000000;stroke-linejoin:miter;stroke-width:0.5;"/>
   </g>
   <g id="patch_3">
    <path clip-path="url(#p69c7352b3c)" d="M 75.802328 69.743276 
L 68.733981 68.237493 
L 69.295414 66.93611 
L 53.082757 59.941764 
L 53.082757 59.941764 
L 69.295414 66.93611 
L 69.856847 65.634728 
z
" style="stroke:#000000;stroke-dasharray:0.5,0.825;stroke-dashoffset:0;stroke-linejoin:miter;stroke-width:0.5;"/>
   </g>
   <g id="patch_4">
    <path clip-path="url(#p69c7352b3c)" d="M 37.893464 27.013711 
L 41.819018 33.081571 
L 40.501139 33.603106 
L 49.436921 56.18314 
L 49.436921 56.18314 
L 40.501139 33.603106 
L 39.18326 34.124641 
z
" style="stroke:#000000;stroke-linejoin:miter;stroke-width:0.5;"/>
   </g>
   <g id="patch_5">
    <path clip-path="url(#p69c7352b3c)" d="M 23.811024 58.818898 
L 30.897638 57.401575 
L 30.897638 58.818898 
L 47.645346 58.818898 
L 47.645346 58.818898 
L 30.897638 58.818898 
L 30.897638 60.23622 
z
" style="stroke:#000000;stroke-linejoin:miter;stroke-width:0.5;"/>
   </g>
   <g id="patch_6">
    <path clip-path="url(#p69c7352b3c)" d="M 54.644186 91.676038 
L 52.347106 84.823861 
L 53.753181 84.64566 
L 50.836393 61.631049 
L 50.836393 61.631049 
L 53.753181 84.64566 
L 55.159257 84.467459 
z
" style="stroke:#000000;stroke-linejoin:miter;stroke-width:0.5;"/>
   </g>
   <g id="patch_7">
    <path clip-path="url(#p69c7352b3c)" d="M 79.636491 68.312933 
L 81.438381 61.314212 
L 82.714986 61.929911 
L 98.364261 29.482343 
L 98.364261 29.482343 
L 82.714986 61.929911 
L 83.99159 62.54561 
z
" style="stroke:#000000;stroke-dasharray:0.5,0.825;stroke-dashoffset:0;stroke-linejoin:miter;stroke-width:0.5;"/>
   </g>
   <g id="patch_8">
    <path clip-path="url(#p69c7352b3c)" d="M 124.865034 67.174915 
L 130.930036 71.104884 
L 129.941003 72.120078 
L 150.870399 92.510124 
L 150.870399 92.510124 
L 129.941003 72.120078 
L 128.951971 73.135272 
z
" style="stroke:#000000;stroke-dasharray:0.5,0.825;stroke-dashoffset:0;stroke-linejoin:miter;stroke-width:0.5;"/>
   </g>
   <g id="patch_9">
    <path clip-path="url(#p69c7352b3c)" d="M 93.437885 121.502954 
L 95.461239 114.565019 
L 96.717636 115.220969 
L 121.522745 67.709644 
L 121.522745 67.709644 
L 96.717636 115.220969 
L 97.974033 115.87692 
z
" style="stroke:#000000;stroke-dasharray:0.5,0.825;stroke-dashoffset:0;stroke-linejoin:miter;stroke-width:0.5;"/>
   </g>
   <g id="patch_10">
    <path clip-path="url(#p69c7352b3c)" d="M 39.411138 25.593603 
L 46.420824 27.352356 
L 45.812999 28.632728 
L 120.273901 63.9812 
L 120.273901 63.9812 
L 45.812999 28.632728 
L 45.205174 29.9131 
z
" style="stroke:#000000;stroke-dasharray:0.5,0.825;stroke-dashoffset:0;stroke-linejoin:miter;stroke-width:0.5;"/>
   </g>
   <g id="patch_11">
    <path clip-path="url(#p69c7352b3c)" d="M 124.087246 62.653977 
L 125.947312 55.670492 
L 127.218749 56.296792 
L 146.715903 16.716102 
L 146.715903 16.716102 
L 127.218749 56.296792 
L 128.490185 56.923092 
z
" style="stroke:#000000;stroke-dasharray:0.5,0.825;stroke-dashoffset:0;stroke-linejoin:miter;stroke-width:0.5;"/>
   </g>
   <g id="patch_12">
    <path clip-path="url(#p69c7352b3c)" d="M 125.65316 64.894867 
L 132.548453 62.730651 
L 132.699445 64.139908 
L 161.590935 61.044391 
L 161.590935 61.044391 
L 132.699445 64.139908 
L 132.850437 65.549165 
z
" style="stroke:#000000;stroke-dasharray:0.5,0.825;stroke-dashoffset:0;stroke-linejoin:miter;stroke-width:0.5;"/>
   </g>
   <g id="patch_13">
    <path clip-path="url(#p69c7352b3c)" d="M 36.165768 119.847697 
L 33.07884 113.31319 
L 34.454204 112.970878 
L 21.661004 61.569626 
L 21.661004 61.569626 
L 34.454204 112.970878 
L 35.829568 112.628565 
z
" style="stroke:#000000;stroke-linejoin:miter;stroke-width:0.5;"/>
   </g>
   <g id="patch_14">
    <path clip-path="url(#p69c7352b3c)" d="M 38.388002 120.217044 
L 41.041332 113.494787 
L 42.232023 114.263591 
L 53.462979 96.86957 
L 53.462979 96.86957 
L 42.232023 114.263591 
L 43.422713 115.032395 
z
" style="stroke:#000000;stroke-dasharray:0.5,0.825;stroke-dashoffset:0;stroke-linejoin:miter;stroke-width:0.5;"/>
   </g>
   <g id="patch_15">
    <path clip-path="url(#p69c7352b3c)" d="M 89.29227 123.943089 
L 82.171655 125.178297 
L 82.207984 123.76144 
L 39.684108 122.671085 
L 39.684108 122.671085 
L 82.207984 123.76144 
L 82.244314 122.344583 
z
" style="stroke:#000000;stroke-dasharray:0.5,0.825;stroke-dashoffset:0;stroke-linejoin:miter;stroke-width:0.5;"/>
   </g>
   <g id="patch_16">
    <path clip-path="url(#p69c7352b3c)" d="M 91.417433 121.271086 
L 88.273724 114.763705 
L 89.646055 114.40943 
L 79.113644 73.610804 
L 79.113644 73.610804 
L 89.646055 114.40943 
L 91.018386 114.055154 
z
" style="stroke:#000000;stroke-dasharray:0.5,0.825;stroke-dashoffset:0;stroke-linejoin:miter;stroke-width:0.5;"/>
   </g>
   <g id="patch_17">
    <path clip-path="url(#p69c7352b3c)" d="M 152.900787 128.976378 
C 153.652544 128.976378 154.373612 128.677702 154.905185 128.146129 
C 155.436757 127.614557 155.735433 126.893489 155.735433 126.141732 
C 155.735433 125.389975 155.436757 124.668907 154.905185 124.137335 
C 154.373612 123.605763 153.652544 123.307087 152.900787 123.307087 
C 152.149031 123.307087 151.427963 123.605763 150.89639 124.137335 
C 150.364818 124.668907 150.066142 125.389975 150.066142 126.141732 
C 150.066142 126.893489 150.364818 127.614557 150.89639 128.146129 
C 151.427963 128.677702 152.149031 128.976378 152.900787 128.976378 
z
" style="stroke:#000000;stroke-linejoin:miter;"/>
   </g>
   <g id="patch_18">
    <path clip-path="url(#p69c7352b3c)" d="M 50.479991 61.653543 
C 51.231748 61.653543 51.952816 61.354867 52.484389 60.823295 
C 53.015961 60.291722 53.314637 59.570654 53.314637 58.818898 
C 53.314637 58.067141 53.015961 57.346073 52.484389 56.8145 
C 51.952816 56.282928 51.231748 55.984252 50.479991 55.984252 
C 49.728235 55.984252 49.007167 56.282928 48.475594 56.8145 
C 47.944022 57.346073 47.645346 58.067141 47.645346 58.818898 
C 47.645346 59.570654 47.944022 60.291722 48.475594 60.823295 
C 49.007167 61.354867 49.728235 61.653543 50.479991 61.653543 
z
" style="stroke:#000000;stroke-linejoin:miter;"/>
   </g>
   <g id="patch_19">
    <path clip-path="url(#p69c7352b3c)" d="M 99.595659 29.76378 
C 100.347415 29.76378 101.068483 29.465103 101.600056 28.933531 
C 102.131628 28.401959 102.430304 27.680891 102.430304 26.929134 
C 102.430304 26.177377 102.131628 25.456309 101.600056 24.924737 
C 101.068483 24.393164 100.347415 24.094488 99.595659 24.094488 
C 98.843902 24.094488 98.122834 24.393164 97.591261 24.924737 
C 97.059689 25.456309 96.761013 26.177377 96.761013 26.929134 
C 96.761013 27.680891 97.059689 28.401959 97.591261 28.933531 
C 98.122834 29.465103 98.843902 29.76378 99.595659 29.76378 
z
" style="stroke:#000000;stroke-linejoin:miter;"/>
   </g>
   <g id="patch_20">
    <path clip-path="url(#p69c7352b3c)" d="M 152.900787 97.322835 
C 153.652544 97.322835 154.373612 97.024158 154.905185 96.492586 
C 155.436757 95.961014 155.735433 95.239946 155.735433 94.488189 
C 155.735433 93.736432 155.436757 93.015364 154.905185 92.483792 
C 154.373612 91.952219 153.652544 91.653543 152.900787 91.653543 
C 152.149031 91.653543 151.427963 91.952219 150.89639 92.483792 
C 150.364818 93.015364 150.066142 93.736432 150.066142 94.488189 
C 150.066142 95.239946 150.364818 95.961014 150.89639 96.492586 
C 151.427963 97.024158 152.149031 97.322835 152.900787 97.322835 
z
" style="stroke:#000000;stroke-linejoin:miter;"/>
   </g>
   <g id="patch_21">
    <path clip-path="url(#p69c7352b3c)" d="M 122.834646 68.031496 
C 123.586402 68.031496 124.30747 67.73282 124.839043 67.201248 
C 125.370615 66.669675 125.669291 65.948607 125.669291 65.19685 
C 125.669291 64.445094 125.370615 63.724026 124.839043 63.192453 
C 124.30747 62.660881 123.586402 62.362205 122.834646 62.362205 
C 122.082889 62.362205 121.361821 62.660881 120.830248 63.192453 
C 120.298676 63.724026 120 64.445094 120 65.19685 
C 120 65.948607 120.298676 66.669675 120.830248 67.201248 
C 121.361821 67.73282 122.082889 68.031496 122.834646 68.031496 
z
" style="fill:none;stroke:#000000;stroke-linejoin:miter;stroke-width:0.5;"/>
   </g>
   <g id="patch_22">
    <path clip-path="url(#p69c7352b3c)" d="M 147.968504 17.007874 
C 148.720261 17.007874 149.441329 16.709198 149.972901 16.177626 
C 150.504473 15.646053 150.80315 14.924985 150.80315 14.173228 
C 150.80315 13.421472 150.504473 12.700404 149.972901 12.168831 
C 149.441329 11.637259 148.720261 11.338583 147.968504 11.338583 
C 147.216747 11.338583 146.495679 11.637259 145.964107 12.168831 
C 145.432534 12.700404 145.133858 13.421472 145.133858 14.173228 
C 145.133858 14.924985 145.432534 15.646053 145.964107 16.177626 
C 146.495679 16.709198 147.216747 17.007874 147.968504 17.007874 
z
" style="stroke:#000000;stroke-linejoin:miter;"/>
   </g>
   <g id="patch_23">
    <path clip-path="url(#p69c7352b3c)" d="M 164.409449 63.577053 
C 165.161206 63.577053 165.882274 63.278377 166.413846 62.746804 
C 166.945418 62.215232 167.244094 61.494164 167.244094 60.742407 
C 167.244094 59.99065 166.945418 59.269582 166.413846 58.73801 
C 165.882274 58.206438 165.161206 57.907762 164.409449 57.907762 
C 163.657692 57.907762 162.936624 58.206438 162.405052 58.73801 
C 161.873479 59.269582 161.574803 59.99065 161.574803 60.742407 
C 161.574803 61.494164 161.873479 62.215232 162.405052 62.746804 
C 162.936624 63.278377 163.657692 63.577053 164.409449 63.577053 
z
" style="stroke:#000000;stroke-linejoin:miter;"/>
   </g>
   <g id="patch_24">
    <path clip-path="url(#p69c7352b3c)" d="M 36.850394 27.212598 
C 37.602151 27.212598 38.323219 26.913922 38.854791 26.38235 
C 39.386363 25.850778 39.685039 25.12971 39.685039 24.377953 
C 39.685039 23.626196 39.386363 22.905128 38.854791 22.373556 
C 38.323219 21.841983 37.602151 21.543307 36.850394 21.543307 
C 36.098637 21.543307 35.377569 21.841983 34.845997 22.373556 
C 34.314424 22.905128 34.015748 23.626196 34.015748 24.377953 
C 34.015748 25.12971 34.314424 25.850778 34.845997 26.38235 
C 35.377569 26.913922 36.098637 27.212598 36.850394 27.212598 
z
" style="stroke:#000000;stroke-linejoin:miter;"/>
   </g>
   <g id="patch_25">
    <path clip-path="url(#p69c7352b3c)" d="M 20.976378 61.653543 
C 21.728135 61.653543 22.449203 61.354867 22.980775 60.823295 
C 23.512347 60.291722 23.811024 59.570654 23.811024 58.818898 
C 23.811024 58.067141 23.512347 57.346073 22.980775 56.8145 
C 22.449203 56.282928 21.728135 55.984252 20.976378 55.984252 
C 20.224621 55.984252 19.503553 56.282928 18.971981 56.8145 
C 18.440408 57.346073 18.141732 58.067141 18.141732 58.818898 
C 18.141732 59.570654 18.440408 60.291722 18.971981 60.823295 
C 19.503553 61.354867 20.224621 61.653543 20.976378 61.653543 
z
" style="stroke:#000000;stroke-linejoin:miter;"/>
   </g>
   <g id="patch_26">
    <path clip-path="url(#p69c7352b3c)" d="M 55.000588 97.322835 
C 55.752344 97.322835 56.473412 97.024158 57.004985 96.492586 
C 57.536557 95.961014 57.835233 95.239946 57.835233 94.488189 
C 57.835233 93.736432 57.536557 93.015364 57.004985 92.483792 
C 56.473412 91.952219 55.752344 91.653543 55.000588 91.653543 
C 54.248831 91.653543 53.527763 91.952219 52.99619 92.483792 
C 52.464618 93.015364 52.165942 93.736432 52.165942 94.488189 
C 52.165942 95.239946 52.464618 95.961014 52.99619 96.492586 
C 53.527763 97.024158 54.248831 97.322835 55.000588 97.322835 
z
" style="stroke:#000000;stroke-linejoin:miter;"/>
   </g>
   <g id="patch_27">
    <path clip-path="url(#p69c7352b3c)" d="M 92.125984 126.850394 
C 92.877741 126.850394 93.598809 126.551718 94.130381 126.020145 
C 94.661954 125.488573 94.96063 124.767505 94.96063 124.015748 
C 94.96063 123.263991 94.661954 122.542923 94.130381 122.011351 
C 93.598809 121.479779 92.877741 121.181102 92.125984 121.181102 
C 91.374227 121.181102 90.653159 121.479779 90.121587 122.011351 
C 89.590015 122.542923 89.291339 123.263991 89.291339 124.015748 
C 89.291339 124.767505 89.590015 125.488573 90.121587 126.020145 
C 90.653159 126.551718 91.374227 126.850394 92.125984 126.850394 
z
" style="stroke:#000000;stroke-linejoin:miter;"/>
   </g>
   <g id="patch_28">
    <path clip-path="url(#p69c7352b3c)" d="M 36.850394 125.433071 
C 37.602151 125.433071 38.323219 125.134395 38.854791 124.602822 
C 39.386363 124.07125 39.685039 123.350182 39.685039 122.598425 
C 39.685039 121.846668 39.386363 121.1256 38.854791 120.594028 
C 38.323219 120.062456 37.602151 119.76378 36.850394 119.76378 
C 36.098637 119.76378 35.377569 120.062456 34.845997 120.594028 
C 34.314424 121.1256 34.015748 121.846668 34.015748 122.598425 
C 34.015748 123.350182 34.314424 124.07125 34.845997 124.602822 
C 35.377569 125.134395 36.098637 125.433071 36.850394 125.433071 
z
" style="fill:none;stroke:#000000;stroke-linejoin:miter;stroke-width:0.5;"/>
   </g>
   <g id="patch_29">
    <path clip-path="url(#p69c7352b3c)" d="M 78.405093 73.700787 
C 79.15685 73.700787 79.877918 73.402111 80.40949 72.870539 
C 80.941062 72.338967 81.239739 71.617899 81.239739 70.866142 
C 81.239739 70.114385 80.941062 69.393317 80.40949 68.861745 
C 79.877918 68.330172 79.15685 68.031496 78.405093 68.031496 
C 77.653336 68.031496 76.932268 68.330172 76.400696 68.861745 
C 75.869123 69.393317 75.570447 70.114385 75.570447 70.866142 
C 75.570447 71.617899 75.869123 72.338967 76.400696 72.870539 
C 76.932268 73.402111 77.653336 73.700787 78.405093 73.700787 
z
" style="fill:none;stroke:#000000;stroke-linejoin:miter;stroke-width:0.5;"/>
   </g>
   <g id="matplotlib.axis_1"/>
   <g id="matplotlib.axis_2"/>
   <g id="text_1">
    <!-- $V_0$ -->
    <defs>
     <path d="M 61.90625 56.875 
C 65.296875 62.25 68.40625 64.625 73.5 65.03125 
C 74.5 65.125 75.296875 65.125 75.296875 66.90625 
C 75.296875 67.3125 75.09375 67.90625 74.203125 67.90625 
C 72.40625 67.90625 68.09375 67.90625 66.296875 67.90625 
C 63.40625 67.90625 60.40625 67.90625 57.59375 67.90625 
C 56.796875 67.90625 55.796875 67.90625 55.796875 66.03125 
C 55.796875 65.125 56.703125 65.03125 57.09375 65.03125 
C 60.796875 64.734375 61.203125 62.953125 61.203125 61.75 
C 61.203125 60.265625 59.796875 57.96875 59.703125 57.875 
L 28.296875 8.4375 
L 21.296875 62.015625 
C 21.296875 65 26.5 65 27.59375 65 
C 29.09375 65 30 65 30 66.90625 
C 30 67.90625 28.90625 67.90625 28.59375 67.90625 
C 26.90625 67.90625 24.90625 67.90625 23.203125 67.90625 
L 17.59375 67.90625 
C 10.296875 67.90625 7.296875 67.90625 7.203125 67.90625 
C 6.59375 67.90625 5.40625 67.90625 5.40625 66.09375 
C 5.40625 65 6.09375 65 7.703125 65 
C 12.796875 65 13.09375 64.09375 13.40625 61.625 
L 21.40625 0.375 
C 21.703125 -1.703125 21.703125 -2 23.09375 -2 
C 24.296875 -2 24.796875 -1.703125 25.796875 -0.125 
z
" id="CMMI12-86"/>
     <path d="M 42 31.640625 
C 42 37.75 41.90625 48.125 37.703125 56.109375 
C 34 63.109375 28.09375 65.59375 22.90625 65.59375 
C 18.09375 65.59375 12 63.40625 8.203125 56.203125 
C 4.203125 48.71875 3.796875 39.4375 3.796875 31.640625 
C 3.796875 25.953125 3.90625 17.28125 7 9.671875 
C 11.296875 -0.609375 19 -2 22.90625 -2 
C 27.5 -2 34.5 -0.109375 38.59375 9.375 
C 41.59375 16.28125 42 24.359375 42 31.640625 
z
M 22.90625 -0.40625 
C 16.5 -0.40625 12.703125 5.078125 11.296875 12.6875 
C 10.203125 18.5625 10.203125 27.15625 10.203125 32.75 
C 10.203125 40.4375 10.203125 46.828125 11.5 52.921875 
C 13.40625 61.390625 19 64 22.90625 64 
C 27 64 32.296875 61.296875 34.203125 53.125 
C 35.5 47.4375 35.59375 40.734375 35.59375 32.75 
C 35.59375 26.25 35.59375 18.265625 34.40625 12.375 
C 32.296875 1.484375 26.40625 -0.40625 22.90625 -0.40625 
z
" id="CMR17-48"/>
    </defs>
    <g transform="translate(156.887196 133.383326)scale(0.09 -0.09)">
     <use transform="translate(0 14.943915)scale(0.996264)" xlink:href="#CMMI12-86"/>
     <use transform="translate(56.869579 0)scale(0.697382)" xlink:href="#CMR17-48"/>
    </g>
   </g>
   <g id="text_2">
    <!-- $V_1$ -->
    <defs>
     <path d="M 26.59375 63.40625 
C 26.59375 65.5 26.5 65.5 25.09375 65.5 
C 21.203125 61.1875 15.296875 59.796875 9.703125 59.796875 
C 9.40625 59.796875 8.90625 59.796875 8.796875 59.5 
C 8.703125 59.296875 8.703125 59.09375 8.703125 57 
C 11.796875 57 17 57.59375 21 59.984375 
L 21 7.203125 
C 21 3.6875 20.796875 2.5 12.203125 2.5 
L 9.203125 2.5 
L 9.203125 0 
C 14 0 19 0 23.796875 0 
C 28.59375 0 33.59375 0 38.40625 0 
L 38.40625 2.5 
L 35.40625 2.5 
C 26.796875 2.5 26.59375 3.59375 26.59375 7.15625 
z
" id="CMR17-49"/>
    </defs>
    <g transform="translate(53.4664 57.060492)scale(0.09 -0.09)">
     <use transform="translate(0 14.943915)scale(0.996264)" xlink:href="#CMMI12-86"/>
     <use transform="translate(56.869579 0)scale(0.697382)" xlink:href="#CMR17-49"/>
    </g>
   </g>
   <g id="text_3">
    <!-- $V_2$ -->
    <defs>
     <path d="M 41.703125 15.453125 
L 39.90625 15.453125 
C 38.90625 8.375 38.09375 7.171875 37.703125 6.5625 
C 37.203125 5.765625 30 5.765625 28.59375 5.765625 
L 9.40625 5.765625 
C 13 9.671875 20 16.75 28.5 24.953125 
C 34.59375 30.734375 41.703125 37.53125 41.703125 47.421875 
C 41.703125 59.21875 32.296875 66 21.796875 66 
C 10.796875 66 4.09375 56.3125 4.09375 47.34375 
C 4.09375 43.4375 7 42.9375 8.203125 42.9375 
C 9.203125 42.9375 12.203125 43.546875 12.203125 47.03125 
C 12.203125 50.109375 9.59375 51 8.203125 51 
C 7.59375 51 7 50.90625 6.59375 50.703125 
C 8.5 59.21875 14.296875 63.40625 20.40625 63.40625 
C 29.09375 63.40625 34.796875 56.515625 34.796875 47.421875 
C 34.796875 38.734375 29.703125 31.25 24 24.75 
L 4.09375 2.28125 
L 4.09375 0 
L 39.296875 0 
z
" id="CMR17-50"/>
    </defs>
    <g transform="translate(91.582067 22.170728)scale(0.09 -0.09)">
     <use transform="translate(0 14.943915)scale(0.996264)" xlink:href="#CMMI12-86"/>
     <use transform="translate(56.869579 0)scale(0.697382)" xlink:href="#CMR17-50"/>
    </g>
   </g>
   <g id="text_4">
    <!-- $V_3$ -->
    <defs>
     <path d="M 22.09375 33.703125 
C 31 33.703125 34.90625 25.96875 34.90625 17.03125 
C 34.90625 5 28.5 0.390625 22.703125 0.390625 
C 17.40625 0.390625 8.796875 3.03125 6.09375 10.828125 
C 6.59375 10.625 7.09375 10.625 7.59375 10.625 
C 10 10.625 11.796875 12.21875 11.796875 14.8125 
C 11.796875 17.703125 9.59375 19 7.59375 19 
C 5.90625 19 3.296875 18.203125 3.296875 14.46875 
C 3.296875 5.234375 12.296875 -2 22.90625 -2 
C 34 -2 42.5 6.71875 42.5 16.953125 
C 42.5 26.671875 34.5 33.703125 25 34.796875 
C 32.59375 36.375 39.90625 43.0625 39.90625 52.015625 
C 39.90625 59.6875 32 65.296875 23 65.296875 
C 13.90625 65.296875 5.90625 59.828125 5.90625 52.015625 
C 5.90625 48.59375 8.5 48 9.796875 48 
C 11.90625 48 13.703125 49.296875 13.703125 51.890625 
C 13.703125 54.46875 11.90625 55.765625 9.796875 55.765625 
C 9.40625 55.765625 8.90625 55.765625 8.5 55.578125 
C 11.40625 61.859375 19.296875 63 22.796875 63 
C 26.296875 63 32.90625 61.328125 32.90625 51.875 
C 32.90625 49.109375 32.5 44.1875 29.09375 39.84375 
C 26.09375 36 22.703125 36 19.40625 35.6875 
C 18.90625 35.6875 16.59375 35.453125 16.203125 35.453125 
C 15.5 35.359375 15.09375 35.265625 15.09375 34.5 
C 15.09375 33.796875 15.203125 33.703125 17.203125 33.703125 
z
" id="CMR17-51"/>
    </defs>
    <g transform="translate(155.887196 103.729783)scale(0.09 -0.09)">
     <use transform="translate(0 14.943915)scale(0.996264)" xlink:href="#CMMI12-86"/>
     <use transform="translate(56.869579 0)scale(0.697382)" xlink:href="#CMR17-51"/>
    </g>
   </g>
   <g id="text_5">
    <!-- $V_{4^*}$ -->
    <defs>
     <path d="M 33.59375 64.40625 
C 33.59375 66.5 33.5 66.5 31.703125 66.5 
L 2 19.59375 
L 2 17 
L 27.796875 17 
L 27.796875 7.140625 
C 27.796875 3.5 27.59375 2.5 20.59375 2.5 
L 18.703125 2.5 
L 18.703125 0 
C 21.90625 0 27.296875 0 30.703125 0 
C 34.09375 0 39.5 0 42.703125 0 
L 42.703125 2.5 
L 40.796875 2.5 
C 33.796875 2.5 33.59375 3.5 33.59375 7.140625 
L 33.59375 17 
L 43.796875 17 
L 43.796875 19.59375 
L 33.59375 19.59375 
z
M 28.09375 57.859375 
L 28.09375 19.59375 
L 4 19.59375 
z
" id="CMR17-52"/>
     <path d="M 27.5 42.484375 
C 27.59375 43.875 27.59375 46.28125 25 46.28125 
C 23.40625 46.28125 22.09375 44.984375 22.40625 43.671875 
L 22.40625 42.375 
L 23.796875 26.875 
L 11 36.1875 
C 10.09375 36.6875 9.90625 36.875 9.203125 36.875 
C 7.796875 36.875 6.5 35.484375 6.5 34.078125 
C 6.5 32.484375 7.5 32.078125 8.5 31.578125 
L 22.703125 24.78125 
L 8.90625 18.09375 
C 7.296875 17.296875 6.5 16.890625 6.5 15.390625 
C 6.5 13.890625 7.796875 12.59375 9.203125 12.59375 
C 9.90625 12.59375 10.09375 12.59375 12.59375 14.5 
L 23.796875 22.59375 
L 22.296875 5.796875 
C 22.296875 3.6875 24.09375 3.1875 24.90625 3.1875 
C 26.09375 3.1875 27.59375 3.875 27.59375 5.796875 
L 26.09375 22.59375 
L 38.90625 13.296875 
C 39.796875 12.796875 40 12.59375 40.703125 12.59375 
C 42.09375 12.59375 43.40625 14 43.40625 15.390625 
C 43.40625 16.890625 42.5 17.390625 41.296875 18 
C 35.296875 20.984375 35.09375 20.984375 27.203125 24.6875 
L 41 31.375 
C 42.59375 32.1875 43.40625 32.578125 43.40625 34.078125 
C 43.40625 35.578125 42.09375 36.875 40.703125 36.875 
C 40 36.875 39.796875 36.875 37.296875 34.984375 
L 26.09375 26.875 
z
" id="CMSY10-3"/>
    </defs>
    <g transform="translate(111.987635 60.438444)scale(0.09 -0.09)">
     <use transform="translate(0 14.943915)scale(0.996264)" xlink:href="#CMMI12-86"/>
     <use transform="translate(56.869579 0)scale(0.697382)" xlink:href="#CMR17-52"/>
     <use transform="translate(88.852761 20.146573)scale(0.498132)" xlink:href="#CMSY10-3"/>
    </g>
   </g>
   <g id="text_6">
    <!-- $V_9$ -->
    <defs>
     <path d="M 35.203125 29.125 
C 35.203125 7.25 26.09375 0.484375 18.59375 0.484375 
C 16.296875 0.484375 10.703125 0.484375 8.40625 4.59375 
C 11 4.1875 12.90625 5.578125 12.90625 8.09375 
C 12.90625 10.8125 10.703125 11.703125 9.296875 11.703125 
C 8.40625 11.703125 5.703125 11.296875 5.703125 7.90625 
C 5.703125 1.109375 11.59375 -2 18.796875 -2 
C 30.296875 -2 42 10.53125 42 32.390625 
C 42 59.640625 30.796875 65.296875 23.203125 65.296875 
C 13.296875 65.296875 3.796875 56.6875 3.796875 43.40625 
C 3.796875 31.109375 11.90625 22 22.09375 22 
C 30.5 22 34.203125 29.734375 35.203125 33 
z
M 22.296875 23.59375 
C 19.59375 23.59375 15.796875 24.09375 12.703125 30.03125 
C 10.59375 33.890625 10.59375 38.453125 10.59375 43.296875 
C 10.59375 49.15625 10.59375 53.203125 13.40625 57.5625 
C 14.796875 59.640625 17.40625 63 23.203125 63 
C 35 63 35 45.078125 35 41.125 
C 35 34.09375 31.796875 23.59375 22.296875 23.59375 
z
" id="CMR17-57"/>
    </defs>
    <g transform="translate(151.954912 21.414822)scale(0.09 -0.09)">
     <use transform="translate(0 14.943915)scale(0.996264)" xlink:href="#CMMI12-86"/>
     <use transform="translate(56.869579 0)scale(0.697382)" xlink:href="#CMR17-57"/>
    </g>
   </g>
   <g id="text_7">
    <!-- $V_{10}$ -->
    <g transform="translate(164.569401 57.984001)scale(0.09 -0.09)">
     <use transform="translate(0 14.943915)scale(0.996264)" xlink:href="#CMMI12-86"/>
     <use transform="translate(56.869579 0)scale(0.697382)" xlink:href="#CMR17-49"/>
     <use transform="translate(88.852761 0)scale(0.697382)" xlink:href="#CMR17-48"/>
    </g>
   </g>
   <g id="text_8">
    <!-- $V_{11}$ -->
    <g transform="translate(22.010346 21.619547)scale(0.09 -0.09)">
     <use transform="translate(0 14.943915)scale(0.996264)" xlink:href="#CMMI12-86"/>
     <use transform="translate(56.869579 0)scale(0.697382)" xlink:href="#CMR17-49"/>
     <use transform="translate(88.852761 0)scale(0.697382)" xlink:href="#CMR17-49"/>
    </g>
   </g>
   <g id="text_9">
    <!-- $V_{12}$ -->
    <g transform="translate(6.13633 56.060492)scale(0.09 -0.09)">
     <use transform="translate(0 14.943915)scale(0.996264)" xlink:href="#CMMI12-86"/>
     <use transform="translate(56.869579 0)scale(0.697382)" xlink:href="#CMR17-49"/>
     <use transform="translate(88.852761 0)scale(0.697382)" xlink:href="#CMR17-50"/>
    </g>
   </g>
   <g id="text_10">
    <!-- $V_{13}$ -->
    <g transform="translate(57.16054 91.729783)scale(0.09 -0.09)">
     <use transform="translate(0 14.943915)scale(0.996264)" xlink:href="#CMMI12-86"/>
     <use transform="translate(56.869579 0)scale(0.697382)" xlink:href="#CMR17-49"/>
     <use transform="translate(88.852761 0)scale(0.697382)" xlink:href="#CMR17-51"/>
    </g>
   </g>
   <g id="text_11">
    <!-- $G_{\hat{2}}$ -->
    <defs>
     <path d="M 74.59375 69.109375 
C 74.59375 70 73.90625 70 73.703125 70 
C 73.5 70 73.09375 70 72.296875 69 
L 65.40625 60.765625 
C 64.90625 61.5625 62.90625 65.046875 59 67.328125 
C 54.703125 70 50.40625 70 48.90625 70 
C 27.5 70 5 48.359375 5 24.921875 
C 5 8.53125 16.40625 -2 31.40625 -2 
C 38.59375 -2 47.703125 0.390625 52.703125 6.671875 
C 53.796875 2.890625 56 0.1875 56.703125 0.1875 
C 57.203125 0.1875 57.296875 0.5 57.40625 0.5 
C 57.5 0.6875 58.296875 4.21875 58.796875 6.015625 
L 60.40625 12.453125 
C 61.203125 15.765625 61.59375 17.171875 62.296875 20.171875 
C 63.296875 24 63.5 24 69 24 
C 69.40625 24 70.59375 24 70.59375 26.03125 
C 70.59375 27.09375 69.59375 27.09375 69.296875 27.09375 
C 67.59375 27.09375 65.703125 27.09375 63.90625 27.09375 
L 58.5 27.09375 
C 54.296875 27.09375 49.90625 27.09375 45.796875 27.09375 
C 44.90625 27.09375 43.703125 27.09375 43.703125 25.171875 
C 43.703125 24.09375 44.5 24.09375 44.5 24 
L 47 24 
C 54.90625 24 54.90625 23.265625 54.90625 21.90625 
C 54.90625 21.796875 53 11.734375 51.09375 8.765625 
C 47.296875 3.1875 39.40625 0.890625 33.5 0.890625 
C 25.796875 0.890625 13.296875 4.875 13.296875 22.03125 
C 13.296875 28.6875 15.703125 43.875 25.40625 55.09375 
C 31.703125 62.25 41 67.109375 49.796875 67.109375 
C 61.59375 67.109375 65.796875 57.109375 65.796875 47.984375 
C 65.796875 46.40625 65.40625 44.234375 65.40625 42.84375 
C 65.40625 41.953125 66.40625 41.953125 66.703125 41.953125 
C 67.796875 41.953125 67.90625 42.046875 68.296875 43.828125 
z
" id="CMMI12-71"/>
     <path d="M 22.90625 69.078125 
L 10.59375 55.546875 
L 11.796875 54.34375 
L 22.90625 65.09375 
L 34 54.34375 
L 35.203125 55.546875 
z
" id="CMR17-94"/>
    </defs>
    <g transform="translate(96.191621 131.506416)scale(0.09 -0.09)">
     <use transform="translate(0 29.045894)scale(0.996264)" xlink:href="#CMMI12-71"/>
     <use transform="translate(76.946862 14.932331)scale(0.697382)" xlink:href="#CMR17-94"/>
     <use transform="translate(76.946862 0)scale(0.697382)" xlink:href="#CMR17-50"/>
    </g>
   </g>
   <g id="text_12">
    <!-- $E_0$ -->
    <defs>
     <path d="M 69.5 23.265625 
C 69.59375 23.5625 69.90625 24.28125 69.90625 24.671875 
C 69.90625 25.171875 69.5 25.671875 68.90625 25.671875 
C 68.5 25.671875 68.296875 25.578125 68 25.265625 
C 67.796875 25.171875 67.796875 24.96875 66.90625 22.953125 
C 61 8.90625 56.703125 2.890625 40.703125 2.890625 
L 26.09375 2.890625 
C 24.703125 2.890625 24.5 2.890625 23.90625 3 
C 22.796875 3.09375 22.703125 3.296875 22.703125 4.09375 
C 22.703125 4.796875 22.90625 5.390625 23.09375 6.296875 
L 30 34 
L 39.90625 34 
C 47.703125 34 48.296875 32.28125 48.296875 29.28125 
C 48.296875 28.28125 48.296875 27.375 47.59375 24.375 
C 47.40625 23.96875 47.296875 23.5625 47.296875 23.265625 
C 47.296875 22.5625 47.796875 22.265625 48.40625 22.265625 
C 49.296875 22.265625 49.40625 22.953125 49.796875 24.359375 
L 55.5 47.53125 
C 55.5 48.015625 55.09375 48.515625 54.5 48.515625 
C 53.59375 48.515625 53.5 48.125 53.09375 46.71875 
C 51.09375 39.078125 49.09375 36.890625 40.203125 36.890625 
L 30.703125 36.890625 
L 36.90625 61.40625 
C 37.796875 64.90625 38 64.90625 42.09375 64.90625 
L 56.40625 64.90625 
C 68.703125 64.90625 71.203125 61.609375 71.203125 54.03125 
C 71.203125 53.921875 71.203125 51.140625 70.796875 47.84375 
C 70.703125 47.4375 70.59375 46.84375 70.59375 46.640625 
C 70.59375 45.84375 71.09375 45.546875 71.703125 45.546875 
C 72.40625 45.546875 72.796875 45.953125 73 47.734375 
L 75.09375 65.21875 
C 75.09375 65.546875 75.296875 66.609375 75.296875 66.828125 
C 75.296875 68 74.40625 68 72.59375 68 
L 23.796875 68 
C 21.90625 68 20.90625 68 20.90625 66.078125 
C 20.90625 64.90625 21.59375 64.90625 23.296875 64.90625 
C 29.5 64.90625 29.5 64.28125 29.5 63.3125 
C 29.5 62.8125 29.40625 62.40625 29.09375 61.3125 
L 15.59375 7.390625 
C 14.703125 3.890625 14.5 2.890625 7.5 2.890625 
C 5.59375 2.890625 4.59375 2.890625 4.59375 1.09375 
C 4.59375 0 5.203125 0 7.203125 0 
L 57.40625 0 
C 59.59375 0 59.703125 0.09375 60.40625 1.71875 
z
" id="CMMI12-69"/>
    </defs>
    <g transform="translate(38.133203 131.840019)scale(0.09 -0.09)">
     <use transform="translate(0 14.943915)scale(0.996264)" xlink:href="#CMMI12-69"/>
     <use transform="translate(72.211218 0)scale(0.697382)" xlink:href="#CMR17-48"/>
    </g>
   </g>
   <g id="text_13">
    <!-- $E_1$ -->
    <g transform="translate(82.687902 73.107736)scale(0.09 -0.09)">
     <use transform="translate(0 14.943915)scale(0.996264)" xlink:href="#CMMI12-69"/>
     <use transform="translate(72.211218 0)scale(0.697382)" xlink:href="#CMR17-49"/>
    </g>
   </g>
  </g>
 </g>
 <defs>
  <clipPath id="p69c7352b3c">
   <rect height="141.732283" width="184.251969" x="0" y="0"/>
  </clipPath>
 </defs>
</svg>
