<?xml version="1.0" encoding="utf-8" standalone="no"?>
<!DOCTYPE svg PUBLIC "-//W3C//DTD SVG 1.1//EN"
  "http://www.w3.org/Graphics/SVG/1.1/DTD/svg11.dtd">
<!-- Created with matplotlib (https://matplotlib.org/) -->
<svg height="246.614173pt" version="1.1" viewBox="0 0 198.425197 246.614173" width="198.425197pt" xmlns="http://www.w3.org/2000/svg" xmlns:xlink="http://www.w3.org/1999/xlink">
 <defs>
  <style type="text/css">
*{stroke-linecap:butt;stroke-linejoin:round;}
  </style>
 </defs>
 <g id="figure_1">
  <g id="patch_1">
   <path d="M 0 246.614173 
L 198.425197 246.614173 
L 198.425197 0 
L 0 0 
z
" style="fill:#ffffff;"/>
  </g>
  <g id="axes_1">
   <g id="patch_2">
    <path clip-path="url(#p4ed00ea023)" d="M 158.285901 75.893389 
L 153.175671 81.003619 
L 152.389482 79.824335 
L 96.832209 116.862517 
L 96.832209 116.862517 
L 152.389482 79.824335 
L 151.603293 78.645051 
z
" style="stroke:#000000;stroke-linejoin:miter;"/>
   </g>
   <g id="patch_3">
    <path clip-path="url(#p4ed00ea023)" d="M 85.03937 167.244094 
L 83.622047 160.15748 
L 85.03937 160.15748 
L 85.03937 138.897638 
L 85.03937 138.897638 
L 85.03937 160.15748 
L 86.456693 160.15748 
z
" style="stroke:#000000;stroke-linejoin:miter;"/>
   </g>
   <g id="patch_4">
    <path clip-path="url(#p4ed00ea023)" d="M 114.458395 210.5299 
L 110.819323 204.286018 
L 112.160034 203.826346 
L 89.636093 138.131517 
L 89.636093 138.131517 
L 112.160034 203.826346 
L 113.500745 203.366674 
z
" style="stroke:#000000;stroke-linejoin:miter;"/>
   </g>
   <g id="patch_5">
    <path clip-path="url(#p4ed00ea023)" d="M 77.177478 193.210162 
L 74.425815 199.89277 
L 73.246531 199.106581 
L 64.554806 212.144169 
L 64.554806 212.144169 
L 73.246531 199.106581 
L 72.067247 198.320392 
z
" style="stroke:#000000;stroke-linejoin:miter;"/>
   </g>
   <g id="patch_6">
    <path clip-path="url(#p4ed00ea023)" d="M 75.017384 114.702424 
L 69.004193 110.693629 
L 70.006391 109.691431 
L 38.368443 78.053482 
L 38.368443 78.053482 
L 70.006391 109.691431 
L 71.00859 108.689232 
z
" style="stroke:#000000;stroke-linejoin:miter;"/>
   </g>
   <g id="patch_7">
    <path clip-path="url(#p4ed00ea023)" d="M 70.866142 181.417323 
L 63.779528 182.834646 
L 63.779528 181.417323 
L 42.519685 181.417323 
L 42.519685 181.417323 
L 63.779528 181.417323 
L 63.779528 180 
z
" style="stroke:#000000;stroke-linejoin:miter;"/>
   </g>
   <g id="patch_8">
    <path clip-path="url(#p4ed00ea023)" d="M 148.091194 34.526663 
L 153.16426 39.673789 
L 151.97931 40.451412 
L 162.302507 56.181998 
L 162.302507 56.181998 
L 151.97931 40.451412 
L 150.79436 41.229036 
z
" style="stroke:#000000;stroke-linejoin:miter;"/>
   </g>
   <g id="patch_9">
    <path clip-path="url(#p4ed00ea023)" d="M 170.07874 110.551181 
L 168.661417 103.464567 
L 170.07874 103.464567 
L 170.07874 82.204724 
L 170.07874 82.204724 
L 170.07874 103.464567 
L 171.496063 103.464567 
z
" style="stroke:#000000;stroke-linejoin:miter;"/>
   </g>
   <g id="patch_10">
    <path clip-path="url(#p4ed00ea023)" d="M 162.302507 56.181998 
L 157.229441 51.034872 
L 158.414391 50.257249 
L 148.091194 34.526663 
L 148.091194 34.526663 
L 158.414391 50.257249 
L 159.59934 49.479626 
z
" style="stroke:#000000;stroke-linejoin:miter;"/>
   </g>
   <g id="patch_11">
    <path clip-path="url(#p4ed00ea023)" d="M 157.401819 217.598547 
L 150.429513 215.697009 
L 151.063359 214.429317 
L 97.716291 187.755783 
L 97.716291 187.755783 
L 151.063359 214.429317 
L 151.697205 213.161625 
z
" style="stroke:#000000;stroke-linejoin:miter;"/>
   </g>
   <g id="patch_12">
    <path clip-path="url(#p4ed00ea023)" d="M 158.285901 132.586302 
L 153.175671 137.696532 
L 152.389482 136.517248 
L 96.832209 173.55543 
L 96.832209 173.55543 
L 152.389482 136.517248 
L 151.603293 135.337964 
z
" style="stroke:#000000;stroke-linejoin:miter;"/>
   </g>
   <g id="patch_13">
    <path clip-path="url(#p4ed00ea023)" d="M 161.574803 79.370079 
L 158.456693 85.889764 
L 157.322835 85.03937 
L 93.543307 170.07874 
L 93.543307 170.07874 
L 157.322835 85.03937 
L 156.188976 84.188976 
z
" style="stroke:#000000;stroke-linejoin:miter;"/>
   </g>
   <g id="patch_14">
    <path clip-path="url(#p4ed00ea023)" d="M 135.654128 36.062121 
L 134.662207 43.220682 
L 133.323711 42.754599 
L 89.700203 168.032367 
L 89.700203 168.032367 
L 133.323711 42.754599 
L 131.985216 42.288516 
z
" style="stroke:#000000;stroke-linejoin:miter;"/>
   </g>
   <g id="patch_15">
    <path clip-path="url(#p4ed00ea023)" d="M 155.905512 223.937008 
L 148.818898 225.354331 
L 148.818898 223.937008 
L 133.228346 223.937008 
L 133.228346 223.937008 
L 148.818898 223.937008 
L 148.818898 222.519685 
z
" style="stroke:#000000;stroke-linejoin:miter;"/>
   </g>
   <g id="patch_16">
    <path clip-path="url(#p4ed00ea023)" d="M 75.017384 171.395337 
L 69.004193 167.386543 
L 70.006391 166.384344 
L 38.368443 134.746395 
L 38.368443 134.746395 
L 70.006391 166.384344 
L 71.00859 165.382145 
z
" style="stroke:#000000;stroke-linejoin:miter;"/>
   </g>
   <g id="patch_17">
    <path clip-path="url(#p4ed00ea023)" d="M 157.802094 117.641729 
L 150.955503 115.328053 
L 151.663771 114.100389 
L 108.654599 89.287405 
L 108.654599 89.287405 
L 151.663771 114.100389 
L 152.372039 112.872724 
z
" style="stroke:#000000;stroke-linejoin:miter;"/>
   </g>
   <g id="patch_18">
    <path clip-path="url(#p4ed00ea023)" d="M 156.160539 70.708073 
L 149.469095 73.438182 
L 149.201438 72.046362 
L 110.296154 79.528147 
L 110.296154 79.528147 
L 149.201438 72.046362 
L 148.93378 70.654542 
z
" style="stroke:#000000;stroke-linejoin:miter;"/>
   </g>
   <g id="patch_19">
    <path clip-path="url(#p4ed00ea023)" d="M 131.898156 34.080578 
L 128.830096 40.623964 
L 127.689754 39.782284 
L 104.794757 70.801312 
L 104.794757 70.801312 
L 127.689754 39.782284 
L 126.549413 38.940603 
z
" style="stroke:#000000;stroke-linejoin:miter;"/>
   </g>
   <g id="patch_20">
    <path clip-path="url(#p4ed00ea023)" d="M 116.815883 209.941786 
L 114.296743 203.168099 
L 115.696265 202.944176 
L 98.617188 96.199946 
L 98.617188 96.199946 
L 115.696265 202.944176 
L 117.095787 202.720252 
z
" style="stroke:#000000;stroke-linejoin:miter;"/>
   </g>
   <g id="patch_21">
    <path clip-path="url(#p4ed00ea023)" d="M 58.210486 209.845259 
L 57.560098 202.647628 
L 58.969273 202.799385 
L 75.01786 53.776788 
L 75.01786 53.776788 
L 58.969273 202.799385 
L 60.378448 202.951142 
z
" style="stroke:#000000;stroke-linejoin:miter;"/>
   </g>
   <g id="patch_22">
    <path clip-path="url(#p4ed00ea023)" d="M 40.562847 60.845384 
L 45.952431 56.030689 
L 46.671042 57.252328 
L 64.319043 46.871151 
L 64.319043 46.871151 
L 46.671042 57.252328 
L 47.389654 58.473967 
z
" style="stroke:#000000;stroke-linejoin:miter;"/>
   </g>
   <g id="patch_23">
    <path clip-path="url(#p4ed00ea023)" d="M 32.908858 167.998497 
L 33.848175 160.832843 
L 35.190058 161.289083 
L 71.973032 53.103866 
L 71.973032 53.103866 
L 35.190058 161.289083 
L 36.531941 161.745323 
z
" style="stroke:#000000;stroke-linejoin:miter;"/>
   </g>
   <g id="patch_24">
    <path clip-path="url(#p4ed00ea023)" d="M 35.334036 112.393386 
L 37.594724 105.529117 
L 38.827826 106.227875 
L 69.547853 52.016062 
L 69.547853 52.016062 
L 38.827826 106.227875 
L 40.060929 106.926633 
z
" style="stroke:#000000;stroke-linejoin:miter;"/>
   </g>
   <g id="patch_25">
    <path clip-path="url(#p4ed00ea023)" d="M 95.800487 133.948224 
L 102.103427 137.48402 
L 101.181046 138.560132 
L 133.805812 166.524217 
L 133.805812 166.524217 
L 101.181046 138.560132 
L 100.258664 139.636243 
z
" style="stroke:#000000;stroke-linejoin:miter;"/>
   </g>
   <g id="patch_26">
    <path clip-path="url(#p4ed00ea023)" d="M 163.447261 211.41088 
L 158.878908 205.810964 
L 160.131521 205.147816 
L 151.198409 188.274159 
L 151.198409 188.274159 
L 160.131521 205.147816 
L 161.384134 204.484668 
z
" style="stroke:#000000;stroke-linejoin:miter;"/>
   </g>
   <g id="patch_27">
    <path clip-path="url(#p4ed00ea023)" d="M 99.148755 180.073572 
L 106.069072 177.990758 
L 106.203447 179.401696 
L 130.457544 177.091782 
L 130.457544 177.091782 
L 106.203447 179.401696 
L 106.337822 180.812635 
z
" style="stroke:#000000;stroke-linejoin:miter;"/>
   </g>
   <g id="patch_28">
    <path clip-path="url(#p4ed00ea023)" d="M 140.314961 36.850394 
C 144.073745 36.850394 147.679085 35.357013 150.336947 32.699151 
C 152.994808 30.04129 154.488189 26.435949 154.488189 22.677165 
C 154.488189 18.918381 152.994808 15.313041 150.336947 12.655179 
C 147.679085 9.997318 144.073745 8.503937 140.314961 8.503937 
C 136.556177 8.503937 132.950836 9.997318 130.292975 12.655179 
C 127.635113 15.313041 126.141732 18.918381 126.141732 22.677165 
C 126.141732 26.435949 127.635113 30.04129 130.292975 32.699151 
C 132.950836 35.357013 136.556177 36.850394 140.314961 36.850394 
z
" style="fill:#b2b2b2;stroke:#000000;stroke-linejoin:miter;"/>
   </g>
   <g id="patch_29">
    <path clip-path="url(#p4ed00ea023)" d="M 140.314961 36.850394 
C 144.073745 36.850394 147.679085 35.357013 150.336947 32.699151 
C 152.994808 30.04129 154.488189 26.435949 154.488189 22.677165 
C 154.488189 18.918381 152.994808 15.313041 150.336947 12.655179 
C 147.679085 9.997318 144.073745 8.503937 140.314961 8.503937 
C 136.556177 8.503937 132.950836 9.997318 130.292975 12.655179 
C 127.635113 15.313041 126.141732 18.918381 126.141732 22.677165 
C 126.141732 26.435949 127.635113 30.04129 130.292975 32.699151 
C 132.950836 35.357013 136.556177 36.850394 140.314961 36.850394 
z
" style="fill:none;stroke:#000000;stroke-linejoin:miter;"/>
   </g>
   <g id="patch_30">
    <path clip-path="url(#p4ed00ea023)" d="M 28.346457 82.204724 
C 32.105241 82.204724 35.710581 80.711344 38.368443 78.053482 
C 41.026304 75.39562 42.519685 71.79028 42.519685 68.031496 
C 42.519685 64.272712 41.026304 60.667372 38.368443 58.00951 
C 35.710581 55.351648 32.105241 53.858268 28.346457 53.858268 
C 24.587673 53.858268 20.982333 55.351648 18.324471 58.00951 
C 15.666609 60.667372 14.173228 64.272712 14.173228 68.031496 
C 14.173228 71.79028 15.666609 75.39562 18.324471 78.053482 
C 20.982333 80.711344 24.587673 82.204724 28.346457 82.204724 
z
" style="fill:#b2b2b2;stroke:#000000;stroke-linejoin:miter;"/>
   </g>
   <g id="patch_31">
    <path clip-path="url(#p4ed00ea023)" d="M 28.346457 82.204724 
C 32.105241 82.204724 35.710581 80.711344 38.368443 78.053482 
C 41.026304 75.39562 42.519685 71.79028 42.519685 68.031496 
C 42.519685 64.272712 41.026304 60.667372 38.368443 58.00951 
C 35.710581 55.351648 32.105241 53.858268 28.346457 53.858268 
C 24.587673 53.858268 20.982333 55.351648 18.324471 58.00951 
C 15.666609 60.667372 14.173228 64.272712 14.173228 68.031496 
C 14.173228 71.79028 15.666609 75.39562 18.324471 78.053482 
C 20.982333 80.711344 24.587673 82.204724 28.346457 82.204724 
z
" style="fill:none;stroke:#000000;stroke-linejoin:miter;"/>
   </g>
   <g id="patch_32">
    <path clip-path="url(#p4ed00ea023)" d="M 170.07874 82.204724 
C 173.837524 82.204724 177.442864 80.711344 180.100726 78.053482 
C 182.758588 75.39562 184.251969 71.79028 184.251969 68.031496 
C 184.251969 64.272712 182.758588 60.667372 180.100726 58.00951 
C 177.442864 55.351648 173.837524 53.858268 170.07874 53.858268 
C 166.319956 53.858268 162.714616 55.351648 160.056754 58.00951 
C 157.398893 60.667372 155.905512 64.272712 155.905512 68.031496 
C 155.905512 71.79028 157.398893 75.39562 160.056754 78.053482 
C 162.714616 80.711344 166.319956 82.204724 170.07874 82.204724 
z
" style="fill:#b2b2b2;stroke:#000000;stroke-linejoin:miter;"/>
   </g>
   <g id="patch_33">
    <path clip-path="url(#p4ed00ea023)" d="M 170.07874 82.204724 
C 173.837524 82.204724 177.442864 80.711344 180.100726 78.053482 
C 182.758588 75.39562 184.251969 71.79028 184.251969 68.031496 
C 184.251969 64.272712 182.758588 60.667372 180.100726 58.00951 
C 177.442864 55.351648 173.837524 53.858268 170.07874 53.858268 
C 166.319956 53.858268 162.714616 55.351648 160.056754 58.00951 
C 157.398893 60.667372 155.905512 64.272712 155.905512 68.031496 
C 155.905512 71.79028 157.398893 75.39562 160.056754 78.053482 
C 162.714616 80.711344 166.319956 82.204724 170.07874 82.204724 
z
" style="fill:none;stroke:#000000;stroke-linejoin:miter;"/>
   </g>
   <g id="patch_34">
    <path clip-path="url(#p4ed00ea023)" d="M 28.346457 138.897638 
C 32.105241 138.897638 35.710581 137.404257 38.368443 134.746395 
C 41.026304 132.088534 42.519685 128.483194 42.519685 124.724409 
C 42.519685 120.965625 41.026304 117.360285 38.368443 114.702424 
C 35.710581 112.044562 32.105241 110.551181 28.346457 110.551181 
C 24.587673 110.551181 20.982333 112.044562 18.324471 114.702424 
C 15.666609 117.360285 14.173228 120.965625 14.173228 124.724409 
C 14.173228 128.483194 15.666609 132.088534 18.324471 134.746395 
C 20.982333 137.404257 24.587673 138.897638 28.346457 138.897638 
z
" style="fill:#b2b2b2;stroke:#000000;stroke-linejoin:miter;"/>
   </g>
   <g id="patch_35">
    <path clip-path="url(#p4ed00ea023)" d="M 28.346457 138.897638 
C 32.105241 138.897638 35.710581 137.404257 38.368443 134.746395 
C 41.026304 132.088534 42.519685 128.483194 42.519685 124.724409 
C 42.519685 120.965625 41.026304 117.360285 38.368443 114.702424 
C 35.710581 112.044562 32.105241 110.551181 28.346457 110.551181 
C 24.587673 110.551181 20.982333 112.044562 18.324471 114.702424 
C 15.666609 117.360285 14.173228 120.965625 14.173228 124.724409 
C 14.173228 128.483194 15.666609 132.088534 18.324471 134.746395 
C 20.982333 137.404257 24.587673 138.897638 28.346457 138.897638 
z
" style="fill:none;stroke:#000000;stroke-linejoin:miter;"/>
   </g>
   <g id="patch_36">
    <path clip-path="url(#p4ed00ea023)" d="M 85.03937 138.897638 
C 88.798154 138.897638 92.403494 137.404257 95.061356 134.746395 
C 97.719218 132.088534 99.212598 128.483194 99.212598 124.724409 
C 99.212598 120.965625 97.719218 117.360285 95.061356 114.702424 
C 92.403494 112.044562 88.798154 110.551181 85.03937 110.551181 
C 81.280586 110.551181 77.675246 112.044562 75.017384 114.702424 
C 72.359522 117.360285 70.866142 120.965625 70.866142 124.724409 
C 70.866142 128.483194 72.359522 132.088534 75.017384 134.746395 
C 77.675246 137.404257 81.280586 138.897638 85.03937 138.897638 
z
" style="fill:#b2b2b2;stroke:#000000;stroke-linejoin:miter;"/>
   </g>
   <g id="patch_37">
    <path clip-path="url(#p4ed00ea023)" d="M 85.03937 138.897638 
C 88.798154 138.897638 92.403494 137.404257 95.061356 134.746395 
C 97.719218 132.088534 99.212598 128.483194 99.212598 124.724409 
C 99.212598 120.965625 97.719218 117.360285 95.061356 114.702424 
C 92.403494 112.044562 88.798154 110.551181 85.03937 110.551181 
C 81.280586 110.551181 77.675246 112.044562 75.017384 114.702424 
C 72.359522 117.360285 70.866142 120.965625 70.866142 124.724409 
C 70.866142 128.483194 72.359522 132.088534 75.017384 134.746395 
C 77.675246 137.404257 81.280586 138.897638 85.03937 138.897638 
z
" style="fill:none;stroke:#000000;stroke-linejoin:miter;"/>
   </g>
   <g id="patch_38">
    <path clip-path="url(#p4ed00ea023)" d="M 170.07874 138.897638 
C 173.837524 138.897638 177.442864 137.404257 180.100726 134.746395 
C 182.758588 132.088534 184.251969 128.483194 184.251969 124.724409 
C 184.251969 120.965625 182.758588 117.360285 180.100726 114.702424 
C 177.442864 112.044562 173.837524 110.551181 170.07874 110.551181 
C 166.319956 110.551181 162.714616 112.044562 160.056754 114.702424 
C 157.398893 117.360285 155.905512 120.965625 155.905512 124.724409 
C 155.905512 128.483194 157.398893 132.088534 160.056754 134.746395 
C 162.714616 137.404257 166.319956 138.897638 170.07874 138.897638 
z
" style="fill:#b2b2b2;stroke:#000000;stroke-linejoin:miter;"/>
   </g>
   <g id="patch_39">
    <path clip-path="url(#p4ed00ea023)" d="M 170.07874 138.897638 
C 173.837524 138.897638 177.442864 137.404257 180.100726 134.746395 
C 182.758588 132.088534 184.251969 128.483194 184.251969 124.724409 
C 184.251969 120.965625 182.758588 117.360285 180.100726 114.702424 
C 177.442864 112.044562 173.837524 110.551181 170.07874 110.551181 
C 166.319956 110.551181 162.714616 112.044562 160.056754 114.702424 
C 157.398893 117.360285 155.905512 120.965625 155.905512 124.724409 
C 155.905512 128.483194 157.398893 132.088534 160.056754 134.746395 
C 162.714616 137.404257 166.319956 138.897638 170.07874 138.897638 
z
" style="fill:none;stroke:#000000;stroke-linejoin:miter;"/>
   </g>
   <g id="patch_40">
    <path clip-path="url(#p4ed00ea023)" d="M 28.346457 195.590551 
C 32.105241 195.590551 35.710581 194.09717 38.368443 191.439309 
C 41.026304 188.781447 42.519685 185.176107 42.519685 181.417323 
C 42.519685 177.658539 41.026304 174.053199 38.368443 171.395337 
C 35.710581 168.737475 32.105241 167.244094 28.346457 167.244094 
C 24.587673 167.244094 20.982333 168.737475 18.324471 171.395337 
C 15.666609 174.053199 14.173228 177.658539 14.173228 181.417323 
C 14.173228 185.176107 15.666609 188.781447 18.324471 191.439309 
C 20.982333 194.09717 24.587673 195.590551 28.346457 195.590551 
z
" style="fill:#b2b2b2;stroke:#000000;stroke-linejoin:miter;"/>
   </g>
   <g id="patch_41">
    <path clip-path="url(#p4ed00ea023)" d="M 28.346457 195.590551 
C 32.105241 195.590551 35.710581 194.09717 38.368443 191.439309 
C 41.026304 188.781447 42.519685 185.176107 42.519685 181.417323 
C 42.519685 177.658539 41.026304 174.053199 38.368443 171.395337 
C 35.710581 168.737475 32.105241 167.244094 28.346457 167.244094 
C 24.587673 167.244094 20.982333 168.737475 18.324471 171.395337 
C 15.666609 174.053199 14.173228 177.658539 14.173228 181.417323 
C 14.173228 185.176107 15.666609 188.781447 18.324471 191.439309 
C 20.982333 194.09717 24.587673 195.590551 28.346457 195.590551 
z
" style="fill:none;stroke:#000000;stroke-linejoin:miter;"/>
   </g>
   <g id="patch_42">
    <path clip-path="url(#p4ed00ea023)" d="M 85.03937 195.590551 
C 88.798154 195.590551 92.403494 194.09717 95.061356 191.439309 
C 97.719218 188.781447 99.212598 185.176107 99.212598 181.417323 
C 99.212598 177.658539 97.719218 174.053199 95.061356 171.395337 
C 92.403494 168.737475 88.798154 167.244094 85.03937 167.244094 
C 81.280586 167.244094 77.675246 168.737475 75.017384 171.395337 
C 72.359522 174.053199 70.866142 177.658539 70.866142 181.417323 
C 70.866142 185.176107 72.359522 188.781447 75.017384 191.439309 
C 77.675246 194.09717 81.280586 195.590551 85.03937 195.590551 
z
" style="fill:#b2b2b2;stroke:#000000;stroke-linejoin:miter;"/>
   </g>
   <g id="patch_43">
    <path clip-path="url(#p4ed00ea023)" d="M 85.03937 195.590551 
C 88.798154 195.590551 92.403494 194.09717 95.061356 191.439309 
C 97.719218 188.781447 99.212598 185.176107 99.212598 181.417323 
C 99.212598 177.658539 97.719218 174.053199 95.061356 171.395337 
C 92.403494 168.737475 88.798154 167.244094 85.03937 167.244094 
C 81.280586 167.244094 77.675246 168.737475 75.017384 171.395337 
C 72.359522 174.053199 70.866142 177.658539 70.866142 181.417323 
C 70.866142 185.176107 72.359522 188.781447 75.017384 191.439309 
C 77.675246 194.09717 81.280586 195.590551 85.03937 195.590551 
z
" style="fill:none;stroke:#000000;stroke-linejoin:miter;"/>
   </g>
   <g id="patch_44">
    <path clip-path="url(#p4ed00ea023)" d="M 170.07874 238.110236 
C 173.837524 238.110236 177.442864 236.616855 180.100726 233.958994 
C 182.758588 231.301132 184.251969 227.695792 184.251969 223.937008 
C 184.251969 220.178224 182.758588 216.572884 180.100726 213.915022 
C 177.442864 211.25716 173.837524 209.76378 170.07874 209.76378 
C 166.319956 209.76378 162.714616 211.25716 160.056754 213.915022 
C 157.398893 216.572884 155.905512 220.178224 155.905512 223.937008 
C 155.905512 227.695792 157.398893 231.301132 160.056754 233.958994 
C 162.714616 236.616855 166.319956 238.110236 170.07874 238.110236 
z
" style="fill:#b2b2b2;stroke:#000000;stroke-linejoin:miter;"/>
   </g>
   <g id="patch_45">
    <path clip-path="url(#p4ed00ea023)" d="M 170.07874 238.110236 
C 173.837524 238.110236 177.442864 236.616855 180.100726 233.958994 
C 182.758588 231.301132 184.251969 227.695792 184.251969 223.937008 
C 184.251969 220.178224 182.758588 216.572884 180.100726 213.915022 
C 177.442864 211.25716 173.837524 209.76378 170.07874 209.76378 
C 166.319956 209.76378 162.714616 211.25716 160.056754 213.915022 
C 157.398893 216.572884 155.905512 220.178224 155.905512 223.937008 
C 155.905512 227.695792 157.398893 231.301132 160.056754 233.958994 
C 162.714616 236.616855 166.319956 238.110236 170.07874 238.110236 
z
" style="fill:none;stroke:#000000;stroke-linejoin:miter;"/>
   </g>
   <g id="patch_46">
    <path clip-path="url(#p4ed00ea023)" d="M 56.692913 238.110236 
C 60.451697 238.110236 64.057038 236.616855 66.714899 233.958994 
C 69.372761 231.301132 70.866142 227.695792 70.866142 223.937008 
C 70.866142 220.178224 69.372761 216.572884 66.714899 213.915022 
C 64.057038 211.25716 60.451697 209.76378 56.692913 209.76378 
C 52.934129 209.76378 49.328789 211.25716 46.670928 213.915022 
C 44.013066 216.572884 42.519685 220.178224 42.519685 223.937008 
C 42.519685 227.695792 44.013066 231.301132 46.670928 233.958994 
C 49.328789 236.616855 52.934129 238.110236 56.692913 238.110236 
z
" style="fill:#b2b2b2;stroke:#000000;stroke-linejoin:miter;"/>
   </g>
   <g id="patch_47">
    <path clip-path="url(#p4ed00ea023)" d="M 56.692913 238.110236 
C 60.451697 238.110236 64.057038 236.616855 66.714899 233.958994 
C 69.372761 231.301132 70.866142 227.695792 70.866142 223.937008 
C 70.866142 220.178224 69.372761 216.572884 66.714899 213.915022 
C 64.057038 211.25716 60.451697 209.76378 56.692913 209.76378 
C 52.934129 209.76378 49.328789 211.25716 46.670928 213.915022 
C 44.013066 216.572884 42.519685 220.178224 42.519685 223.937008 
C 42.519685 227.695792 44.013066 231.301132 46.670928 233.958994 
C 49.328789 236.616855 52.934129 238.110236 56.692913 238.110236 
z
" style="fill:none;stroke:#000000;stroke-linejoin:miter;"/>
   </g>
   <g id="patch_48">
    <path clip-path="url(#p4ed00ea023)" d="M 119.055118 238.110236 
C 122.813902 238.110236 126.419242 236.616855 129.077104 233.958994 
C 131.734966 231.301132 133.228346 227.695792 133.228346 223.937008 
C 133.228346 220.178224 131.734966 216.572884 129.077104 213.915022 
C 126.419242 211.25716 122.813902 209.76378 119.055118 209.76378 
C 115.296334 209.76378 111.690994 211.25716 109.033132 213.915022 
C 106.375271 216.572884 104.88189 220.178224 104.88189 223.937008 
C 104.88189 227.695792 106.375271 231.301132 109.033132 233.958994 
C 111.690994 236.616855 115.296334 238.110236 119.055118 238.110236 
z
" style="fill:#b2b2b2;stroke:#000000;stroke-linejoin:miter;"/>
   </g>
   <g id="patch_49">
    <path clip-path="url(#p4ed00ea023)" d="M 119.055118 238.110236 
C 122.813902 238.110236 126.419242 236.616855 129.077104 233.958994 
C 131.734966 231.301132 133.228346 227.695792 133.228346 223.937008 
C 133.228346 220.178224 131.734966 216.572884 129.077104 213.915022 
C 126.419242 211.25716 122.813902 209.76378 119.055118 209.76378 
C 115.296334 209.76378 111.690994 211.25716 109.033132 213.915022 
C 106.375271 216.572884 104.88189 220.178224 104.88189 223.937008 
C 104.88189 227.695792 106.375271 231.301132 109.033132 233.958994 
C 111.690994 236.616855 115.296334 238.110236 119.055118 238.110236 
z
" style="fill:none;stroke:#000000;stroke-linejoin:miter;"/>
   </g>
   <g id="patch_50">
    <path clip-path="url(#p4ed00ea023)" d="M 96.377953 96.377953 
C 100.136737 96.377953 103.742077 94.884572 106.399939 92.22671 
C 109.0578 89.568849 110.551181 85.963509 110.551181 82.204724 
C 110.551181 78.44594 109.0578 74.8406 106.399939 72.182739 
C 103.742077 69.524877 100.136737 68.031496 96.377953 68.031496 
C 92.619169 68.031496 89.013829 69.524877 86.355967 72.182739 
C 83.698105 74.8406 82.204724 78.44594 82.204724 82.204724 
C 82.204724 85.963509 83.698105 89.568849 86.355967 92.22671 
C 89.013829 94.884572 92.619169 96.377953 96.377953 96.377953 
z
" style="fill:none;stroke:#000000;stroke-linejoin:miter;"/>
   </g>
   <g id="patch_51">
    <path clip-path="url(#p4ed00ea023)" d="M 76.535433 53.858268 
C 80.294217 53.858268 83.899557 52.364887 86.557419 49.707025 
C 89.215281 47.049164 90.708661 43.443823 90.708661 39.685039 
C 90.708661 35.926255 89.215281 32.320915 86.557419 29.663053 
C 83.899557 27.005192 80.294217 25.511811 76.535433 25.511811 
C 72.776649 25.511811 69.171309 27.005192 66.513447 29.663053 
C 63.855585 32.320915 62.362205 35.926255 62.362205 39.685039 
C 62.362205 43.443823 63.855585 47.049164 66.513447 49.707025 
C 69.171309 52.364887 72.776649 53.858268 76.535433 53.858268 
z
" style="fill:none;stroke:#000000;stroke-linejoin:miter;"/>
   </g>
   <g id="patch_52">
    <path clip-path="url(#p4ed00ea023)" d="M 144.566929 189.92126 
C 148.325713 189.92126 151.931053 188.427879 154.588915 185.770017 
C 157.246777 183.112156 158.740157 179.506816 158.740157 175.748031 
C 158.740157 171.989247 157.246777 168.383907 154.588915 165.726046 
C 151.931053 163.068184 148.325713 161.574803 144.566929 161.574803 
C 140.808145 161.574803 137.202805 163.068184 134.544943 165.726046 
C 131.887082 168.383907 130.393701 171.989247 130.393701 175.748031 
C 130.393701 179.506816 131.887082 183.112156 134.544943 185.770017 
C 137.202805 188.427879 140.808145 189.92126 144.566929 189.92126 
z
" style="fill:none;stroke:#000000;stroke-linejoin:miter;"/>
   </g>
   <g id="matplotlib.axis_1"/>
   <g id="matplotlib.axis_2"/>
   <g id="text_1">
    <!-- $O$ -->
    <defs>
     <path d="M 72.59375 43.703125 
C 72.59375 60.125 61.796875 70.1875 47.796875 70.1875 
C 26.40625 70.1875 4.796875 47.28125 4.796875 24.28125 
C 4.796875 8.65625 15.203125 -2 29.703125 -2 
C 50.703125 -2 72.59375 19.8125 72.59375 43.703125 
z
M 30.296875 0.296875 
C 22.09375 0.296875 13.40625 6.265625 13.40625 21.796875 
C 13.40625 30.84375 16.703125 45.6875 24.90625 55.65625 
C 32.203125 64.421875 40.59375 68 47.296875 68 
C 56.09375 68 64.59375 61.625 64.59375 47.28125 
C 64.59375 38.421875 60.796875 24.578125 54.09375 15.125 
C 46.796875 4.96875 37.703125 0.296875 30.296875 0.296875 
z
" id="CMMI12-79"/>
    </defs>
    <g transform="translate(135.84192 25.665957)scale(0.12 -0.12)">
     <use transform="scale(0.996264)" xlink:href="#CMMI12-79"/>
    </g>
   </g>
   <g id="text_2">
    <!-- $D$ -->
    <defs>
     <path d="M 15.703125 7.375 
C 14.796875 3.890625 14.59375 2.890625 7.59375 2.890625 
C 5.703125 2.890625 4.703125 2.890625 4.703125 1.09375 
C 4.703125 0 5.296875 0 7.296875 0 
L 39 0 
C 59.203125 0 78.90625 20.8125 78.90625 43.015625 
C 78.90625 57.359375 70.296875 68 56 68 
L 23.90625 68 
C 22 68 21.09375 68 21.09375 66.109375 
C 21.09375 65.109375 22 65.109375 23.5 65.109375 
C 29.59375 65.109375 29.59375 64.3125 29.59375 63.21875 
C 29.59375 63.03125 29.59375 62.421875 29.203125 60.921875 
z
M 36.796875 61.421875 
C 37.703125 65.109375 38.09375 65.109375 42 65.109375 
L 53 65.109375 
C 62.40625 65.109375 71 60.03125 71 46.296875 
C 71 41.3125 69 24 59.296875 13.046875 
C 56.5 9.765625 48.90625 2.890625 37.40625 2.890625 
L 26 2.890625 
C 24.59375 2.890625 24.40625 2.890625 23.796875 3 
C 22.703125 3.09375 22.59375 3.296875 22.59375 4.09375 
C 22.59375 4.796875 22.796875 5.390625 23 6.28125 
z
" id="CMMI12-68"/>
    </defs>
    <g transform="translate(23.486804 71.020288)scale(0.12 -0.12)">
     <use transform="scale(0.996264)" xlink:href="#CMMI12-68"/>
    </g>
   </g>
   <g id="text_3">
    <!-- $M$ -->
    <defs>
     <path d="M 90.796875 60.71875 
C 91.703125 64.109375 91.90625 65.109375 99 65.109375 
C 100.90625 65.109375 101.796875 65.109375 101.796875 67 
C 101.796875 68 101.09375 68 99.203125 68 
L 87.203125 68 
C 84.703125 68 84.59375 67.90625 83.5 66.296875 
L 47 8.78125 
L 39.5 65.796875 
C 39.203125 68 39.09375 68 36.5 68 
L 24.09375 68 
C 22.203125 68 21.296875 68 21.296875 66.109375 
C 21.296875 65.109375 22.203125 65.109375 23.703125 65.109375 
C 29.796875 65.109375 29.796875 64.3125 29.796875 63.21875 
C 29.796875 63.03125 29.796875 62.421875 29.40625 60.921875 
L 16.59375 9.90625 
C 15.40625 5.109375 13.09375 2.90625 6.40625 2.90625 
C 6.09375 2.90625 4.90625 2.90625 4.90625 1.140625 
C 4.90625 0 5.796875 0 6.203125 0 
C 8.203125 0 13.296875 0 15.296875 0 
L 20.09375 0 
C 21.5 0 23.203125 0 24.59375 0 
C 25.296875 0 26.40625 0 26.40625 1.90625 
C 26.40625 2.8125 25.40625 2.90625 25 2.90625 
C 21.703125 2.90625 18.5 3.5 18.5 7.09375 
C 18.5 8.09375 18.5 8.1875 18.90625 9.578125 
L 32.703125 64.515625 
L 32.796875 64.515625 
L 41.09375 2.6875 
C 41.40625 0.296875 41.5 0 42.40625 0 
C 43.5 0 44 0.796875 44.5 1.703125 
L 84.703125 65.015625 
L 84.796875 65.015625 
L 70.296875 7.390625 
C 69.40625 3.90625 69.203125 2.90625 62.203125 2.90625 
C 60.296875 2.90625 59.296875 2.90625 59.296875 1.09375 
C 59.296875 0 60.203125 0 60.796875 0 
C 62.5 0 64.5 0 66.203125 0 
L 78 0 
C 79.703125 0 81.796875 0 83.5 0 
C 84.296875 0 85.40625 0 85.40625 1.90625 
C 85.40625 2.90625 84.5 2.90625 83 2.90625 
C 76.90625 2.90625 76.90625 3.65625 76.90625 4.59375 
C 76.90625 4.703125 76.90625 5.390625 77.09375 6.1875 
z
" id="CMMI12-77"/>
    </defs>
    <g transform="translate(164.416335 71.020288)scale(0.12 -0.12)">
     <use transform="scale(0.996264)" xlink:href="#CMMI12-77"/>
    </g>
   </g>
   <g id="text_4">
    <!-- $V$ -->
    <defs>
     <path d="M 61.90625 56.875 
C 65.296875 62.25 68.40625 64.625 73.5 65.03125 
C 74.5 65.125 75.296875 65.125 75.296875 66.90625 
C 75.296875 67.3125 75.09375 67.90625 74.203125 67.90625 
C 72.40625 67.90625 68.09375 67.90625 66.296875 67.90625 
C 63.40625 67.90625 60.40625 67.90625 57.59375 67.90625 
C 56.796875 67.90625 55.796875 67.90625 55.796875 66.03125 
C 55.796875 65.125 56.703125 65.03125 57.09375 65.03125 
C 60.796875 64.734375 61.203125 62.953125 61.203125 61.75 
C 61.203125 60.265625 59.796875 57.96875 59.703125 57.875 
L 28.296875 8.4375 
L 21.296875 62.015625 
C 21.296875 65 26.5 65 27.59375 65 
C 29.09375 65 30 65 30 66.90625 
C 30 67.90625 28.90625 67.90625 28.59375 67.90625 
C 26.90625 67.90625 24.90625 67.90625 23.203125 67.90625 
L 17.59375 67.90625 
C 10.296875 67.90625 7.296875 67.90625 7.203125 67.90625 
C 6.59375 67.90625 5.40625 67.90625 5.40625 66.09375 
C 5.40625 65 6.09375 65 7.703125 65 
C 12.796875 65 13.09375 64.09375 13.40625 61.625 
L 21.40625 0.375 
C 21.703125 -1.703125 21.703125 -2 23.09375 -2 
C 24.296875 -2 24.796875 -1.703125 25.796875 -0.125 
z
" id="CMMI12-86"/>
    </defs>
    <g transform="translate(24.934287 127.713201)scale(0.12 -0.12)">
     <use transform="scale(0.996264)" xlink:href="#CMMI12-86"/>
    </g>
   </g>
   <g id="text_5">
    <!-- $A$ -->
    <defs>
     <path d="M 17 10.796875 
C 13.5 4.90625 10.09375 2.90625 5.296875 2.90625 
C 4.203125 2.8125 3.40625 2.8125 3.40625 0.90625 
C 3.40625 0.375 3.90625 0 4.59375 0 
C 6.40625 0 10.90625 0 12.703125 0 
C 15.59375 0 18.796875 0 21.59375 0 
C 22.203125 0 23.40625 0 23.40625 1.90625 
C 23.40625 2.8125 22.59375 2.90625 22 2.90625 
C 19.703125 2.90625 17.796875 3.6875 17.796875 6.0625 
C 17.796875 7.4375 18.40625 8.53125 19.703125 10.703125 
L 27.296875 23.109375 
L 52.796875 23.109375 
C 52.90625 22.234375 52.90625 21.453125 53 20.5625 
C 53.296875 18 54.5 7.734375 54.5 5.875 
C 54.5 2.90625 49.40625 2.90625 47.796875 2.90625 
C 46.703125 2.90625 45.59375 2.90625 45.59375 1.09375 
C 45.59375 0 46.5 0 47.09375 0 
C 48.796875 0 50.796875 0 52.5 0 
L 58.203125 0 
C 64.296875 0 68.703125 0 68.796875 0 
C 69.5 0 70.59375 0 70.59375 1.90625 
C 70.59375 2.90625 69.703125 2.90625 68.203125 2.90625 
C 62.703125 2.90625 62.59375 3.8125 62.296875 6.78125 
L 56.203125 68.8125 
C 56 70.796875 55.59375 71 54.5 71 
C 53.5 71 52.90625 70.796875 52 69.296875 
z
M 29 26 
L 49.09375 59.671875 
L 52.5 26 
z
" id="CMMI12-65"/>
    </defs>
    <g transform="translate(80.651702 127.713201)scale(0.12 -0.12)">
     <use transform="scale(0.996264)" xlink:href="#CMMI12-65"/>
    </g>
   </g>
   <g id="text_6">
    <!-- $E$ -->
    <defs>
     <path d="M 69.5 23.265625 
C 69.59375 23.5625 69.90625 24.28125 69.90625 24.671875 
C 69.90625 25.171875 69.5 25.671875 68.90625 25.671875 
C 68.5 25.671875 68.296875 25.578125 68 25.265625 
C 67.796875 25.171875 67.796875 24.96875 66.90625 22.953125 
C 61 8.90625 56.703125 2.890625 40.703125 2.890625 
L 26.09375 2.890625 
C 24.703125 2.890625 24.5 2.890625 23.90625 3 
C 22.796875 3.09375 22.703125 3.296875 22.703125 4.09375 
C 22.703125 4.796875 22.90625 5.390625 23.09375 6.296875 
L 30 34 
L 39.90625 34 
C 47.703125 34 48.296875 32.28125 48.296875 29.28125 
C 48.296875 28.28125 48.296875 27.375 47.59375 24.375 
C 47.40625 23.96875 47.296875 23.5625 47.296875 23.265625 
C 47.296875 22.5625 47.796875 22.265625 48.40625 22.265625 
C 49.296875 22.265625 49.40625 22.953125 49.796875 24.359375 
L 55.5 47.53125 
C 55.5 48.015625 55.09375 48.515625 54.5 48.515625 
C 53.59375 48.515625 53.5 48.125 53.09375 46.71875 
C 51.09375 39.078125 49.09375 36.890625 40.203125 36.890625 
L 30.703125 36.890625 
L 36.90625 61.40625 
C 37.796875 64.90625 38 64.90625 42.09375 64.90625 
L 56.40625 64.90625 
C 68.703125 64.90625 71.203125 61.609375 71.203125 54.03125 
C 71.203125 53.921875 71.203125 51.140625 70.796875 47.84375 
C 70.703125 47.4375 70.59375 46.84375 70.59375 46.640625 
C 70.59375 45.84375 71.09375 45.546875 71.703125 45.546875 
C 72.40625 45.546875 72.796875 45.953125 73 47.734375 
L 75.09375 65.21875 
C 75.09375 65.546875 75.296875 66.609375 75.296875 66.828125 
C 75.296875 68 74.40625 68 72.59375 68 
L 23.796875 68 
C 21.90625 68 20.90625 68 20.90625 66.078125 
C 20.90625 64.90625 21.59375 64.90625 23.296875 64.90625 
C 29.5 64.90625 29.5 64.28125 29.5 63.3125 
C 29.5 62.8125 29.40625 62.40625 29.09375 61.3125 
L 15.59375 7.390625 
C 14.703125 3.890625 14.5 2.890625 7.5 2.890625 
C 5.59375 2.890625 4.59375 2.890625 4.59375 1.09375 
C 4.59375 0 5.203125 0 7.203125 0 
L 57.40625 0 
C 59.59375 0 59.703125 0.09375 60.40625 1.71875 
z
" id="CMMI12-69"/>
    </defs>
    <g transform="translate(165.746073 127.713201)scale(0.12 -0.12)">
     <use transform="scale(0.996264)" xlink:href="#CMMI12-69"/>
    </g>
   </g>
   <g id="text_7">
    <!-- $L$ -->
    <defs>
     <path d="M 36.703125 60.328125 
C 37.59375 64.109375 37.90625 65.109375 46.703125 65.109375 
C 49.40625 65.109375 50.09375 65.109375 50.09375 67 
C 50.09375 68 49 68 48.59375 68 
C 46.59375 68 44.296875 68 42.296875 68 
L 28.90625 68 
C 27 68 24.796875 68 22.90625 68 
C 22.09375 68 21 68 21 66.109375 
C 21 65.109375 21.90625 65.109375 23.40625 65.109375 
C 29.5 65.109375 29.5 64.3125 29.5 63.21875 
C 29.5 63.03125 29.5 62.421875 29.09375 60.921875 
L 15.59375 7.375 
C 14.703125 3.890625 14.5 2.890625 7.5 2.890625 
C 5.59375 2.890625 4.59375 2.890625 4.59375 1.09375 
C 4.59375 0 5.203125 0 7.203125 0 
L 52 0 
C 54.203125 0 54.296875 0.09375 55 1.890625 
L 62.703125 23.09375 
C 62.90625 23.59375 63.09375 24.1875 63.09375 24.484375 
C 63.09375 25.078125 62.59375 25.484375 62.09375 25.484375 
C 62 25.484375 61.5 25.484375 61.296875 25.078125 
C 61.09375 24.984375 61.09375 24.78125 60.296875 22.890625 
C 57.09375 14.140625 52.59375 2.890625 35.703125 2.890625 
L 26.09375 2.890625 
C 24.703125 2.890625 24.5 2.890625 23.90625 3 
C 22.796875 3.09375 22.703125 3.296875 22.703125 4.09375 
C 22.703125 4.796875 22.90625 5.390625 23.09375 6.265625 
z
" id="CMMI12-76"/>
    </defs>
    <g transform="translate(24.364205 184.406115)scale(0.12 -0.12)">
     <use transform="scale(0.996264)" xlink:href="#CMMI12-76"/>
    </g>
   </g>
   <g id="text_8">
    <!-- $P$ -->
    <defs>
     <path d="M 29.59375 31.609375 
L 46.40625 31.609375 
C 60.203125 31.609375 74 41.765625 74 53.140625 
C 74 60.90625 67.40625 68 54.796875 68 
L 23.90625 68 
C 22 68 21.09375 68 21.09375 66.109375 
C 21.09375 65.109375 22 65.109375 23.5 65.109375 
C 29.59375 65.109375 29.59375 64.3125 29.59375 63.21875 
C 29.59375 63.03125 29.59375 62.421875 29.203125 60.921875 
L 15.703125 7.375 
C 14.796875 3.890625 14.59375 2.890625 7.59375 2.890625 
C 5.703125 2.890625 4.703125 2.890625 4.703125 1.09375 
C 4.703125 0 5.59375 0 6.203125 0 
C 8.09375 0 10.09375 0 12 0 
L 23.703125 0 
C 25.59375 0 27.703125 0 29.59375 0 
C 30.40625 0 31.5 0 31.5 1.890625 
C 31.5 2.890625 30.59375 2.890625 29.09375 2.890625 
C 23.09375 2.890625 23 3.59375 23 4.578125 
C 23 5.078125 23.09375 5.765625 23.203125 6.265625 
z
M 36.796875 61.40625 
C 37.703125 65.109375 38.09375 65.109375 42 65.109375 
L 51.90625 65.109375 
C 59.40625 65.109375 65.59375 62.703125 65.59375 55.234375 
C 65.59375 52.640625 64.296875 44.171875 59.703125 39.59375 
C 58 37.796875 53.203125 34 44.09375 34 
L 30 34 
z
" id="CMMI12-80"/>
    </defs>
    <g transform="translate(81.266736 184.406115)scale(0.12 -0.12)">
     <use transform="scale(0.996264)" xlink:href="#CMMI12-80"/>
    </g>
   </g>
   <g id="text_9">
    <!-- $C$ -->
    <defs>
     <path d="M 74.703125 69.109375 
C 74.703125 70 74 70 73.796875 70 
C 73.59375 70 73.203125 70 72.40625 69 
L 65.5 60.65625 
C 62 66.625 56.5 70 49 70 
C 27.40625 70 5 48.25 5 24.921875 
C 5 8.328125 16.703125 -2 31.296875 -2 
C 39.296875 -2 46.296875 1.375 52.09375 6.25 
C 60.796875 13.484375 63.40625 23.140625 63.40625 23.921875 
C 63.40625 24.8125 62.59375 24.8125 62.296875 24.8125 
C 61.40625 24.8125 61.296875 24.21875 61.09375 23.8125 
C 56.5 8.34375 43 0.890625 33 0.890625 
C 22.40625 0.890625 13.203125 7.640625 13.203125 21.734375 
C 13.203125 24.921875 14.203125 42.1875 25.5 55.1875 
C 31 61.546875 40.40625 67.109375 49.90625 67.109375 
C 60.90625 67.109375 65.796875 58.078125 65.796875 47.9375 
C 65.796875 45.359375 65.5 43.1875 65.5 42.78125 
C 65.5 41.890625 66.5 41.890625 66.796875 41.890625 
C 67.90625 41.890625 68 41.984375 68.40625 43.765625 
z
" id="CMMI12-67"/>
    </defs>
    <g transform="translate(165.891219 226.9258)scale(0.12 -0.12)">
     <use transform="scale(0.996264)" xlink:href="#CMMI12-67"/>
    </g>
   </g>
   <g id="text_10">
    <!-- $B$ -->
    <defs>
     <path d="M 36.59375 61.265625 
C 37.5 65 37.90625 65 41.796875 65 
L 54.796875 65 
C 66.09375 65 66.09375 55.375 66.09375 54.453125 
C 66.09375 46.34375 58 36 44.796875 36 
L 30.40625 36 
z
M 53.5 35.546875 
C 64.40625 37.53125 74.296875 45.09375 74.296875 54.265625 
C 74.296875 62.03125 67.40625 68 56.09375 68 
L 24 68 
C 22.09375 68 21.203125 68 21.203125 66.03125 
C 21.203125 65 22.09375 65 23.59375 65 
C 29.703125 65 29.703125 64.25 29.703125 63.1875 
C 29.703125 63 29.703125 62.390625 29.296875 60.890625 
L 15.796875 7.375 
C 14.90625 3.890625 14.703125 2.890625 7.703125 2.890625 
C 5.796875 2.890625 4.796875 2.890625 4.796875 1.09375 
C 4.796875 0 5.40625 0 7.40625 0 
L 41.703125 0 
C 57 0 68.796875 11.546875 68.796875 21.609375 
C 68.796875 29.78125 61.59375 34.75 53.5 35.546875 
z
M 39.296875 2.890625 
L 25.796875 2.890625 
C 24.40625 2.890625 24.203125 2.890625 23.59375 3 
C 22.5 3.09375 22.40625 3.296875 22.40625 4.078125 
C 22.40625 4.765625 22.59375 5.359375 22.796875 6.234375 
L 29.796875 34 
L 48.59375 34 
C 60.40625 34 60.40625 23.171875 60.40625 22.390625 
C 60.40625 12.9375 51.703125 2.890625 39.296875 2.890625 
z
" id="CMMI12-66"/>
    </defs>
    <g transform="translate(52.246438 226.9258)scale(0.12 -0.12)">
     <use transform="scale(0.996264)" xlink:href="#CMMI12-66"/>
    </g>
   </g>
   <g id="text_11">
    <!-- $R$ -->
    <defs>
     <path d="M 36.796875 61.3125 
C 37.703125 65 38.09375 65 42 65 
L 49.203125 65 
C 57.796875 65 64.203125 62.421875 64.203125 54.671875 
C 64.203125 49.609375 61.59375 35 41.5 35 
L 30.203125 35 
z
M 50.703125 33.890625 
C 63.09375 36.578125 72.796875 44.546875 72.796875 53.09375 
C 72.796875 60.84375 64.90625 68 51 68 
L 23.90625 68 
C 21.90625 68 21 68 21 66.03125 
C 21 65 21.703125 65 23.59375 65 
C 29.59375 65 29.59375 64.25 29.59375 63.203125 
C 29.59375 63.015625 29.59375 62.40625 29.203125 60.921875 
L 15.703125 7.484375 
C 14.796875 4 14.59375 3 7.703125 3 
C 5.40625 3 4.703125 3 4.703125 1.109375 
C 4.703125 0.109375 5.796875 0.109375 6.09375 0.109375 
C 7.90625 0.109375 10 0.109375 11.90625 0.109375 
L 23.703125 0.109375 
C 25.5 0.109375 27.59375 0.109375 29.40625 0.109375 
C 30.203125 0.109375 31.296875 0.109375 31.296875 2 
C 31.296875 3 30.40625 3 28.90625 3 
C 22.796875 3 22.796875 3.796875 22.796875 4.78125 
C 22.796875 4.890625 22.796875 5.578125 23 6.359375 
L 29.703125 33 
L 41.703125 33 
C 51.203125 33 53 27.046875 53 23.78125 
C 53 22.296875 52 18.421875 51.296875 15.84375 
C 50.203125 11.296875 49.90625 10.1875 49.90625 8.3125 
C 49.90625 1.28125 55.703125 -2 62.40625 -2 
C 70.5 -2 74 7.828125 74 9.234375 
C 74 9.921875 73.5 10.21875 72.90625 10.21875 
C 72.09375 10.21875 71.90625 9.625 71.703125 8.828125 
C 69.296875 1.78125 65.203125 0 62.703125 0 
C 60.203125 0 58.59375 1.09375 58.59375 5.5625 
C 58.59375 7.953125 59.796875 17 59.90625 17.5 
C 60.40625 21.171875 60.40625 21.5625 60.40625 22.375 
C 60.40625 29.625 54.5 32.703125 50.703125 33.890625 
z
" id="CMMI12-82"/>
    </defs>
    <g transform="translate(114.600069 226.9258)scale(0.12 -0.12)">
     <use transform="scale(0.996264)" xlink:href="#CMMI12-82"/>
    </g>
   </g>
   <g id="text_12">
    <!-- $U_0$ -->
    <defs>
     <path d="M 50.59375 23.03125 
C 47.09375 9.078125 35.5 0.890625 26.09375 0.890625 
C 18.90625 0.890625 14 5.671875 14 13.921875 
C 14 14.3125 14 17.296875 15.09375 21.671875 
L 24.90625 60.734375 
C 25.796875 64.109375 26 65.109375 33.09375 65.109375 
C 34.90625 65.109375 35.90625 65.109375 35.90625 66.90625 
C 35.90625 68 35 68 34.40625 68 
C 32.59375 68 30.5 68 28.59375 68 
L 16.796875 68 
C 14.90625 68 12.796875 68 10.90625 68 
C 10.203125 68 9 68 9 66.109375 
C 9 65.109375 9.703125 65.109375 11.59375 65.109375 
C 17.59375 65.109375 17.59375 64.3125 17.59375 63.21875 
C 17.59375 62.625 16.90625 59.75 16.40625 58.046875 
L 7.703125 23.25 
C 7.40625 22.15625 6.796875 19.46875 6.796875 16.796875 
C 6.796875 5.84375 14.703125 -2 25.59375 -2 
C 35.703125 -2 46.90625 6 52 18.703125 
C 52.703125 20.390625 53.59375 23.90625 54.203125 26.59375 
C 55.203125 30.203125 57.296875 39 58 41.59375 
L 61.796875 56.609375 
C 63.09375 61.8125 63.90625 65.109375 72.703125 65.109375 
C 73.5 65.203125 73.90625 66 73.90625 66.90625 
C 73.90625 68 73 68 72.59375 68 
C 71.203125 68 69.40625 68 68 68 
L 63.296875 68 
C 57.09375 68 53.90625 68 53.796875 68 
C 53.203125 68 52 68 52 66.109375 
C 52 65.109375 52.796875 65.109375 53.5 65.109375 
C 59.5 65.109375 59.90625 62.8125 59.90625 61.015625 
C 59.90625 60.125 59.90625 59.8125 59.5 58.421875 
z
" id="CMMI12-85"/>
     <path d="M 42 31.640625 
C 42 37.75 41.90625 48.125 37.703125 56.109375 
C 34 63.109375 28.09375 65.59375 22.90625 65.59375 
C 18.09375 65.59375 12 63.40625 8.203125 56.203125 
C 4.203125 48.71875 3.796875 39.4375 3.796875 31.640625 
C 3.796875 25.953125 3.90625 17.28125 7 9.671875 
C 11.296875 -0.609375 19 -2 22.90625 -2 
C 27.5 -2 34.5 -0.109375 38.59375 9.375 
C 41.59375 16.28125 42 24.359375 42 31.640625 
z
M 22.90625 -0.40625 
C 16.5 -0.40625 12.703125 5.078125 11.296875 12.6875 
C 10.203125 18.5625 10.203125 27.15625 10.203125 32.75 
C 10.203125 40.4375 10.203125 46.828125 11.5 52.921875 
C 13.40625 61.390625 19 64 22.90625 64 
C 27 64 32.296875 61.296875 34.203125 53.125 
C 35.5 47.4375 35.59375 40.734375 35.59375 32.75 
C 35.59375 26.25 35.59375 18.265625 34.40625 12.375 
C 32.296875 1.484375 26.40625 -0.40625 22.90625 -0.40625 
z
" id="CMR17-48"/>
    </defs>
    <g transform="translate(90.28574 85.193516)scale(0.12 -0.12)">
     <use transform="translate(0 14.943915)scale(0.996264)" xlink:href="#CMMI12-85"/>
     <use transform="translate(66.252119 0)scale(0.697382)" xlink:href="#CMR17-48"/>
    </g>
   </g>
   <g id="text_13">
    <!-- $U_1$ -->
    <defs>
     <path d="M 26.59375 63.40625 
C 26.59375 65.5 26.5 65.5 25.09375 65.5 
C 21.203125 61.1875 15.296875 59.796875 9.703125 59.796875 
C 9.40625 59.796875 8.90625 59.796875 8.796875 59.5 
C 8.703125 59.296875 8.703125 59.09375 8.703125 57 
C 11.796875 57 17 57.59375 21 59.984375 
L 21 7.203125 
C 21 3.6875 20.796875 2.5 12.203125 2.5 
L 9.203125 2.5 
L 9.203125 0 
C 14 0 19 0 23.796875 0 
C 28.59375 0 33.59375 0 38.40625 0 
L 38.40625 2.5 
L 35.40625 2.5 
C 26.796875 2.5 26.59375 3.59375 26.59375 7.15625 
z
" id="CMR17-49"/>
    </defs>
    <g transform="translate(70.44322 42.673831)scale(0.12 -0.12)">
     <use transform="translate(0 14.943915)scale(0.996264)" xlink:href="#CMMI12-85"/>
     <use transform="translate(66.252119 0)scale(0.697382)" xlink:href="#CMR17-49"/>
    </g>
   </g>
   <g id="text_14">
    <!-- $U_3$ -->
    <defs>
     <path d="M 22.09375 33.703125 
C 31 33.703125 34.90625 25.96875 34.90625 17.03125 
C 34.90625 5 28.5 0.390625 22.703125 0.390625 
C 17.40625 0.390625 8.796875 3.03125 6.09375 10.828125 
C 6.59375 10.625 7.09375 10.625 7.59375 10.625 
C 10 10.625 11.796875 12.21875 11.796875 14.8125 
C 11.796875 17.703125 9.59375 19 7.59375 19 
C 5.90625 19 3.296875 18.203125 3.296875 14.46875 
C 3.296875 5.234375 12.296875 -2 22.90625 -2 
C 34 -2 42.5 6.71875 42.5 16.953125 
C 42.5 26.671875 34.5 33.703125 25 34.796875 
C 32.59375 36.375 39.90625 43.0625 39.90625 52.015625 
C 39.90625 59.6875 32 65.296875 23 65.296875 
C 13.90625 65.296875 5.90625 59.828125 5.90625 52.015625 
C 5.90625 48.59375 8.5 48 9.796875 48 
C 11.90625 48 13.703125 49.296875 13.703125 51.890625 
C 13.703125 54.46875 11.90625 55.765625 9.796875 55.765625 
C 9.40625 55.765625 8.90625 55.765625 8.5 55.578125 
C 11.40625 61.859375 19.296875 63 22.796875 63 
C 26.296875 63 32.90625 61.328125 32.90625 51.875 
C 32.90625 49.109375 32.5 44.1875 29.09375 39.84375 
C 26.09375 36 22.703125 36 19.40625 35.6875 
C 18.90625 35.6875 16.59375 35.453125 16.203125 35.453125 
C 15.5 35.359375 15.09375 35.265625 15.09375 34.5 
C 15.09375 33.796875 15.203125 33.703125 17.203125 33.703125 
z
" id="CMR17-51"/>
    </defs>
    <g transform="translate(138.474716 178.736824)scale(0.12 -0.12)">
     <use transform="translate(0 14.943915)scale(0.996264)" xlink:href="#CMMI12-85"/>
     <use transform="translate(66.252119 0)scale(0.697382)" xlink:href="#CMR17-51"/>
    </g>
   </g>
  </g>
 </g>
 <defs>
  <clipPath id="p4ed00ea023">
   <rect height="246.614173" width="198.425197" x="0" y="0"/>
  </clipPath>
 </defs>
</svg>
