<?xml version="1.0" encoding="utf-8" standalone="no"?>
<!DOCTYPE svg PUBLIC "-//W3C//DTD SVG 1.1//EN"
  "http://www.w3.org/Graphics/SVG/1.1/DTD/svg11.dtd">
<!-- Created with matplotlib (https://matplotlib.org/) -->
<svg height="93.543307pt" version="1.1" viewBox="0 0 113.385827 93.543307" width="113.385827pt" xmlns="http://www.w3.org/2000/svg" xmlns:xlink="http://www.w3.org/1999/xlink">
 <defs>
  <style type="text/css">
*{stroke-linecap:butt;stroke-linejoin:round;}
  </style>
 </defs>
 <g id="figure_1">
  <g id="patch_1">
   <path d="M 0 93.543307 
L 113.385827 93.543307 
L 113.385827 0 
L 0 0 
z
" style="fill:#ffffff;"/>
  </g>
  <g id="axes_1">
   <g id="patch_2">
    <path clip-path="url(#pb2b816a82e)" d="M 38.854791 26.34206 
L 42.863585 20.328868 
L 43.865784 21.331067 
L 51.853871 13.34298 
L 51.853871 13.34298 
L 43.865784 21.331067 
L 44.867982 22.333265 
z
" style="stroke:#000000;stroke-linejoin:miter;stroke-width:0.5;"/>
   </g>
   <g id="patch_3">
    <path clip-path="url(#pb2b816a82e)" d="M 13.971268 65.204054 
L 12.052647 58.236429 
L 13.466368 58.135449 
L 11.540543 31.173899 
L 11.540543 31.173899 
L 13.466368 58.135449 
L 14.880089 58.034469 
z
" style="stroke:#000000;stroke-linejoin:miter;stroke-width:0.5;"/>
   </g>
   <g id="patch_4">
    <path clip-path="url(#pb2b816a82e)" d="M 34.015748 28.346457 
L 26.929134 29.76378 
L 26.929134 28.346457 
L 14.173228 28.346457 
L 14.173228 28.346457 
L 26.929134 28.346457 
L 26.929134 26.929134 
z
" style="stroke:#000000;stroke-linejoin:miter;stroke-width:0.5;"/>
   </g>
   <g id="patch_5">
    <path clip-path="url(#pb2b816a82e)" d="M 24.244119 47.889715 
L 22.342581 54.862021 
L 21.074889 54.228175 
L 15.44092 65.496112 
L 15.44092 65.496112 
L 21.074889 54.228175 
L 19.807197 53.594329 
z
" style="stroke:#000000;stroke-dasharray:0.5,0.825;stroke-dashoffset:0;stroke-linejoin:miter;stroke-width:0.5;"/>
   </g>
   <g id="patch_6">
    <path clip-path="url(#pb2b816a82e)" d="M 68.652655 24.447954 
L 64.004334 29.98167 
L 63.118939 28.874927 
L 16.386715 66.260707 
L 16.386715 66.260707 
L 63.118939 28.874927 
L 62.233545 27.768184 
z
" style="stroke:#000000;stroke-dasharray:0.5,0.825;stroke-dashoffset:0;stroke-linejoin:miter;stroke-width:0.5;"/>
   </g>
   <g id="patch_7">
    <path clip-path="url(#pb2b816a82e)" d="M 56.692913 68.031496 
L 49.606299 69.448819 
L 49.606299 68.031496 
L 17.007874 68.031496 
L 17.007874 68.031496 
L 49.606299 68.031496 
L 49.606299 66.614173 
z
" style="stroke:#000000;stroke-dasharray:0.5,0.825;stroke-dashoffset:0;stroke-linejoin:miter;stroke-width:0.5;"/>
   </g>
   <g id="patch_8">
    <path clip-path="url(#pb2b816a82e)" d="M 58.121181 65.570334 
L 53.374655 60.120619 
L 54.605236 59.41743 
L 38.256772 30.807618 
L 38.256772 30.807618 
L 54.605236 59.41743 
L 55.835817 58.714241 
z
" style="stroke:#000000;stroke-dasharray:0.5,0.825;stroke-dashoffset:0;stroke-linejoin:miter;stroke-width:0.5;"/>
   </g>
   <g id="patch_9">
    <path clip-path="url(#pb2b816a82e)" d="M 68.070064 23.143178 
L 61.312878 25.706249 
L 61.079871 24.30821 
L 39.646471 27.880444 
L 39.646471 27.880444 
L 61.079871 24.30821 
L 60.846865 22.910172 
z
" style="stroke:#000000;stroke-dasharray:0.5,0.825;stroke-dashoffset:0;stroke-linejoin:miter;stroke-width:0.5;"/>
   </g>
   <g id="patch_10">
    <path clip-path="url(#pb2b816a82e)" d="M 16.888326 67.216967 
L 23.268807 63.823094 
L 23.676072 65.180643 
L 68.151044 51.838151 
L 68.151044 51.838151 
L 23.676072 65.180643 
L 24.083337 66.538192 
z
" style="stroke:#000000;stroke-linejoin:miter;stroke-width:0.5;"/>
   </g>
   <g id="patch_11">
    <path clip-path="url(#pb2b816a82e)" d="M 39.208961 29.918835 
L 45.89157 32.670498 
L 45.105381 33.849781 
L 68.507574 49.451244 
L 68.507574 49.451244 
L 45.105381 33.849781 
L 44.319192 35.029065 
z
" style="stroke:#000000;stroke-linejoin:miter;stroke-width:0.5;"/>
   </g>
   <g id="patch_12">
    <path clip-path="url(#pb2b816a82e)" d="M 70.866142 25.511811 
L 72.283465 32.598425 
L 70.866142 32.598425 
L 70.866142 48.188976 
L 70.866142 48.188976 
L 70.866142 32.598425 
L 69.448819 32.598425 
z
" style="stroke:#000000;stroke-dasharray:0.5,0.825;stroke-dashoffset:0;stroke-linejoin:miter;stroke-width:0.5;"/>
   </g>
   <g id="patch_13">
    <path clip-path="url(#pb2b816a82e)" d="M 72.636931 48.810136 
L 75.95716 42.391025 
L 77.063904 43.27642 
L 91.772518 24.890652 
L 91.772518 24.890652 
L 77.063904 43.27642 
L 78.170647 44.161814 
z
" style="stroke:#000000;stroke-linejoin:miter;stroke-width:0.5;"/>
   </g>
   <g id="patch_14">
    <path clip-path="url(#pb2b816a82e)" d="M 72.133834 53.559006 
L 76.570756 59.263621 
L 75.303064 59.897467 
L 80.937032 71.165403 
L 80.937032 71.165403 
L 75.303064 59.897467 
L 74.035372 60.531313 
z
" style="stroke:#000000;stroke-linejoin:miter;stroke-width:0.5;"/>
   </g>
   <g id="patch_15">
    <path clip-path="url(#pb2b816a82e)" d="M 94.00932 25.473243 
L 96.572391 32.230429 
L 95.174352 32.463436 
L 98.746586 53.896836 
L 98.746586 53.896836 
L 95.174352 32.463436 
L 93.776314 32.696442 
z
" style="stroke:#000000;stroke-linejoin:miter;stroke-width:0.5;"/>
   </g>
   <g id="patch_16">
    <path clip-path="url(#pb2b816a82e)" d="M 84.209122 71.69639 
L 88.217916 65.683199 
L 89.220115 66.685397 
L 97.208201 58.697311 
L 97.208201 58.697311 
L 89.220115 66.685397 
L 90.222313 67.687596 
z
" style="stroke:#000000;stroke-linejoin:miter;stroke-width:0.5;"/>
   </g>
   <g id="patch_17">
    <path clip-path="url(#pb2b816a82e)" d="M 13.153279 30.524092 
L 18.778836 35.060832 
L 17.690018 35.96818 
L 23.697115 43.176696 
L 23.697115 43.176696 
L 17.690018 35.96818 
L 16.601201 36.875528 
z
" style="stroke:#000000;stroke-dasharray:0.5,0.825;stroke-dashoffset:0;stroke-linejoin:miter;stroke-width:0.5;"/>
   </g>
   <g id="patch_18">
    <path clip-path="url(#pb2b816a82e)" d="M 30.047244 77.102362 
L 33.165354 70.582677 
L 34.299213 71.433071 
L 69.165354 24.944882 
L 69.165354 24.944882 
L 34.299213 71.433071 
L 35.433071 72.283465 
z
" style="stroke:#000000;stroke-dasharray:0.5,0.825;stroke-dashoffset:0;stroke-linejoin:miter;stroke-width:0.5;"/>
   </g>
   <g id="patch_19">
    <path clip-path="url(#pb2b816a82e)" d="M 31.010438 78.401358 
L 37.186031 74.647566 
L 37.670391 75.979557 
L 56.863578 69.000217 
L 56.863578 69.000217 
L 37.670391 75.979557 
L 38.154752 77.311548 
z
" style="stroke:#000000;stroke-dasharray:0.5,0.825;stroke-dashoffset:0;stroke-linejoin:miter;stroke-width:0.5;"/>
   </g>
   <g id="patch_20">
    <path clip-path="url(#pb2b816a82e)" d="M 11.338583 31.181102 
C 12.090339 31.181102 12.811408 30.882426 13.34298 30.350854 
C 13.874552 29.819282 14.173228 29.098214 14.173228 28.346457 
C 14.173228 27.5947 13.874552 26.873632 13.34298 26.34206 
C 12.811408 25.810487 12.090339 25.511811 11.338583 25.511811 
C 10.586826 25.511811 9.865758 25.810487 9.334186 26.34206 
C 8.802613 26.873632 8.503937 27.5947 8.503937 28.346457 
C 8.503937 29.098214 8.802613 29.819282 9.334186 30.350854 
C 9.865758 30.882426 10.586826 31.181102 11.338583 31.181102 
z
" style="stroke:#000000;stroke-linejoin:miter;"/>
   </g>
   <g id="patch_21">
    <path clip-path="url(#pb2b816a82e)" d="M 14.173228 70.866142 
C 14.924985 70.866142 15.646053 70.567466 16.177626 70.035893 
C 16.709198 69.504321 17.007874 68.783253 17.007874 68.031496 
C 17.007874 67.279739 16.709198 66.558671 16.177626 66.027099 
C 15.646053 65.495527 14.924985 65.19685 14.173228 65.19685 
C 13.421472 65.19685 12.700404 65.495527 12.168831 66.027099 
C 11.637259 66.558671 11.338583 67.279739 11.338583 68.031496 
C 11.338583 68.783253 11.637259 69.504321 12.168831 70.035893 
C 12.700404 70.567466 13.421472 70.866142 14.173228 70.866142 
z
" style="stroke:#000000;stroke-linejoin:miter;"/>
   </g>
   <g id="patch_22">
    <path clip-path="url(#pb2b816a82e)" d="M 36.850394 31.181102 
C 37.602151 31.181102 38.323219 30.882426 38.854791 30.350854 
C 39.386363 29.819282 39.685039 29.098214 39.685039 28.346457 
C 39.685039 27.5947 39.386363 26.873632 38.854791 26.34206 
C 38.323219 25.810487 37.602151 25.511811 36.850394 25.511811 
C 36.098637 25.511811 35.377569 25.810487 34.845997 26.34206 
C 34.314424 26.873632 34.015748 27.5947 34.015748 28.346457 
C 34.015748 29.098214 34.314424 29.819282 34.845997 30.350854 
C 35.377569 30.882426 36.098637 31.181102 36.850394 31.181102 
z
" style="stroke:#000000;stroke-linejoin:miter;"/>
   </g>
   <g id="patch_23">
    <path clip-path="url(#pb2b816a82e)" d="M 70.866142 53.858268 
C 71.617899 53.858268 72.338967 53.559592 72.870539 53.028019 
C 73.402111 52.496447 73.700787 51.775379 73.700787 51.023622 
C 73.700787 50.271865 73.402111 49.550797 72.870539 49.019225 
C 72.338967 48.487653 71.617899 48.188976 70.866142 48.188976 
C 70.114385 48.188976 69.393317 48.487653 68.861745 49.019225 
C 68.330172 49.550797 68.031496 50.271865 68.031496 51.023622 
C 68.031496 51.775379 68.330172 52.496447 68.861745 53.028019 
C 69.393317 53.559592 70.114385 53.858268 70.866142 53.858268 
z
" style="stroke:#000000;stroke-linejoin:miter;"/>
   </g>
   <g id="patch_24">
    <path clip-path="url(#pb2b816a82e)" d="M 93.543307 25.511811 
C 94.295064 25.511811 95.016132 25.213135 95.547704 24.681563 
C 96.079277 24.14999 96.377953 23.428922 96.377953 22.677165 
C 96.377953 21.925409 96.079277 21.204341 95.547704 20.672768 
C 95.016132 20.141196 94.295064 19.84252 93.543307 19.84252 
C 92.79155 19.84252 92.070482 20.141196 91.53891 20.672768 
C 91.007338 21.204341 90.708661 21.925409 90.708661 22.677165 
C 90.708661 23.428922 91.007338 24.14999 91.53891 24.681563 
C 92.070482 25.213135 92.79155 25.511811 93.543307 25.511811 
z
" style="stroke:#000000;stroke-linejoin:miter;"/>
   </g>
   <g id="patch_25">
    <path clip-path="url(#pb2b816a82e)" d="M 82.204724 76.535433 
C 82.956481 76.535433 83.677549 76.236757 84.209122 75.705185 
C 84.740694 75.173612 85.03937 74.452544 85.03937 73.700787 
C 85.03937 72.949031 84.740694 72.227963 84.209122 71.69639 
C 83.677549 71.164818 82.956481 70.866142 82.204724 70.866142 
C 81.452968 70.866142 80.7319 71.164818 80.200327 71.69639 
C 79.668755 72.227963 79.370079 72.949031 79.370079 73.700787 
C 79.370079 74.452544 79.668755 75.173612 80.200327 75.705185 
C 80.7319 76.236757 81.452968 76.535433 82.204724 76.535433 
z
" style="stroke:#000000;stroke-linejoin:miter;"/>
   </g>
   <g id="patch_26">
    <path clip-path="url(#pb2b816a82e)" d="M 99.212598 59.527559 
C 99.964355 59.527559 100.685423 59.228883 101.216996 58.697311 
C 101.748568 58.165738 102.047244 57.44467 102.047244 56.692913 
C 102.047244 55.941157 101.748568 55.220089 101.216996 54.688516 
C 100.685423 54.156944 99.964355 53.858268 99.212598 53.858268 
C 98.460842 53.858268 97.739774 54.156944 97.208201 54.688516 
C 96.676629 55.220089 96.377953 55.941157 96.377953 56.692913 
C 96.377953 57.44467 96.676629 58.165738 97.208201 58.697311 
C 97.739774 59.228883 98.460842 59.527559 99.212598 59.527559 
z
" style="stroke:#000000;stroke-linejoin:miter;"/>
   </g>
   <g id="patch_27">
    <path clip-path="url(#pb2b816a82e)" d="M 28.346457 82.204724 
C 29.098214 82.204724 29.819282 81.906048 30.350854 81.374476 
C 30.882426 80.842904 31.181102 80.121836 31.181102 79.370079 
C 31.181102 78.618322 30.882426 77.897254 30.350854 77.365682 
C 29.819282 76.834109 29.098214 76.535433 28.346457 76.535433 
C 27.5947 76.535433 26.873632 76.834109 26.34206 77.365682 
C 25.810487 77.897254 25.511811 78.618322 25.511811 79.370079 
C 25.511811 80.121836 25.810487 80.842904 26.34206 81.374476 
C 26.873632 81.906048 27.5947 82.204724 28.346457 82.204724 
z
" style="stroke:#000000;stroke-linejoin:miter;"/>
   </g>
   <g id="patch_28">
    <path clip-path="url(#pb2b816a82e)" d="M 25.511811 48.188976 
C 26.263568 48.188976 26.984636 47.8903 27.516208 47.358728 
C 28.047781 46.827156 28.346457 46.106088 28.346457 45.354331 
C 28.346457 44.602574 28.047781 43.881506 27.516208 43.349934 
C 26.984636 42.818361 26.263568 42.519685 25.511811 42.519685 
C 24.760054 42.519685 24.038986 42.818361 23.507414 43.349934 
C 22.975842 43.881506 22.677165 44.602574 22.677165 45.354331 
C 22.677165 46.106088 22.975842 46.827156 23.507414 47.358728 
C 24.038986 47.8903 24.760054 48.188976 25.511811 48.188976 
z
" style="fill:none;stroke:#000000;stroke-linejoin:miter;stroke-width:0.5;"/>
   </g>
   <g id="patch_29">
    <path clip-path="url(#pb2b816a82e)" d="M 70.866142 25.511811 
C 71.617899 25.511811 72.338967 25.213135 72.870539 24.681563 
C 73.402111 24.14999 73.700787 23.428922 73.700787 22.677165 
C 73.700787 21.925409 73.402111 21.204341 72.870539 20.672768 
C 72.338967 20.141196 71.617899 19.84252 70.866142 19.84252 
C 70.114385 19.84252 69.393317 20.141196 68.861745 20.672768 
C 68.330172 21.204341 68.031496 21.925409 68.031496 22.677165 
C 68.031496 23.428922 68.330172 24.14999 68.861745 24.681563 
C 69.393317 25.213135 70.114385 25.511811 70.866142 25.511811 
z
" style="fill:none;stroke:#000000;stroke-linejoin:miter;stroke-width:0.5;"/>
   </g>
   <g id="patch_30">
    <path clip-path="url(#pb2b816a82e)" d="M 59.527559 70.866142 
C 60.279316 70.866142 61.000384 70.567466 61.531956 70.035893 
C 62.063529 69.504321 62.362205 68.783253 62.362205 68.031496 
C 62.362205 67.279739 62.063529 66.558671 61.531956 66.027099 
C 61.000384 65.495527 60.279316 65.19685 59.527559 65.19685 
C 58.775802 65.19685 58.054734 65.495527 57.523162 66.027099 
C 56.99159 66.558671 56.692913 67.279739 56.692913 68.031496 
C 56.692913 68.783253 56.99159 69.504321 57.523162 70.035893 
C 58.054734 70.567466 58.775802 70.866142 59.527559 70.866142 
z
" style="fill:none;stroke:#000000;stroke-linejoin:miter;stroke-width:0.5;"/>
   </g>
   <g id="patch_31">
    <path clip-path="url(#pb2b816a82e)" d="M 53.858268 14.173228 
C 54.610025 14.173228 55.331093 13.874552 55.862665 13.34298 
C 56.394237 12.811408 56.692913 12.090339 56.692913 11.338583 
C 56.692913 10.586826 56.394237 9.865758 55.862665 9.334186 
C 55.331093 8.802613 54.610025 8.503937 53.858268 8.503937 
C 53.106511 8.503937 52.385443 8.802613 51.853871 9.334186 
C 51.322298 9.865758 51.023622 10.586826 51.023622 11.338583 
C 51.023622 12.090339 51.322298 12.811408 51.853871 13.34298 
C 52.385443 13.874552 53.106511 14.173228 53.858268 14.173228 
z
" style="fill:none;"/>
   </g>
   <g id="matplotlib.axis_1"/>
   <g id="matplotlib.axis_2"/>
   <g id="text_1">
    <!-- $V_0$ -->
    <defs>
     <path d="M 61.90625 56.875 
C 65.296875 62.25 68.40625 64.625 73.5 65.03125 
C 74.5 65.125 75.296875 65.125 75.296875 66.90625 
C 75.296875 67.3125 75.09375 67.90625 74.203125 67.90625 
C 72.40625 67.90625 68.09375 67.90625 66.296875 67.90625 
C 63.40625 67.90625 60.40625 67.90625 57.59375 67.90625 
C 56.796875 67.90625 55.796875 67.90625 55.796875 66.03125 
C 55.796875 65.125 56.703125 65.03125 57.09375 65.03125 
C 60.796875 64.734375 61.203125 62.953125 61.203125 61.75 
C 61.203125 60.265625 59.796875 57.96875 59.703125 57.875 
L 28.296875 8.4375 
L 21.296875 62.015625 
C 21.296875 65 26.5 65 27.59375 65 
C 29.09375 65 30 65 30 66.90625 
C 30 67.90625 28.90625 67.90625 28.59375 67.90625 
C 26.90625 67.90625 24.90625 67.90625 23.203125 67.90625 
L 17.59375 67.90625 
C 10.296875 67.90625 7.296875 67.90625 7.203125 67.90625 
C 6.59375 67.90625 5.40625 67.90625 5.40625 66.09375 
C 5.40625 65 6.09375 65 7.703125 65 
C 12.796875 65 13.09375 64.09375 13.40625 61.625 
L 21.40625 0.375 
C 21.703125 -1.703125 21.703125 -2 23.09375 -2 
C 24.296875 -2 24.796875 -1.703125 25.796875 -0.125 
z
" id="CMMI12-86"/>
     <path d="M 42 31.640625 
C 42 37.75 41.90625 48.125 37.703125 56.109375 
C 34 63.109375 28.09375 65.59375 22.90625 65.59375 
C 18.09375 65.59375 12 63.40625 8.203125 56.203125 
C 4.203125 48.71875 3.796875 39.4375 3.796875 31.640625 
C 3.796875 25.953125 3.90625 17.28125 7 9.671875 
C 11.296875 -0.609375 19 -2 22.90625 -2 
C 27.5 -2 34.5 -0.109375 38.59375 9.375 
C 41.59375 16.28125 42 24.359375 42 31.640625 
z
M 22.90625 -0.40625 
C 16.5 -0.40625 12.703125 5.078125 11.296875 12.6875 
C 10.203125 18.5625 10.203125 27.15625 10.203125 32.75 
C 10.203125 40.4375 10.203125 46.828125 11.5 52.921875 
C 13.40625 61.390625 19 64 22.90625 64 
C 27 64 32.296875 61.296875 34.203125 53.125 
C 35.5 47.4375 35.59375 40.734375 35.59375 32.75 
C 35.59375 26.25 35.59375 18.265625 34.40625 12.375 
C 32.296875 1.484375 26.40625 -0.40625 22.90625 -0.40625 
z
" id="CMR17-48"/>
    </defs>
    <g transform="translate(4.546337 23.338985)scale(0.08 -0.08)">
     <use transform="translate(0 14.943915)scale(0.996264)" xlink:href="#CMMI12-86"/>
     <use transform="translate(56.869579 0)scale(0.697382)" xlink:href="#CMR17-48"/>
    </g>
   </g>
   <g id="text_2">
    <!-- $V_1$ -->
    <defs>
     <path d="M 26.59375 63.40625 
C 26.59375 65.5 26.5 65.5 25.09375 65.5 
C 21.203125 61.1875 15.296875 59.796875 9.703125 59.796875 
C 9.40625 59.796875 8.90625 59.796875 8.796875 59.5 
C 8.703125 59.296875 8.703125 59.09375 8.703125 57 
C 11.796875 57 17 57.59375 21 59.984375 
L 21 7.203125 
C 21 3.6875 20.796875 2.5 12.203125 2.5 
L 9.203125 2.5 
L 9.203125 0 
C 14 0 19 0 23.796875 0 
C 28.59375 0 33.59375 0 38.40625 0 
L 38.40625 2.5 
L 35.40625 2.5 
C 26.796875 2.5 26.59375 3.59375 26.59375 7.15625 
z
" id="CMR17-49"/>
    </defs>
    <g transform="translate(3.380982 65.024024)scale(0.08 -0.08)">
     <use transform="translate(0 14.943915)scale(0.996264)" xlink:href="#CMMI12-86"/>
     <use transform="translate(56.869579 0)scale(0.697382)" xlink:href="#CMR17-49"/>
    </g>
   </g>
   <g id="text_3">
    <!-- $V_2$ -->
    <defs>
     <path d="M 41.703125 15.453125 
L 39.90625 15.453125 
C 38.90625 8.375 38.09375 7.171875 37.703125 6.5625 
C 37.203125 5.765625 30 5.765625 28.59375 5.765625 
L 9.40625 5.765625 
C 13 9.671875 20 16.75 28.5 24.953125 
C 34.59375 30.734375 41.703125 37.53125 41.703125 47.421875 
C 41.703125 59.21875 32.296875 66 21.796875 66 
C 10.796875 66 4.09375 56.3125 4.09375 47.34375 
C 4.09375 43.4375 7 42.9375 8.203125 42.9375 
C 9.203125 42.9375 12.203125 43.546875 12.203125 47.03125 
C 12.203125 50.109375 9.59375 51 8.203125 51 
C 7.59375 51 7 50.90625 6.59375 50.703125 
C 8.5 59.21875 14.296875 63.40625 20.40625 63.40625 
C 29.09375 63.40625 34.796875 56.515625 34.796875 47.421875 
C 34.796875 38.734375 29.703125 31.25 24 24.75 
L 4.09375 2.28125 
L 4.09375 0 
L 39.296875 0 
z
" id="CMR17-50"/>
    </defs>
    <g transform="translate(28.058148 24.338985)scale(0.08 -0.08)">
     <use transform="translate(0 14.943915)scale(0.996264)" xlink:href="#CMMI12-86"/>
     <use transform="translate(56.869579 0)scale(0.697382)" xlink:href="#CMR17-50"/>
    </g>
   </g>
   <g id="text_4">
    <!-- $V_3$ -->
    <defs>
     <path d="M 22.09375 33.703125 
C 31 33.703125 34.90625 25.96875 34.90625 17.03125 
C 34.90625 5 28.5 0.390625 22.703125 0.390625 
C 17.40625 0.390625 8.796875 3.03125 6.09375 10.828125 
C 6.59375 10.625 7.09375 10.625 7.59375 10.625 
C 10 10.625 11.796875 12.21875 11.796875 14.8125 
C 11.796875 17.703125 9.59375 19 7.59375 19 
C 5.90625 19 3.296875 18.203125 3.296875 14.46875 
C 3.296875 5.234375 12.296875 -2 22.90625 -2 
C 34 -2 42.5 6.71875 42.5 16.953125 
C 42.5 26.671875 34.5 33.703125 25 34.796875 
C 32.59375 36.375 39.90625 43.0625 39.90625 52.015625 
C 39.90625 59.6875 32 65.296875 23 65.296875 
C 13.90625 65.296875 5.90625 59.828125 5.90625 52.015625 
C 5.90625 48.59375 8.5 48 9.796875 48 
C 11.90625 48 13.703125 49.296875 13.703125 51.890625 
C 13.703125 54.46875 11.90625 55.765625 9.796875 55.765625 
C 9.40625 55.765625 8.90625 55.765625 8.5 55.578125 
C 11.40625 61.859375 19.296875 63 22.796875 63 
C 26.296875 63 32.90625 61.328125 32.90625 51.875 
C 32.90625 49.109375 32.5 44.1875 29.09375 39.84375 
C 26.09375 36 22.703125 36 19.40625 35.6875 
C 18.90625 35.6875 16.59375 35.453125 16.203125 35.453125 
C 15.5 35.359375 15.09375 35.265625 15.09375 34.5 
C 15.09375 33.796875 15.203125 33.703125 17.203125 33.703125 
z
" id="CMR17-51"/>
    </defs>
    <g transform="translate(75.073896 56.01615)scale(0.08 -0.08)">
     <use transform="translate(0 14.943915)scale(0.996264)" xlink:href="#CMMI12-86"/>
     <use transform="translate(56.869579 0)scale(0.697382)" xlink:href="#CMR17-51"/>
    </g>
   </g>
   <g id="text_5">
    <!-- $V_4$ -->
    <defs>
     <path d="M 33.59375 64.40625 
C 33.59375 66.5 33.5 66.5 31.703125 66.5 
L 2 19.59375 
L 2 17 
L 27.796875 17 
L 27.796875 7.140625 
C 27.796875 3.5 27.59375 2.5 20.59375 2.5 
L 18.703125 2.5 
L 18.703125 0 
C 21.90625 0 27.296875 0 30.703125 0 
C 34.09375 0 39.5 0 42.703125 0 
L 42.703125 2.5 
L 40.796875 2.5 
C 33.796875 2.5 33.59375 3.5 33.59375 7.140625 
L 33.59375 17 
L 43.796875 17 
L 43.796875 19.59375 
L 33.59375 19.59375 
z
M 28.09375 57.859375 
L 28.09375 19.59375 
L 4 19.59375 
z
" id="CMR17-52"/>
    </defs>
    <g transform="translate(95.751061 19.669693)scale(0.08 -0.08)">
     <use transform="translate(0 14.943915)scale(0.996264)" xlink:href="#CMMI12-86"/>
     <use transform="translate(56.869579 0)scale(0.697382)" xlink:href="#CMR17-52"/>
    </g>
   </g>
   <g id="text_6">
    <!-- $V_5$ -->
    <defs>
     <path d="M 11.40625 57.6875 
C 12.40625 57.28125 16.5 56 20.703125 56 
C 30 56 35.09375 61.109375 38 64.0625 
C 38 64.953125 38 65.5 37.40625 65.5 
C 37.296875 65.5 37.09375 65.5 36.296875 65.046875 
C 32.796875 63.40625 28.703125 62.078125 23.703125 62.078125 
C 20.703125 62.078125 16.203125 62.484375 11.296875 64.671875 
C 10.203125 65.171875 10 65.171875 9.90625 65.171875 
C 9.40625 65.171875 9.296875 65.0625 9.296875 63.078125 
L 9.296875 34.421875 
C 9.296875 32.640625 9.296875 32.140625 10.296875 32.140625 
C 10.796875 32.140625 11 32.34375 11.5 33.03125 
C 14.703125 37.515625 19.09375 39.40625 24.09375 39.40625 
C 27.59375 39.40625 35.09375 37.21875 35.09375 20.140625 
C 35.09375 16.953125 35.09375 11.171875 32.09375 6.578125 
C 29.59375 2.484375 25.703125 0.390625 21.40625 0.390625 
C 14.796875 0.390625 8.09375 5 6.296875 12.71875 
C 6.703125 12.609375 7.5 12.421875 7.90625 12.421875 
C 9.203125 12.421875 11.703125 13.125 11.703125 16.21875 
C 11.703125 18.90625 9.796875 20 7.90625 20 
C 5.59375 20 4.09375 18.59375 4.09375 15.796875 
C 4.09375 7.09375 11 -2 21.59375 -2 
C 31.90625 -2 41.703125 6.875 41.703125 19.75 
C 41.703125 31.71875 33.90625 41 24.203125 41 
C 19.09375 41 14.796875 39.109375 11.40625 35.53125 
z
" id="CMR17-53"/>
    </defs>
    <g transform="translate(76.412478 84.693315)scale(0.08 -0.08)">
     <use transform="translate(0 14.943915)scale(0.996264)" xlink:href="#CMMI12-86"/>
     <use transform="translate(56.869579 0)scale(0.697382)" xlink:href="#CMR17-53"/>
    </g>
   </g>
   <g id="text_7">
    <!-- $V_6$ -->
    <defs>
     <path d="M 10.59375 34 
C 10.59375 57.65625 21.796875 63 28.296875 63 
C 30.40625 63 35.5 62.640625 37.5 59 
C 35.90625 59 32.90625 59 32.90625 55.515625 
C 32.90625 52.828125 35.09375 51.921875 36.5 51.921875 
C 37.40625 51.921875 40.09375 52.3125 40.09375 55.625 
C 40.09375 61.78125 35.09375 65.296875 28.203125 65.296875 
C 16.296875 65.296875 3.796875 52.96875 3.796875 31 
C 3.796875 3.953125 15.09375 -2 23.09375 -2 
C 32.796875 -2 42 6.671875 42 20.046875 
C 42 32.515625 33.90625 41.59375 23.703125 41.59375 
C 17.59375 41.59375 13.09375 37.609375 10.59375 30.625 
z
M 23.09375 0.390625 
C 10.796875 0.390625 10.796875 18.75 10.796875 22.4375 
C 10.796875 29.625 14.203125 40 23.5 40 
C 25.203125 40 30.09375 40 33.40625 33.125 
C 35.203125 29.21875 35.203125 25.140625 35.203125 20.140625 
C 35.203125 14.75 35.203125 10.78125 33.09375 6.78125 
C 30.90625 2.671875 27.703125 0.390625 23.09375 0.390625 
z
" id="CMR17-54"/>
    </defs>
    <g transform="translate(97.420352 67.685441)scale(0.08 -0.08)">
     <use transform="translate(0 14.943915)scale(0.996264)" xlink:href="#CMMI12-86"/>
     <use transform="translate(56.869579 0)scale(0.697382)" xlink:href="#CMR17-54"/>
    </g>
   </g>
   <g id="text_8">
    <!-- $G_{\hat{1}}$ -->
    <defs>
     <path d="M 74.59375 69.109375 
C 74.59375 70 73.90625 70 73.703125 70 
C 73.5 70 73.09375 70 72.296875 69 
L 65.40625 60.765625 
C 64.90625 61.5625 62.90625 65.046875 59 67.328125 
C 54.703125 70 50.40625 70 48.90625 70 
C 27.5 70 5 48.359375 5 24.921875 
C 5 8.53125 16.40625 -2 31.40625 -2 
C 38.59375 -2 47.703125 0.390625 52.703125 6.671875 
C 53.796875 2.890625 56 0.1875 56.703125 0.1875 
C 57.203125 0.1875 57.296875 0.5 57.40625 0.5 
C 57.5 0.6875 58.296875 4.21875 58.796875 6.015625 
L 60.40625 12.453125 
C 61.203125 15.765625 61.59375 17.171875 62.296875 20.171875 
C 63.296875 24 63.5 24 69 24 
C 69.40625 24 70.59375 24 70.59375 26.03125 
C 70.59375 27.09375 69.59375 27.09375 69.296875 27.09375 
C 67.59375 27.09375 65.703125 27.09375 63.90625 27.09375 
L 58.5 27.09375 
C 54.296875 27.09375 49.90625 27.09375 45.796875 27.09375 
C 44.90625 27.09375 43.703125 27.09375 43.703125 25.171875 
C 43.703125 24.09375 44.5 24.09375 44.5 24 
L 47 24 
C 54.90625 24 54.90625 23.265625 54.90625 21.90625 
C 54.90625 21.796875 53 11.734375 51.09375 8.765625 
C 47.296875 3.1875 39.40625 0.890625 33.5 0.890625 
C 25.796875 0.890625 13.296875 4.875 13.296875 22.03125 
C 13.296875 28.6875 15.703125 43.875 25.40625 55.09375 
C 31.703125 62.25 41 67.109375 49.796875 67.109375 
C 61.59375 67.109375 65.796875 57.109375 65.796875 47.984375 
C 65.796875 46.40625 65.40625 44.234375 65.40625 42.84375 
C 65.40625 41.953125 66.40625 41.953125 66.703125 41.953125 
C 67.796875 41.953125 67.90625 42.046875 68.296875 43.828125 
z
" id="CMMI12-71"/>
     <path d="M 22.90625 69.078125 
L 10.59375 55.546875 
L 11.796875 54.34375 
L 22.90625 65.09375 
L 34 54.34375 
L 35.203125 55.546875 
z
" id="CMR17-94"/>
    </defs>
    <g transform="translate(29.720667 89.885647)scale(0.08 -0.08)">
     <use transform="translate(0 29.045894)scale(0.996264)" xlink:href="#CMMI12-71"/>
     <use transform="translate(76.946862 14.932331)scale(0.697382)" xlink:href="#CMR17-94"/>
     <use transform="translate(76.946862 0)scale(0.697382)" xlink:href="#CMR17-49"/>
    </g>
   </g>
   <g id="text_9">
    <!-- $E_0$ -->
    <defs>
     <path d="M 69.5 23.265625 
C 69.59375 23.5625 69.90625 24.28125 69.90625 24.671875 
C 69.90625 25.171875 69.5 25.671875 68.90625 25.671875 
C 68.5 25.671875 68.296875 25.578125 68 25.265625 
C 67.796875 25.171875 67.796875 24.96875 66.90625 22.953125 
C 61 8.90625 56.703125 2.890625 40.703125 2.890625 
L 26.09375 2.890625 
C 24.703125 2.890625 24.5 2.890625 23.90625 3 
C 22.796875 3.09375 22.703125 3.296875 22.703125 4.09375 
C 22.703125 4.796875 22.90625 5.390625 23.09375 6.296875 
L 30 34 
L 39.90625 34 
C 47.703125 34 48.296875 32.28125 48.296875 29.28125 
C 48.296875 28.28125 48.296875 27.375 47.59375 24.375 
C 47.40625 23.96875 47.296875 23.5625 47.296875 23.265625 
C 47.296875 22.5625 47.796875 22.265625 48.40625 22.265625 
C 49.296875 22.265625 49.40625 22.953125 49.796875 24.359375 
L 55.5 47.53125 
C 55.5 48.015625 55.09375 48.515625 54.5 48.515625 
C 53.59375 48.515625 53.5 48.125 53.09375 46.71875 
C 51.09375 39.078125 49.09375 36.890625 40.203125 36.890625 
L 30.703125 36.890625 
L 36.90625 61.40625 
C 37.796875 64.90625 38 64.90625 42.09375 64.90625 
L 56.40625 64.90625 
C 68.703125 64.90625 71.203125 61.609375 71.203125 54.03125 
C 71.203125 53.921875 71.203125 51.140625 70.796875 47.84375 
C 70.703125 47.4375 70.59375 46.84375 70.59375 46.640625 
C 70.59375 45.84375 71.09375 45.546875 71.703125 45.546875 
C 72.40625 45.546875 72.796875 45.953125 73 47.734375 
L 75.09375 65.21875 
C 75.09375 65.546875 75.296875 66.609375 75.296875 66.828125 
C 75.296875 68 74.40625 68 72.59375 68 
L 23.796875 68 
C 21.90625 68 20.90625 68 20.90625 66.078125 
C 20.90625 64.90625 21.59375 64.90625 23.296875 64.90625 
C 29.5 64.90625 29.5 64.28125 29.5 63.3125 
C 29.5 62.8125 29.40625 62.40625 29.09375 61.3125 
L 15.59375 7.390625 
C 14.703125 3.890625 14.5 2.890625 7.5 2.890625 
C 5.59375 2.890625 4.59375 2.890625 4.59375 1.09375 
C 4.59375 0 5.203125 0 7.203125 0 
L 57.40625 0 
C 59.59375 0 59.703125 0.09375 60.40625 1.71875 
z
" id="CMMI12-69"/>
    </defs>
    <g transform="translate(27.082367 42.346859)scale(0.08 -0.08)">
     <use transform="translate(0 14.943915)scale(0.996264)" xlink:href="#CMMI12-69"/>
     <use transform="translate(72.211218 0)scale(0.697382)" xlink:href="#CMR17-48"/>
    </g>
   </g>
   <g id="text_10">
    <!-- $E_1$ -->
    <g transform="translate(72.436698 19.669693)scale(0.08 -0.08)">
     <use transform="translate(0 14.943915)scale(0.996264)" xlink:href="#CMMI12-69"/>
     <use transform="translate(72.211218 0)scale(0.697382)" xlink:href="#CMR17-49"/>
    </g>
   </g>
   <g id="text_11">
    <!-- $E_2$ -->
    <g transform="translate(62.098115 75.024024)scale(0.08 -0.08)">
     <use transform="translate(0 14.943915)scale(0.996264)" xlink:href="#CMMI12-69"/>
     <use transform="translate(72.211218 0)scale(0.697382)" xlink:href="#CMR17-50"/>
    </g>
   </g>
   <g id="text_12">
    <!-- $do(\Lambda)$ -->
    <defs>
     <path d="M 50.296875 66.515625 
C 50.40625 66.90625 50.59375 67.5 50.59375 68 
C 50.59375 69 49.59375 69 49.40625 69 
C 49.296875 69 44.40625 68.5625 43.90625 68.4375 
C 42.203125 68.328125 40.703125 68.09375 38.90625 68.09375 
C 36.40625 67.890625 35.703125 67.796875 35.703125 66 
C 35.703125 65 36.5 65 37.90625 65 
C 42.796875 65 42.90625 64.109375 42.90625 63.125 
C 42.90625 62.53125 42.703125 61.75 42.59375 61.453125 
L 36.5 37.421875 
C 35.40625 40.015625 32.703125 44 27.5 44 
C 16.203125 44 4 29.4375 4 14.671875 
C 4 4.796875 9.796875 -1 16.59375 -1 
C 22.09375 -1 26.796875 3.296875 29.59375 6.59375 
C 30.59375 0.703125 35.296875 -1 38.296875 -1 
C 41.296875 -1 43.703125 0.796875 45.5 4.390625 
C 47.09375 7.78125 48.5 13.875 48.5 14.265625 
C 48.5 14.765625 48.09375 15.171875 47.5 15.171875 
C 46.59375 15.171875 46.5 14.671875 46.09375 13.171875 
C 44.59375 7.28125 42.703125 1 38.59375 1 
C 35.703125 1 35.5 3.578125 35.5 5.578125 
C 35.5 5.96875 35.5 8.046875 36.203125 10.84375 
z
M 30.09375 11.875 
C 29.59375 10.171875 29.59375 9.984375 28.203125 8.078125 
C 26 5.28125 21.59375 1 16.90625 1 
C 12.796875 1 10.5 4.6875 10.5 10.578125 
C 10.5 16.0625 13.59375 27.234375 15.5 31.4375 
C 18.90625 38.421875 23.59375 42.015625 27.5 42.015625 
C 34.09375 42.015625 35.40625 33.828125 35.40625 33.03125 
C 35.40625 32.9375 35.09375 31.625 35 31.4375 
z
" id="CMMI12-100"/>
     <path d="M 45.59375 27.4375 
C 45.59375 36.921875 39.40625 44 30.296875 44 
C 17.09375 44 4.09375 29.640625 4.09375 15.5625 
C 4.09375 6.09375 10.296875 -1 19.40625 -1 
C 32.703125 -1 45.59375 13.375 45.59375 27.4375 
z
M 19.5 1 
C 14.5 1 10.796875 4.984375 10.796875 11.96875 
C 10.796875 16.5625 13.203125 26.75 16 31.734375 
C 20.5 39.421875 26.09375 42.015625 30.203125 42.015625 
C 35.09375 42.015625 38.90625 38.015625 38.90625 31.03125 
C 38.90625 27.046875 36.796875 16.359375 33 10.28125 
C 28.90625 3.59375 23.40625 1 19.5 1 
z
" id="CMMI12-111"/>
     <path d="M 30.59375 -24.390625 
C 30.59375 -24.296875 30.59375 -24.09375 30.296875 -23.796875 
C 25.703125 -19.125 13.40625 -6.359375 13.40625 24.703125 
C 13.40625 55.765625 25.5 68.421875 30.40625 73.390625 
C 30.40625 73.5 30.59375 73.703125 30.59375 74 
C 30.59375 74.296875 30.296875 74.5 29.90625 74.5 
C 28.796875 74.5 20.296875 67.125 15.40625 56.15625 
C 10.40625 45.109375 9 34.359375 9 24.8125 
C 9 17.625 9.703125 5.484375 15.703125 -7.359375 
C 20.5 -17.734375 28.703125 -25 29.90625 -25 
C 30.40625 -25 30.59375 -24.796875 30.59375 -24.390625 
z
" id="CMR17-40"/>
     <path d="M 33.59375 68.796875 
C 33.09375 70.390625 33 70.5 32 70.5 
C 31 70.5 30.90625 70.390625 30.40625 68.796875 
L 10.703125 9 
C 8.90625 3.703125 5.59375 2.5 2.296875 2.5 
L 2.296875 0 
C 4 0 7.5 0 9.296875 0 
C 11.796875 0 15.703125 0 18.09375 -0.09375 
L 18.09375 2.5 
C 12.796875 2.5 12.5 6.3125 12.5 7.015625 
C 12.5 7.71875 12.703125 8.3125 13 9.3125 
L 29.59375 59.921875 
L 47 7.203125 
C 47.5 5.8125 47.5 5.609375 47.5 5.3125 
C 47.5 2.5 43.296875 2.5 41.203125 2.5 
L 41.203125 0 
C 44.09375 0 49.203125 0 52.296875 0 
C 54.796875 0 59.40625 0 61.703125 -0.09375 
L 61.703125 2.5 
C 57.296875 2.5 55.5 2.5 54.296875 6 
z
" id="CMR17-3"/>
     <path d="M 26.296875 24.703125 
C 26.296875 31.875 25.59375 44.015625 19.59375 56.859375 
C 14.796875 67.234375 6.59375 74.5 5.40625 74.5 
C 5.09375 74.5 4.703125 74.390625 4.703125 73.890625 
C 4.703125 73.703125 4.796875 73.59375 4.90625 73.390625 
C 9.703125 68.40625 21.90625 55.75 21.90625 24.75 
C 21.90625 -6.359375 9.796875 -19.015625 4.90625 -24.015625 
C 4.796875 -24.203125 4.703125 -24.3125 4.703125 -24.5 
C 4.703125 -25 5.09375 -25 5.40625 -25 
C 6.5 -25 15 -17.625 19.90625 -6.65625 
C 24.90625 4.390625 26.296875 15.140625 26.296875 24.703125 
z
" id="CMR17-41"/>
    </defs>
    <g transform="translate(43.403576 11.331111)scale(0.08 -0.08)">
     <use transform="scale(0.996264)" xlink:href="#CMMI12-100"/>
     <use transform="translate(50.689097 0)scale(0.996264)" xlink:href="#CMMI12-111"/>
     <use transform="translate(97.584406 0)scale(0.996264)" xlink:href="#CMR17-40"/>
     <use transform="translate(132.865174 0)scale(0.996264)" xlink:href="#CMR17-3"/>
     <use transform="translate(196.732696 0)scale(0.996264)" xlink:href="#CMR17-41"/>
    </g>
   </g>
  </g>
 </g>
 <defs>
  <clipPath id="pb2b816a82e">
   <rect height="93.543307" width="113.385827" x="0" y="0"/>
  </clipPath>
 </defs>
</svg>
