<?xml version="1.0" encoding="utf-8" standalone="no"?>
<!DOCTYPE svg PUBLIC "-//W3C//DTD SVG 1.1//EN"
  "http://www.w3.org/Graphics/SVG/1.1/DTD/svg11.dtd">
<!-- Created with matplotlib (https://matplotlib.org/) -->
<svg height="85.03937pt" version="1.1" viewBox="0 0 113.385827 85.03937" width="113.385827pt" xmlns="http://www.w3.org/2000/svg" xmlns:xlink="http://www.w3.org/1999/xlink">
 <defs>
  <style type="text/css">
*{stroke-linecap:butt;stroke-linejoin:round;}
  </style>
 </defs>
 <g id="figure_1">
  <g id="patch_1">
   <path d="M 0 85.03937 
L 113.385827 85.03937 
L 113.385827 0 
L 0 0 
z
" style="fill:#ffffff;"/>
  </g>
  <g id="axes_1">
   <g id="patch_2">
    <path clip-path="url(#pe9ccafcd62)" d="M 19.155017 59.612194 
L 16.061256 53.08092 
L 17.436261 52.737169 
L 12.026085 31.096467 
L 12.026085 31.096467 
L 17.436261 52.737169 
L 18.811266 52.393418 
z
" style="stroke:#000000;stroke-linejoin:miter;stroke-width:0.5;"/>
   </g>
   <g id="patch_3">
    <path clip-path="url(#pe9ccafcd62)" d="M 53.93086 70.228745 
L 46.707027 70.016279 
L 47.025725 68.635252 
L 22.604573 62.999602 
L 22.604573 62.999602 
L 47.025725 68.635252 
L 47.344424 67.254225 
z
" style="stroke:#000000;stroke-linejoin:miter;stroke-width:0.5;"/>
   </g>
   <g id="patch_4">
    <path clip-path="url(#pe9ccafcd62)" d="M 20.33514 59.570692 
L 20.170933 52.345601 
L 21.566689 52.591911 
L 27.853837 16.964741 
L 27.853837 16.964741 
L 21.566689 52.591911 
L 22.962445 52.838221 
z
" style="stroke:#000000;stroke-linejoin:miter;stroke-width:0.5;"/>
   </g>
   <g id="patch_5">
    <path clip-path="url(#pe9ccafcd62)" d="M 41.251993 39.984301 
L 36.815071 34.279687 
L 38.082763 33.64584 
L 29.614149 16.708613 
L 29.614149 16.708613 
L 38.082763 33.64584 
L 39.350455 33.011994 
z
" style="stroke:#000000;stroke-linejoin:miter;stroke-width:0.5;"/>
   </g>
   <g id="patch_6">
    <path clip-path="url(#pe9ccafcd62)" d="M 21.975808 60.495577 
L 26.375715 54.762365 
L 27.309029 55.829009 
L 40.386397 44.386312 
L 40.386397 44.386312 
L 27.309029 55.829009 
L 28.242342 56.895654 
z
" style="stroke:#000000;stroke-linejoin:miter;stroke-width:0.5;"/>
   </g>
   <g id="patch_7">
    <path clip-path="url(#pe9ccafcd62)" d="M 31.181102 14.173228 
L 38.267717 12.755906 
L 38.267717 14.173228 
L 90.708661 14.173228 
L 90.708661 14.173228 
L 38.267717 14.173228 
L 38.267717 15.590551 
z
" style="stroke:#000000;stroke-linejoin:miter;stroke-width:0.5;"/>
   </g>
   <g id="patch_8">
    <path clip-path="url(#pe9ccafcd62)" d="M 93.543307 68.031496 
L 92.125984 60.944882 
L 93.543307 60.944882 
L 93.543307 17.007874 
L 93.543307 17.007874 
L 93.543307 60.944882 
L 94.96063 60.944882 
z
" style="stroke:#000000;stroke-linejoin:miter;stroke-width:0.5;"/>
   </g>
   <g id="patch_9">
    <path clip-path="url(#pe9ccafcd62)" d="M 59.527559 70.866142 
L 66.614173 69.448819 
L 66.614173 70.866142 
L 90.708661 70.866142 
L 90.708661 70.866142 
L 66.614173 70.866142 
L 66.614173 72.283465 
z
" style="stroke:#000000;stroke-linejoin:miter;stroke-width:0.5;"/>
   </g>
   <g id="patch_10">
    <path clip-path="url(#pe9ccafcd62)" d="M 30.485496 16.033262 
L 36.763111 19.613828 
L 35.833094 20.683348 
L 91.404268 69.006108 
L 91.404268 69.006108 
L 35.833094 20.683348 
L 34.903077 21.752868 
z
" style="stroke:#000000;stroke-linejoin:miter;stroke-width:0.5;"/>
   </g>
   <g id="patch_11">
    <path clip-path="url(#pe9ccafcd62)" d="M 57.248833 68.086543 
L 57.248833 60.859586 
L 58.638633 61.137546 
L 64.640931 31.126055 
L 64.640931 31.126055 
L 58.638633 61.137546 
L 60.028432 61.415506 
z
" style="stroke:#000000;stroke-linejoin:miter;stroke-width:0.5;"/>
   </g>
   <g id="patch_12">
    <path clip-path="url(#pe9ccafcd62)" d="M 44.92346 41.017326 
L 50.181717 36.05954 
L 50.932897 37.261428 
L 62.793076 29.848816 
L 62.793076 29.848816 
L 50.932897 37.261428 
L 51.684076 38.463315 
z
" style="stroke:#000000;stroke-linejoin:miter;stroke-width:0.5;"/>
   </g>
   <g id="patch_13">
    <path clip-path="url(#pe9ccafcd62)" d="M 91.007923 15.44092 
L 85.303309 19.877843 
L 84.669463 18.610151 
L 67.732235 27.078765 
L 67.732235 27.078765 
L 84.669463 18.610151 
L 84.035616 17.342459 
z
" style="stroke:#000000;stroke-linejoin:miter;stroke-width:0.5;"/>
   </g>
   <g id="patch_14">
    <path clip-path="url(#pe9ccafcd62)" d="M 91.970929 68.507574 
L 86.860698 63.397344 
L 88.039982 62.611155 
L 66.769229 30.705024 
L 66.769229 30.705024 
L 88.039982 62.611155 
L 89.219266 61.824965 
z
" style="stroke:#000000;stroke-linejoin:miter;stroke-width:0.5;"/>
   </g>
   <g id="patch_15">
    <path clip-path="url(#pe9ccafcd62)" d="M 11.338583 31.181102 
C 12.090339 31.181102 12.811408 30.882426 13.34298 30.350854 
C 13.874552 29.819282 14.173228 29.098214 14.173228 28.346457 
C 14.173228 27.5947 13.874552 26.873632 13.34298 26.34206 
C 12.811408 25.810487 12.090339 25.511811 11.338583 25.511811 
C 10.586826 25.511811 9.865758 25.810487 9.334186 26.34206 
C 8.802613 26.873632 8.503937 27.5947 8.503937 28.346457 
C 8.503937 29.098214 8.802613 29.819282 9.334186 30.350854 
C 9.865758 30.882426 10.586826 31.181102 11.338583 31.181102 
z
" style="stroke:#000000;stroke-linejoin:miter;"/>
   </g>
   <g id="patch_16">
    <path clip-path="url(#pe9ccafcd62)" d="M 19.84252 65.19685 
C 20.594277 65.19685 21.315345 64.898174 21.846917 64.366602 
C 22.378489 63.83503 22.677165 63.113962 22.677165 62.362205 
C 22.677165 61.610448 22.378489 60.88938 21.846917 60.357808 
C 21.315345 59.826235 20.594277 59.527559 19.84252 59.527559 
C 19.090763 59.527559 18.369695 59.826235 17.838123 60.357808 
C 17.30655 60.88938 17.007874 61.610448 17.007874 62.362205 
C 17.007874 63.113962 17.30655 63.83503 17.838123 64.366602 
C 18.369695 64.898174 19.090763 65.19685 19.84252 65.19685 
z
" style="stroke:#000000;stroke-linejoin:miter;"/>
   </g>
   <g id="patch_17">
    <path clip-path="url(#pe9ccafcd62)" d="M 28.346457 17.007874 
C 29.098214 17.007874 29.819282 16.709198 30.350854 16.177626 
C 30.882426 15.646053 31.181102 14.924985 31.181102 14.173228 
C 31.181102 13.421472 30.882426 12.700404 30.350854 12.168831 
C 29.819282 11.637259 29.098214 11.338583 28.346457 11.338583 
C 27.5947 11.338583 26.873632 11.637259 26.34206 12.168831 
C 25.810487 12.700404 25.511811 13.421472 25.511811 14.173228 
C 25.511811 14.924985 25.810487 15.646053 26.34206 16.177626 
C 26.873632 16.709198 27.5947 17.007874 28.346457 17.007874 
z
" style="stroke:#000000;stroke-linejoin:miter;"/>
   </g>
   <g id="patch_18">
    <path clip-path="url(#pe9ccafcd62)" d="M 42.519685 45.354331 
C 43.271442 45.354331 43.99251 45.055655 44.524082 44.524082 
C 45.055655 43.99251 45.354331 43.271442 45.354331 42.519685 
C 45.354331 41.767928 45.055655 41.04686 44.524082 40.515288 
C 43.99251 39.983716 43.271442 39.685039 42.519685 39.685039 
C 41.767928 39.685039 41.04686 39.983716 40.515288 40.515288 
C 39.983716 41.04686 39.685039 41.767928 39.685039 42.519685 
C 39.685039 43.271442 39.983716 43.99251 40.515288 44.524082 
C 41.04686 45.055655 41.767928 45.354331 42.519685 45.354331 
z
" style="stroke:#000000;stroke-linejoin:miter;"/>
   </g>
   <g id="patch_19">
    <path clip-path="url(#pe9ccafcd62)" d="M 93.543307 17.007874 
C 94.295064 17.007874 95.016132 16.709198 95.547704 16.177626 
C 96.079277 15.646053 96.377953 14.924985 96.377953 14.173228 
C 96.377953 13.421472 96.079277 12.700404 95.547704 12.168831 
C 95.016132 11.637259 94.295064 11.338583 93.543307 11.338583 
C 92.79155 11.338583 92.070482 11.637259 91.53891 12.168831 
C 91.007338 12.700404 90.708661 13.421472 90.708661 14.173228 
C 90.708661 14.924985 91.007338 15.646053 91.53891 16.177626 
C 92.070482 16.709198 92.79155 17.007874 93.543307 17.007874 
z
" style="stroke:#000000;stroke-linejoin:miter;"/>
   </g>
   <g id="patch_20">
    <path clip-path="url(#pe9ccafcd62)" d="M 93.543307 73.700787 
C 94.295064 73.700787 95.016132 73.402111 95.547704 72.870539 
C 96.079277 72.338967 96.377953 71.617899 96.377953 70.866142 
C 96.377953 70.114385 96.079277 69.393317 95.547704 68.861745 
C 95.016132 68.330172 94.295064 68.031496 93.543307 68.031496 
C 92.79155 68.031496 92.070482 68.330172 91.53891 68.861745 
C 91.007338 69.393317 90.708661 70.114385 90.708661 70.866142 
C 90.708661 71.617899 91.007338 72.338967 91.53891 72.870539 
C 92.070482 73.402111 92.79155 73.700787 93.543307 73.700787 
z
" style="stroke:#000000;stroke-linejoin:miter;"/>
   </g>
   <g id="patch_21">
    <path clip-path="url(#pe9ccafcd62)" d="M 65.19685 31.181102 
C 65.948607 31.181102 66.669675 30.882426 67.201248 30.350854 
C 67.73282 29.819282 68.031496 29.098214 68.031496 28.346457 
C 68.031496 27.5947 67.73282 26.873632 67.201248 26.34206 
C 66.669675 25.810487 65.948607 25.511811 65.19685 25.511811 
C 64.445094 25.511811 63.724026 25.810487 63.192453 26.34206 
C 62.660881 26.873632 62.362205 27.5947 62.362205 28.346457 
C 62.362205 29.098214 62.660881 29.819282 63.192453 30.350854 
C 63.724026 30.882426 64.445094 31.181102 65.19685 31.181102 
z
" style="stroke:#000000;stroke-linejoin:miter;"/>
   </g>
   <g id="patch_22">
    <path clip-path="url(#pe9ccafcd62)" d="M 56.692913 73.700787 
C 57.44467 73.700787 58.165738 73.402111 58.697311 72.870539 
C 59.228883 72.338967 59.527559 71.617899 59.527559 70.866142 
C 59.527559 70.114385 59.228883 69.393317 58.697311 68.861745 
C 58.165738 68.330172 57.44467 68.031496 56.692913 68.031496 
C 55.941157 68.031496 55.220089 68.330172 54.688516 68.861745 
C 54.156944 69.393317 53.858268 70.114385 53.858268 70.866142 
C 53.858268 71.617899 54.156944 72.338967 54.688516 72.870539 
C 55.220089 73.402111 55.941157 73.700787 56.692913 73.700787 
z
" style="stroke:#000000;stroke-linejoin:miter;"/>
   </g>
   <g id="matplotlib.axis_1"/>
   <g id="matplotlib.axis_2"/>
   <g id="text_1">
    <!-- $V_0$ -->
    <defs>
     <path d="M 61.90625 56.875 
C 65.296875 62.25 68.40625 64.625 73.5 65.03125 
C 74.5 65.125 75.296875 65.125 75.296875 66.90625 
C 75.296875 67.3125 75.09375 67.90625 74.203125 67.90625 
C 72.40625 67.90625 68.09375 67.90625 66.296875 67.90625 
C 63.40625 67.90625 60.40625 67.90625 57.59375 67.90625 
C 56.796875 67.90625 55.796875 67.90625 55.796875 66.03125 
C 55.796875 65.125 56.703125 65.03125 57.09375 65.03125 
C 60.796875 64.734375 61.203125 62.953125 61.203125 61.75 
C 61.203125 60.265625 59.796875 57.96875 59.703125 57.875 
L 28.296875 8.4375 
L 21.296875 62.015625 
C 21.296875 65 26.5 65 27.59375 65 
C 29.09375 65 30 65 30 66.90625 
C 30 67.90625 28.90625 67.90625 28.59375 67.90625 
C 26.90625 67.90625 24.90625 67.90625 23.203125 67.90625 
L 17.59375 67.90625 
C 10.296875 67.90625 7.296875 67.90625 7.203125 67.90625 
C 6.59375 67.90625 5.40625 67.90625 5.40625 66.09375 
C 5.40625 65 6.09375 65 7.703125 65 
C 12.796875 65 13.09375 64.09375 13.40625 61.625 
L 21.40625 0.375 
C 21.703125 -1.703125 21.703125 -2 23.09375 -2 
C 24.296875 -2 24.796875 -1.703125 25.796875 -0.125 
z
" id="CMMI12-86"/>
     <path d="M 42 31.640625 
C 42 37.75 41.90625 48.125 37.703125 56.109375 
C 34 63.109375 28.09375 65.59375 22.90625 65.59375 
C 18.09375 65.59375 12 63.40625 8.203125 56.203125 
C 4.203125 48.71875 3.796875 39.4375 3.796875 31.640625 
C 3.796875 25.953125 3.90625 17.28125 7 9.671875 
C 11.296875 -0.609375 19 -2 22.90625 -2 
C 27.5 -2 34.5 -0.109375 38.59375 9.375 
C 41.59375 16.28125 42 24.359375 42 31.640625 
z
M 22.90625 -0.40625 
C 16.5 -0.40625 12.703125 5.078125 11.296875 12.6875 
C 10.203125 18.5625 10.203125 27.15625 10.203125 32.75 
C 10.203125 40.4375 10.203125 46.828125 11.5 52.921875 
C 13.40625 61.390625 19 64 22.90625 64 
C 27 64 32.296875 61.296875 34.203125 53.125 
C 35.5 47.4375 35.59375 40.734375 35.59375 32.75 
C 35.59375 26.25 35.59375 18.265625 34.40625 12.375 
C 32.296875 1.484375 26.40625 -0.40625 22.90625 -0.40625 
z
" id="CMR17-48"/>
    </defs>
    <g transform="translate(13.324991 25.588051)scale(0.09 -0.09)">
     <use transform="translate(0 14.943915)scale(0.996264)" xlink:href="#CMMI12-86"/>
     <use transform="translate(56.869579 0)scale(0.697382)" xlink:href="#CMR17-48"/>
    </g>
   </g>
   <g id="text_2">
    <!-- $V_1$ -->
    <defs>
     <path d="M 26.59375 63.40625 
C 26.59375 65.5 26.5 65.5 25.09375 65.5 
C 21.203125 61.1875 15.296875 59.796875 9.703125 59.796875 
C 9.40625 59.796875 8.90625 59.796875 8.796875 59.5 
C 8.703125 59.296875 8.703125 59.09375 8.703125 57 
C 11.796875 57 17 57.59375 21 59.984375 
L 21 7.203125 
C 21 3.6875 20.796875 2.5 12.203125 2.5 
L 9.203125 2.5 
L 9.203125 0 
C 14 0 19 0 23.796875 0 
C 28.59375 0 33.59375 0 38.40625 0 
L 38.40625 2.5 
L 35.40625 2.5 
C 26.796875 2.5 26.59375 3.59375 26.59375 7.15625 
z
" id="CMR17-49"/>
    </defs>
    <g transform="translate(8.828928 69.603799)scale(0.09 -0.09)">
     <use transform="translate(0 14.943915)scale(0.996264)" xlink:href="#CMMI12-86"/>
     <use transform="translate(56.869579 0)scale(0.697382)" xlink:href="#CMR17-49"/>
    </g>
   </g>
   <g id="text_3">
    <!-- $V_2$ -->
    <defs>
     <path d="M 41.703125 15.453125 
L 39.90625 15.453125 
C 38.90625 8.375 38.09375 7.171875 37.703125 6.5625 
C 37.203125 5.765625 30 5.765625 28.59375 5.765625 
L 9.40625 5.765625 
C 13 9.671875 20 16.75 28.5 24.953125 
C 34.59375 30.734375 41.703125 37.53125 41.703125 47.421875 
C 41.703125 59.21875 32.296875 66 21.796875 66 
C 10.796875 66 4.09375 56.3125 4.09375 47.34375 
C 4.09375 43.4375 7 42.9375 8.203125 42.9375 
C 9.203125 42.9375 12.203125 43.546875 12.203125 47.03125 
C 12.203125 50.109375 9.59375 51 8.203125 51 
C 7.59375 51 7 50.90625 6.59375 50.703125 
C 8.5 59.21875 14.296875 63.40625 20.40625 63.40625 
C 29.09375 63.40625 34.796875 56.515625 34.796875 47.421875 
C 34.796875 38.734375 29.703125 31.25 24 24.75 
L 4.09375 2.28125 
L 4.09375 0 
L 39.296875 0 
z
" id="CMR17-50"/>
    </defs>
    <g transform="translate(29.332865 10.414822)scale(0.09 -0.09)">
     <use transform="translate(0 14.943915)scale(0.996264)" xlink:href="#CMMI12-86"/>
     <use transform="translate(56.869579 0)scale(0.697382)" xlink:href="#CMR17-50"/>
    </g>
   </g>
   <g id="text_4">
    <!-- $V_3$ -->
    <defs>
     <path d="M 22.09375 33.703125 
C 31 33.703125 34.90625 25.96875 34.90625 17.03125 
C 34.90625 5 28.5 0.390625 22.703125 0.390625 
C 17.40625 0.390625 8.796875 3.03125 6.09375 10.828125 
C 6.59375 10.625 7.09375 10.625 7.59375 10.625 
C 10 10.625 11.796875 12.21875 11.796875 14.8125 
C 11.796875 17.703125 9.59375 19 7.59375 19 
C 5.90625 19 3.296875 18.203125 3.296875 14.46875 
C 3.296875 5.234375 12.296875 -2 22.90625 -2 
C 34 -2 42.5 6.71875 42.5 16.953125 
C 42.5 26.671875 34.5 33.703125 25 34.796875 
C 32.59375 36.375 39.90625 43.0625 39.90625 52.015625 
C 39.90625 59.6875 32 65.296875 23 65.296875 
C 13.90625 65.296875 5.90625 59.828125 5.90625 52.015625 
C 5.90625 48.59375 8.5 48 9.796875 48 
C 11.90625 48 13.703125 49.296875 13.703125 51.890625 
C 13.703125 54.46875 11.90625 55.765625 9.796875 55.765625 
C 9.40625 55.765625 8.90625 55.765625 8.5 55.578125 
C 11.40625 61.859375 19.296875 63 22.796875 63 
C 26.296875 63 32.90625 61.328125 32.90625 51.875 
C 32.90625 49.109375 32.5 44.1875 29.09375 39.84375 
C 26.09375 36 22.703125 36 19.40625 35.6875 
C 18.90625 35.6875 16.59375 35.453125 16.203125 35.453125 
C 15.5 35.359375 15.09375 35.265625 15.09375 34.5 
C 15.09375 33.796875 15.203125 33.703125 17.203125 33.703125 
z
" id="CMR17-51"/>
    </defs>
    <g transform="translate(45.506093 51.761279)scale(0.09 -0.09)">
     <use transform="translate(0 14.943915)scale(0.996264)" xlink:href="#CMMI12-86"/>
     <use transform="translate(56.869579 0)scale(0.697382)" xlink:href="#CMR17-51"/>
    </g>
   </g>
   <g id="text_5">
    <!-- $V_4$ -->
    <defs>
     <path d="M 33.59375 64.40625 
C 33.59375 66.5 33.5 66.5 31.703125 66.5 
L 2 19.59375 
L 2 17 
L 27.796875 17 
L 27.796875 7.140625 
C 27.796875 3.5 27.59375 2.5 20.59375 2.5 
L 18.703125 2.5 
L 18.703125 0 
C 21.90625 0 27.296875 0 30.703125 0 
C 34.09375 0 39.5 0 42.703125 0 
L 42.703125 2.5 
L 40.796875 2.5 
C 33.796875 2.5 33.59375 3.5 33.59375 7.140625 
L 33.59375 17 
L 43.796875 17 
L 43.796875 19.59375 
L 33.59375 19.59375 
z
M 28.09375 57.859375 
L 28.09375 19.59375 
L 4 19.59375 
z
" id="CMR17-52"/>
    </defs>
    <g transform="translate(95.529715 11.414822)scale(0.09 -0.09)">
     <use transform="translate(0 14.943915)scale(0.996264)" xlink:href="#CMMI12-86"/>
     <use transform="translate(56.869579 0)scale(0.697382)" xlink:href="#CMR17-52"/>
    </g>
   </g>
   <g id="text_6">
    <!-- $V_5$ -->
    <defs>
     <path d="M 11.40625 57.6875 
C 12.40625 57.28125 16.5 56 20.703125 56 
C 30 56 35.09375 61.109375 38 64.0625 
C 38 64.953125 38 65.5 37.40625 65.5 
C 37.296875 65.5 37.09375 65.5 36.296875 65.046875 
C 32.796875 63.40625 28.703125 62.078125 23.703125 62.078125 
C 20.703125 62.078125 16.203125 62.484375 11.296875 64.671875 
C 10.203125 65.171875 10 65.171875 9.90625 65.171875 
C 9.40625 65.171875 9.296875 65.0625 9.296875 63.078125 
L 9.296875 34.421875 
C 9.296875 32.640625 9.296875 32.140625 10.296875 32.140625 
C 10.796875 32.140625 11 32.34375 11.5 33.03125 
C 14.703125 37.515625 19.09375 39.40625 24.09375 39.40625 
C 27.59375 39.40625 35.09375 37.21875 35.09375 20.140625 
C 35.09375 16.953125 35.09375 11.171875 32.09375 6.578125 
C 29.59375 2.484375 25.703125 0.390625 21.40625 0.390625 
C 14.796875 0.390625 8.09375 5 6.296875 12.71875 
C 6.703125 12.609375 7.5 12.421875 7.90625 12.421875 
C 9.203125 12.421875 11.703125 13.125 11.703125 16.21875 
C 11.703125 18.90625 9.796875 20 7.90625 20 
C 5.59375 20 4.09375 18.59375 4.09375 15.796875 
C 4.09375 7.09375 11 -2 21.59375 -2 
C 31.90625 -2 41.703125 6.875 41.703125 19.75 
C 41.703125 31.71875 33.90625 41 24.203125 41 
C 19.09375 41 14.796875 39.109375 11.40625 35.53125 
z
" id="CMR17-53"/>
    </defs>
    <g transform="translate(97.529715 78.107736)scale(0.09 -0.09)">
     <use transform="translate(0 14.943915)scale(0.996264)" xlink:href="#CMMI12-86"/>
     <use transform="translate(56.869579 0)scale(0.697382)" xlink:href="#CMR17-53"/>
    </g>
   </g>
   <g id="text_7">
    <!-- $V_6$ -->
    <defs>
     <path d="M 10.59375 34 
C 10.59375 57.65625 21.796875 63 28.296875 63 
C 30.40625 63 35.5 62.640625 37.5 59 
C 35.90625 59 32.90625 59 32.90625 55.515625 
C 32.90625 52.828125 35.09375 51.921875 36.5 51.921875 
C 37.40625 51.921875 40.09375 52.3125 40.09375 55.625 
C 40.09375 61.78125 35.09375 65.296875 28.203125 65.296875 
C 16.296875 65.296875 3.796875 52.96875 3.796875 31 
C 3.796875 3.953125 15.09375 -2 23.09375 -2 
C 32.796875 -2 42 6.671875 42 20.046875 
C 42 32.515625 33.90625 41.59375 23.703125 41.59375 
C 17.59375 41.59375 13.09375 37.609375 10.59375 30.625 
z
M 23.09375 0.390625 
C 10.796875 0.390625 10.796875 18.75 10.796875 22.4375 
C 10.796875 29.625 14.203125 40 23.5 40 
C 25.203125 40 30.09375 40 33.40625 33.125 
C 35.203125 29.21875 35.203125 25.140625 35.203125 20.140625 
C 35.203125 14.75 35.203125 10.78125 33.09375 6.78125 
C 30.90625 2.671875 27.703125 0.390625 23.09375 0.390625 
z
" id="CMR17-54"/>
    </defs>
    <g transform="translate(54.183259 25.588051)scale(0.09 -0.09)">
     <use transform="translate(0 14.943915)scale(0.996264)" xlink:href="#CMMI12-86"/>
     <use transform="translate(56.869579 0)scale(0.697382)" xlink:href="#CMR17-54"/>
    </g>
   </g>
   <g id="text_8">
    <!-- $G_1$ -->
    <defs>
     <path d="M 74.59375 69.109375 
C 74.59375 70 73.90625 70 73.703125 70 
C 73.5 70 73.09375 70 72.296875 69 
L 65.40625 60.765625 
C 64.90625 61.5625 62.90625 65.046875 59 67.328125 
C 54.703125 70 50.40625 70 48.90625 70 
C 27.5 70 5 48.359375 5 24.921875 
C 5 8.53125 16.40625 -2 31.40625 -2 
C 38.59375 -2 47.703125 0.390625 52.703125 6.671875 
C 53.796875 2.890625 56 0.1875 56.703125 0.1875 
C 57.203125 0.1875 57.296875 0.5 57.40625 0.5 
C 57.5 0.6875 58.296875 4.21875 58.796875 6.015625 
L 60.40625 12.453125 
C 61.203125 15.765625 61.59375 17.171875 62.296875 20.171875 
C 63.296875 24 63.5 24 69 24 
C 69.40625 24 70.59375 24 70.59375 26.03125 
C 70.59375 27.09375 69.59375 27.09375 69.296875 27.09375 
C 67.59375 27.09375 65.703125 27.09375 63.90625 27.09375 
L 58.5 27.09375 
C 54.296875 27.09375 49.90625 27.09375 45.796875 27.09375 
C 44.90625 27.09375 43.703125 27.09375 43.703125 25.171875 
C 43.703125 24.09375 44.5 24.09375 44.5 24 
L 47 24 
C 54.90625 24 54.90625 23.265625 54.90625 21.90625 
C 54.90625 21.796875 53 11.734375 51.09375 8.765625 
C 47.296875 3.1875 39.40625 0.890625 33.5 0.890625 
C 25.796875 0.890625 13.296875 4.875 13.296875 22.03125 
C 13.296875 28.6875 15.703125 43.875 25.40625 55.09375 
C 31.703125 62.25 41 67.109375 49.796875 67.109375 
C 61.59375 67.109375 65.796875 57.109375 65.796875 47.984375 
C 65.796875 46.40625 65.40625 44.234375 65.40625 42.84375 
C 65.40625 41.953125 66.40625 41.953125 66.703125 41.953125 
C 67.796875 41.953125 67.90625 42.046875 68.296875 43.828125 
z
" id="CMMI12-71"/>
    </defs>
    <g transform="translate(57.75855 81.107736)scale(0.09 -0.09)">
     <use transform="translate(0 14.943915)scale(0.996264)" xlink:href="#CMMI12-71"/>
     <use transform="translate(76.946862 0)scale(0.697382)" xlink:href="#CMR17-49"/>
    </g>
   </g>
  </g>
 </g>
 <defs>
  <clipPath id="pe9ccafcd62">
   <rect height="85.03937" width="113.385827" x="0" y="0"/>
  </clipPath>
 </defs>
</svg>
