<?xml version="1.0" encoding="UTF-8" standalone="no"?>
<!DOCTYPE svg PUBLIC "-//W3C//DTD SVG 1.1//EN"
 "http://www.w3.org/Graphics/SVG/1.1/DTD/svg11.dtd">
<!-- Generated by graphviz version 2.40.1 (20161225.0304)
 -->
<!-- Title: G Pages: 1 -->
<svg width="480pt" height="216pt"
 viewBox="0.00 0.00 480.50 216.00" xmlns="http://www.w3.org/2000/svg" xmlns:xlink="http://www.w3.org/1999/xlink">
<g id="graph0" class="graph" transform="scale(1 1) rotate(0) translate(4 212)">
<title>G</title>
<polygon fill="#ffffff" stroke="transparent" points="-4,4 -4,-212 476.4959,-212 476.4959,4 -4,4"/>
<!-- k1 -->
<g id="node1" class="node">
<title>k1</title>
</g>
<!-- k2 -->
<g id="node2" class="node">
<title>k2</title>
<text text-anchor="middle" x="423.4803" y="-167.8" font-family="Times,serif" font-size="14.00" fill="#000000">Feedback loop</text>
</g>
<!-- k2&#45;&gt;k1 -->
<g id="edge8" class="edge">
<title>k2&#45;&gt;k1</title>
<path fill="none" stroke="#c0c0c0" d="M374.2909,-172C364.7088,-172 354.8093,-172 345.6841,-172"/>
<polygon fill="#c0c0c0" stroke="#c0c0c0" points="345.3931,-168.5001 335.393,-172 345.393,-175.5001 345.3931,-168.5001"/>
</g>
<!-- k3 -->
<g id="node3" class="node">
<title>k3</title>
</g>
<!-- k4 -->
<g id="node4" class="node">
<title>k4</title>
<text text-anchor="middle" x="416.2802" y="-185.8" font-family="Times,serif" font-size="14.00" fill="#000000">Strategy use</text>
</g>
<!-- k4&#45;&gt;k3 -->
<g id="edge9" class="edge">
<title>k4&#45;&gt;k3</title>
<path fill="none" stroke="#000000" d="M373.9058,-190C364.4597,-190 354.5155,-190 345.3048,-190"/>
<polygon fill="#000000" stroke="#000000" points="345.2829,-186.5001 335.2829,-190 345.2828,-193.5001 345.2829,-186.5001"/>
</g>
<!-- p -->
<g id="node5" class="node">
<title>p</title>
<ellipse fill="none" stroke="#000000" cx="200.2802" cy="-172" rx="34.3614" ry="18"/>
<text text-anchor="middle" x="200.2802" y="-167.8" font-family="Times,serif" font-size="14.00" fill="#000000">Person</text>
</g>
<!-- b -->
<g id="node7" class="node">
<title>b</title>
<ellipse fill="none" stroke="#000000" cx="344.2803" cy="-28" rx="42.5456" ry="18"/>
<text text-anchor="middle" x="344.2803" y="-23.8" font-family="Times,serif" font-size="14.00" fill="#000000">Behavior</text>
</g>
<!-- p&#45;&gt;b -->
<g id="edge6" class="edge">
<title>p:e&#45;&gt;b:ne</title>
<path fill="none" stroke="#c0c0c0" d="M242.4156,-164.808C269.0701,-137.942 361.2803,-45 361.2803,-45"/>
<polygon fill="#c0c0c0" stroke="#c0c0c0" points="239.8387,-162.4359 235.2802,-172 244.808,-167.3661 239.8387,-162.4359"/>
</g>
<!-- r -->
<g id="node8" class="node">
<title>r</title>
<text text-anchor="middle" x="200.2802" y="-102.8" font-family="Times,serif" font-size="14.00" fill="#000000">Covert</text>
<text text-anchor="middle" x="200.2802" y="-88.8" font-family="Times,serif" font-size="14.00" fill="#000000">Self&#45;Regulation</text>
</g>
<!-- p&#45;&gt;r -->
<g id="edge5" class="edge">
<title>p&#45;&gt;r</title>
<path fill="none" stroke="#000000" d="M206.196,-154.2022C206.9798,-146.3864 207.2113,-137.0171 206.8905,-128.2836"/>
<polygon fill="#000000" stroke="#000000" points="210.3693,-127.8439 206.2253,-118.0931 203.3842,-128.2999 210.3693,-127.8439"/>
</g>
<!-- e -->
<g id="node6" class="node">
<title>e</title>
<ellipse fill="none" stroke="#000000" cx="56.2802" cy="-28" rx="56.0614" ry="18"/>
<text text-anchor="middle" x="56.2802" y="-23.8" font-family="Times,serif" font-size="14.00" fill="#000000">Environment</text>
</g>
<!-- e&#45;&gt;p -->
<g id="edge3" class="edge">
<title>e:nw&#45;&gt;p:w</title>
<path fill="none" stroke="#000000" d="M39.2802,-45C39.2802,-45 131.4904,-137.942 158.1449,-164.808"/>
<polygon fill="#000000" stroke="#000000" points="155.7525,-167.3661 165.2802,-172 160.7218,-162.4359 155.7525,-167.3661"/>
</g>
<!-- e&#45;&gt;p -->
<g id="edge4" class="edge">
<title>e&#45;&gt;p</title>
<path fill="none" stroke="#c0c0c0" d="M73.65,-45.3698C99.4691,-71.1888 148.025,-119.7447 176.9288,-148.6485"/>
<polygon fill="#c0c0c0" stroke="#c0c0c0" points="174.6305,-151.3 184.1764,-155.8962 179.5802,-146.3502 174.6305,-151.3"/>
</g>
<!-- b&#45;&gt;p -->
<g id="edge1" class="edge">
<title>b&#45;&gt;p</title>
<path fill="none" stroke="#000000" d="M320.0878,-52.1924C290.6632,-81.6171 241.8024,-130.4778 216.532,-155.7482"/>
<polygon fill="#000000" stroke="#000000" points="322.8836,-54.3464 327.4798,-44.8005 317.9338,-49.3967 322.8836,-54.3464"/>
<text text-anchor="middle" x="330.1341" y="-120.7703" font-family="Times,serif" font-size="14.00" fill="#000000"> &#160;&#160;&#160;&#160;&#160;&#160;&#160;&#160;Behavioral</text>
<text text-anchor="middle" x="330.1341" y="-106.7703" font-family="Times,serif" font-size="14.00" fill="#000000"> &#160;&#160;&#160;&#160;&#160;&#160;&#160;&#160;&#160;Self&#45;Regulation</text>
</g>
<!-- b&#45;&gt;e -->
<g id="edge2" class="edge">
<title>b&#45;&gt;e</title>
<path fill="none" stroke="#000000" d="M301.4747,-28C254.2703,-28 177.7303,-28 122.7172,-28"/>
<polygon fill="#000000" stroke="#000000" points="122.7075,-24.5001 112.7075,-28 122.7074,-31.5001 122.7075,-24.5001"/>
<text text-anchor="middle" x="237.7581" y="-16.8" font-family="Times,serif" font-size="14.00" fill="#000000"> &#160;&#160;Environmental</text>
<text text-anchor="middle" x="237.7581" y="-2.8" font-family="Times,serif" font-size="14.00" fill="#000000"> &#160;&#160;&#160;Self&#45;Regulation</text>
</g>
<!-- r&#45;&gt;p -->
<g id="edge7" class="edge">
<title>r&#45;&gt;p</title>
<path fill="none" stroke="#c0c0c0" d="M194.3279,-118.1686C193.5659,-125.9875 193.3499,-135.3077 193.6798,-143.9779"/>
<polygon fill="#c0c0c0" stroke="#c0c0c0" points="190.1961,-144.3413 194.353,-154.0866 197.1807,-143.8761 190.1961,-144.3413"/>
</g>
</g>
</svg>
