<?xml version="1.0" encoding="UTF-8" standalone="no"?>
<!DOCTYPE svg PUBLIC "-//W3C//DTD SVG 1.1//EN"
 "http://www.w3.org/Graphics/SVG/1.1/DTD/svg11.dtd">
<!-- Generated by graphviz version 2.40.1 (20161225.0304)
 -->
<!-- Title: G Pages: 1 -->
<svg width="154pt" height="260pt"
 viewBox="0.00 0.00 153.90 260.00" xmlns="http://www.w3.org/2000/svg" xmlns:xlink="http://www.w3.org/1999/xlink">
<g id="graph0" class="graph" transform="scale(1 1) rotate(0) translate(4 256)">
<title>G</title>
<polygon fill="#ffffff" stroke="transparent" points="-4,4 -4,-256 149.895,-256 149.895,4 -4,4"/>
<!-- PL -->
<g id="node1" class="node">
<title>PL</title>
<ellipse fill="none" stroke="#000000" cx="118.895" cy="-180" rx="27" ry="18"/>
<text text-anchor="middle" x="118.895" y="-176.3" font-family="Times,serif" font-size="14.00" fill="#000000">PL</text>
</g>
<!-- PW -->
<g id="node2" class="node">
<title>PW</title>
<ellipse fill="none" stroke="#000000" cx="118.895" cy="-126" rx="27" ry="18"/>
<text text-anchor="middle" x="118.895" y="-122.3" font-family="Times,serif" font-size="14.00" fill="#000000">PW</text>
</g>
<!-- SL -->
<g id="node3" class="node">
<title>SL</title>
<ellipse fill="none" stroke="#000000" cx="118.895" cy="-72" rx="27" ry="18"/>
<text text-anchor="middle" x="118.895" y="-68.3" font-family="Times,serif" font-size="14.00" fill="#000000">SL</text>
</g>
<!-- SW -->
<g id="node4" class="node">
<title>SW</title>
<ellipse fill="none" stroke="#000000" cx="118.895" cy="-18" rx="27" ry="18"/>
<text text-anchor="middle" x="118.895" y="-14.3" font-family="Times,serif" font-size="14.00" fill="#000000">SW</text>
</g>
<!-- Sp -->
<g id="node5" class="node">
<title>Sp</title>
<ellipse fill="none" stroke="#000000" cx="118.895" cy="-234" rx="27" ry="18"/>
<text text-anchor="middle" x="118.895" y="-230.3" font-family="Times,serif" font-size="14.00" fill="#000000">Sp</text>
</g>
<!-- label -->
<g id="node6" class="node">
<title>label</title>
<ellipse fill="none" stroke="#000000" cx="27.9475" cy="-234" rx="27.8951" ry="18"/>
<text text-anchor="middle" x="27.9475" y="-230.3" font-family="Times,serif" font-size="14.00" fill="#000000">label</text>
</g>
<!-- label&#45;&gt;Sp -->
<g id="edge5" class="edge">
<title>label&#45;&gt;Sp</title>
<path fill="none" stroke="#000000" d="M56.2253,-234C64.3069,-234 73.2382,-234 81.7643,-234"/>
<polygon fill="#000000" stroke="#000000" points="81.879,-237.5001 91.879,-234 81.879,-230.5001 81.879,-237.5001"/>
</g>
<!-- data -->
<g id="node7" class="node">
<title>data</title>
<ellipse fill="none" stroke="#000000" cx="27.9475" cy="-99" rx="27" ry="18"/>
<text text-anchor="middle" x="27.9475" y="-95.3" font-family="Times,serif" font-size="14.00" fill="#000000">data</text>
</g>
<!-- data&#45;&gt;PL -->
<g id="edge1" class="edge">
<title>data&#45;&gt;PL</title>
<path fill="none" stroke="#000000" d="M44.2071,-113.4812C58.217,-125.9587 78.6426,-144.1502 94.5937,-158.3567"/>
<polygon fill="#000000" stroke="#000000" points="92.6741,-161.3339 102.4696,-165.3711 97.3297,-156.1065 92.6741,-161.3339"/>
</g>
<!-- data&#45;&gt;PW -->
<g id="edge2" class="edge">
<title>data&#45;&gt;PW</title>
<path fill="none" stroke="#000000" d="M52.7993,-106.3779C62.5242,-109.2649 73.8455,-112.6259 84.3417,-115.742"/>
<polygon fill="#000000" stroke="#000000" points="83.4907,-119.1403 94.0733,-118.6311 85.4829,-112.4297 83.4907,-119.1403"/>
</g>
<!-- data&#45;&gt;SL -->
<g id="edge3" class="edge">
<title>data&#45;&gt;SL</title>
<path fill="none" stroke="#000000" d="M52.7993,-91.6221C62.5242,-88.7351 73.8455,-85.3741 84.3417,-82.258"/>
<polygon fill="#000000" stroke="#000000" points="85.4829,-85.5703 94.0733,-79.3689 83.4907,-78.8597 85.4829,-85.5703"/>
</g>
<!-- data&#45;&gt;SW -->
<g id="edge4" class="edge">
<title>data&#45;&gt;SW</title>
<path fill="none" stroke="#000000" d="M44.2071,-84.5188C58.217,-72.0413 78.6426,-53.8498 94.5937,-39.6433"/>
<polygon fill="#000000" stroke="#000000" points="97.3297,-41.8935 102.4696,-32.6289 92.6741,-36.6661 97.3297,-41.8935"/>
</g>
</g>
</svg>
