<?xml version="1.0" encoding="UTF-8" standalone="no"?>
<!DOCTYPE svg PUBLIC "-//W3C//DTD SVG 1.1//EN"
 "http://www.w3.org/Graphics/SVG/1.1/DTD/svg11.dtd">
<!-- Generated by graphviz version 7.1.0 (20230121.1956)
 -->
<!-- Title: employment Pages: 1 -->
<svg width="3204pt" height="270pt"
 viewBox="0.00 0.00 3203.53 269.76" xmlns="http://www.w3.org/2000/svg" xmlns:xlink="http://www.w3.org/1999/xlink">
<g id="graph0" class="graph" transform="scale(1 1) rotate(0) translate(4 265.76)">
<title>employment</title>
<polygon fill="white" stroke="none" points="-4,4 -4,-265.76 3199.53,-265.76 3199.53,4 -4,4"/>
<!-- May 2005 -->
<g id="node1" class="node">
<title>May 2005</title>
<text text-anchor="middle" x="78.38" y="-183.56" font-family="Times,serif" font-size="24.00">May 2005</text>
</g>
<!-- April 2006 -->
<g id="node2" class="node">
<title>April 2006</title>
<text text-anchor="middle" x="281.77" y="-183.56" font-family="Times,serif" font-size="24.00">April 2006</text>
</g>
<!-- May 2005&#45;&gt;April 2006 -->
<g id="edge14" class="edge">
<title>May 2005&#45;&gt;April 2006</title>
<path fill="none" stroke="black" d="M135.21,-189.76C158.22,-189.76 185.17,-189.76 209.57,-189.76"/>
<polygon fill="black" stroke="black" points="209.44,-193.26 219.44,-189.76 209.44,-186.26 209.44,-193.26"/>
</g>
<!-- June 2007 -->
<g id="node3" class="node">
<title>June 2007</title>
<text text-anchor="middle" x="476.99" y="-183.56" font-family="Times,serif" font-size="24.00">June 2007</text>
</g>
<!-- April 2006&#45;&gt;June 2007 -->
<g id="edge15" class="edge">
<title>April 2006&#45;&gt;June 2007</title>
<path fill="none" stroke="black" d="M342.58,-189.76C363.53,-189.76 387.19,-189.76 408.71,-189.76"/>
<polygon fill="black" stroke="black" points="408.57,-193.26 418.57,-189.76 408.57,-186.26 408.57,-193.26"/>
</g>
<!-- August 2008 -->
<g id="node4" class="node">
<title>August 2008</title>
<text text-anchor="middle" x="702" y="-183.56" font-family="Times,serif" font-size="24.00">August 2008</text>
</g>
<!-- June 2007&#45;&gt;August 2008 -->
<g id="edge16" class="edge">
<title>June 2007&#45;&gt;August 2008</title>
<path fill="none" stroke="black" d="M533.97,-189.76C560.29,-189.76 592.13,-189.76 620.94,-189.76"/>
<polygon fill="black" stroke="black" points="620.71,-193.26 630.71,-189.76 620.71,-186.26 620.71,-193.26"/>
</g>
<!-- September 2009 -->
<g id="node5" class="node">
<title>September 2009</title>
<text text-anchor="middle" x="963.75" y="-183.56" font-family="Times,serif" font-size="24.00">September 2009</text>
</g>
<!-- August 2008&#45;&gt;September 2009 -->
<g id="edge17" class="edge">
<title>August 2008&#45;&gt;September 2009</title>
<path fill="none" stroke="black" d="M771.93,-189.76C800.84,-189.76 834.97,-189.76 866.31,-189.76"/>
<polygon fill="black" stroke="black" points="866.2,-193.26 876.2,-189.76 866.2,-186.26 866.2,-193.26"/>
</g>
<!-- August 2010 -->
<g id="node6" class="node">
<title>August 2010</title>
<text text-anchor="middle" x="1176.71" y="-151.56" font-family="Times,serif" font-size="24.00">August 2010</text>
</g>
<!-- September 2009&#45;&gt;August 2010 -->
<g id="edge18" class="edge">
<title>September 2009&#45;&gt;August 2010</title>
<path fill="none" stroke="black" d="M1049.95,-176.84C1064.99,-174.56 1080.59,-172.19 1095.49,-169.93"/>
<polygon fill="black" stroke="black" points="1095.86,-173.41 1105.22,-168.45 1094.81,-166.49 1095.86,-173.41"/>
</g>
<!-- January 2011 -->
<g id="node7" class="node">
<title>January 2011</title>
<text text-anchor="middle" x="1361.1" y="-151.56" font-family="Times,serif" font-size="24.00">January 2011</text>
</g>
<!-- August 2010&#45;&gt;January 2011 -->
<g id="edge19" class="edge">
<title>August 2010&#45;&gt;January 2011</title>
<path fill="none" stroke="black" d="M1246.67,-157.76C1257.04,-157.76 1267.82,-157.76 1278.42,-157.76"/>
<polygon fill="black" stroke="black" points="1278.32,-161.26 1288.32,-157.76 1278.32,-154.26 1278.32,-161.26"/>
</g>
<!-- August 2012 -->
<g id="node8" class="node">
<title>August 2012</title>
<text text-anchor="middle" x="1562.85" y="-151.56" font-family="Times,serif" font-size="24.00">August 2012</text>
</g>
<!-- January 2011&#45;&gt;August 2012 -->
<g id="edge20" class="edge">
<title>January 2011&#45;&gt;August 2012</title>
<path fill="none" stroke="black" d="M1432.52,-157.76C1448.49,-157.76 1465.57,-157.76 1481.9,-157.76"/>
<polygon fill="black" stroke="black" points="1481.55,-161.26 1491.55,-157.76 1481.55,-154.26 1481.55,-161.26"/>
</g>
<!-- AHA -->
<g id="node17" class="node">
<title>AHA</title>
<ellipse fill="crimson" stroke="crimson" cx="1361.1" cy="-97.76" rx="48.17" ry="24.08"/>
<text text-anchor="middle" x="1361.1" y="-91.56" font-family="Times,serif" font-size="24.00" fill="white">AHA</text>
</g>
<!-- January 2011&#45;&gt;AHA -->
<g id="edge5" class="edge">
<title>January 2011&#45;&gt;AHA</title>
<path fill="none" stroke="black" d="M1361.1,-139.95C1361.1,-137.81 1361.1,-135.68 1361.1,-133.55"/>
<polygon fill="black" stroke="black" points="1364.6,-133.65 1361.1,-123.65 1357.6,-133.65 1364.6,-133.65"/>
</g>
<!-- MnSCU1 -->
<g id="node21" class="node">
<title>MnSCU1</title>
<polygon fill="#104e8b" stroke="#104e8b" points="1439.37,-27.76 1400.23,-55.28 1321.96,-55.28 1282.83,-27.76 1321.96,-0.24 1400.23,-0.24 1439.37,-27.76"/>
<text text-anchor="middle" x="1361.1" y="-21.56" font-family="Times,serif" font-size="24.00" fill="white">MnSCU</text>
</g>
<!-- January 2011&#45;&gt;MnSCU1 -->
<g id="edge6" class="edge">
<title>January 2011&#45;&gt;MnSCU1</title>
<path fill="none" stroke="black" d="M1289.92,-143.8C1279.75,-138.6 1270.72,-131.49 1264.71,-121.76 1253.5,-103.61 1253.5,-91.91 1264.71,-73.76 1271.54,-62.72 1281.84,-54.28 1293.2,-47.84"/>
<polygon fill="black" stroke="black" points="1294.7,-51 1302.04,-43.37 1291.54,-44.76 1294.7,-51"/>
</g>
<!-- March 2013 -->
<g id="node9" class="node">
<title>March 2013</title>
<text text-anchor="middle" x="1753.21" y="-142.56" font-family="Times,serif" font-size="24.00">March 2013</text>
</g>
<!-- August 2012&#45;&gt;March 2013 -->
<g id="edge21" class="edge">
<title>August 2012&#45;&gt;March 2013</title>
<path fill="none" stroke="black" d="M1632.65,-154.47C1646.58,-153.81 1661.32,-153.1 1675.5,-152.43"/>
<polygon fill="black" stroke="black" points="1675.4,-155.94 1685.22,-151.96 1675.06,-148.94 1675.4,-155.94"/>
</g>
<!-- May 2013 -->
<g id="node10" class="node">
<title>May 2013</title>
<text text-anchor="middle" x="1913.21" y="-138.56" font-family="Times,serif" font-size="24.00">May 2013</text>
</g>
<!-- March 2013&#45;&gt;May 2013 -->
<g id="edge22" class="edge">
<title>March 2013&#45;&gt;May 2013</title>
<path fill="none" stroke="black" d="M1819.39,-147.11C1827.8,-146.9 1836.44,-146.68 1844.89,-146.47"/>
<polygon fill="black" stroke="black" points="1844.84,-149.97 1854.74,-146.22 1844.66,-142.97 1844.84,-149.97"/>
</g>
<!-- September 2013 -->
<g id="node11" class="node">
<title>September 2013</title>
<text text-anchor="middle" x="2092.71" y="-87.56" font-family="Times,serif" font-size="24.00">September 2013</text>
</g>
<!-- May 2013&#45;&gt;September 2013 -->
<g id="edge23" class="edge">
<title>May 2013&#45;&gt;September 2013</title>
<path fill="none" stroke="black" d="M1969.89,-128.76C1985.17,-124.37 2001.98,-119.54 2018.1,-114.91"/>
<polygon fill="black" stroke="black" points="2019.03,-118.29 2027.67,-112.16 2017.09,-111.56 2019.03,-118.29"/>
</g>
<!-- November 2014 -->
<g id="node12" class="node">
<title>November 2014</title>
<text text-anchor="middle" x="2336.87" y="-87.56" font-family="Times,serif" font-size="24.00">November 2014</text>
</g>
<!-- September 2013&#45;&gt;November 2014 -->
<g id="edge24" class="edge">
<title>September 2013&#45;&gt;November 2014</title>
<path fill="none" stroke="black" d="M2179.09,-93.76C2198.76,-93.76 2219.81,-93.76 2239.9,-93.76"/>
<polygon fill="black" stroke="black" points="2239.75,-97.26 2249.75,-93.76 2239.75,-90.26 2239.75,-97.26"/>
</g>
<!-- August 2018 -->
<g id="node13" class="node">
<title>August 2018</title>
<text text-anchor="middle" x="2564.53" y="-86.56" font-family="Times,serif" font-size="24.00">August 2018</text>
</g>
<!-- November 2014&#45;&gt;August 2018 -->
<g id="edge25" class="edge">
<title>November 2014&#45;&gt;August 2018</title>
<path fill="none" stroke="black" d="M2422.86,-93.38C2442.7,-93.3 2463.77,-93.2 2483.4,-93.12"/>
<polygon fill="black" stroke="black" points="2483.27,-96.62 2493.25,-93.07 2483.24,-89.62 2483.27,-96.62"/>
</g>
<!-- November 2019 -->
<g id="node14" class="node">
<title>November 2019</title>
<text text-anchor="middle" x="2756.53" y="-86.56" font-family="Times,serif" font-size="24.00">November 2019</text>
</g>
<!-- August 2018&#45;&gt;November 2019 -->
<g id="edge26" class="edge">
<title>August 2018&#45;&gt;November 2019</title>
<path fill="none" stroke="black" d="M2634.39,-92.76C2642.5,-92.76 2650.88,-92.76 2659.27,-92.76"/>
<polygon fill="black" stroke="black" points="2659.18,-96.26 2669.18,-92.76 2659.18,-89.26 2659.18,-96.26"/>
</g>
<!-- October 2020 -->
<g id="node15" class="node">
<title>October 2020</title>
<text text-anchor="middle" x="2952.53" y="-86.56" font-family="Times,serif" font-size="24.00">October 2020</text>
</g>
<!-- November 2019&#45;&gt;October 2020 -->
<g id="edge27" class="edge">
<title>November 2019&#45;&gt;October 2020</title>
<path fill="none" stroke="black" d="M2842.34,-92.76C2850.68,-92.76 2859.14,-92.76 2867.48,-92.76"/>
<polygon fill="black" stroke="black" points="2867.22,-96.26 2877.22,-92.76 2867.22,-89.26 2867.22,-96.26"/>
</g>
<!-- March 2023 -->
<g id="node16" class="node">
<title>March 2023</title>
<text text-anchor="middle" x="3129.03" y="-58.56" font-family="Times,serif" font-size="24.00">March 2023</text>
</g>
<!-- October 2020&#45;&gt;March 2023 -->
<g id="edge28" class="edge">
<title>October 2020&#45;&gt;March 2023</title>
<path fill="none" stroke="black" d="M3026.52,-81.05C3034.74,-79.73 3043.13,-78.38 3051.39,-77.06"/>
<polygon fill="black" stroke="black" points="3051.74,-80.55 3061.06,-75.51 3050.63,-73.64 3051.74,-80.55"/>
</g>
<!-- SLPOEC -->
<g id="node26" class="node">
<title>SLPOEC</title>
<polygon fill="white" stroke="#ff0000" stroke-width="4" points="1650.08,-93.76 1606.46,-121.28 1519.23,-121.28 1475.62,-93.76 1519.23,-66.24 1606.46,-66.24 1650.08,-93.76"/>
<text text-anchor="middle" x="1562.85" y="-87.56" font-family="Times,serif" font-size="24.00" fill="#0000cd">SLPOEC</text>
</g>
<!-- AHA&#45;&gt;SLPOEC -->
<g id="edge7" class="edge">
<title>AHA&#45;&gt;SLPOEC</title>
<path fill="none" stroke="black" d="M1409.69,-96.81C1425.92,-96.48 1444.71,-96.11 1463.43,-95.73"/>
<polygon fill="black" stroke="black" points="1463.29,-99.24 1473.22,-95.54 1463.15,-92.24 1463.29,-99.24"/>
</g>
<!-- Laerdal -->
<g id="node18" class="node">
<title>Laerdal</title>
<polygon fill="none" stroke="crimson" stroke-width="3" points="1958.21,-47.76 1868.21,-47.76 1868.21,-11.76 1958.21,-11.76 1958.21,-47.76"/>
<text text-anchor="middle" x="1913.21" y="-23.56" font-family="Times,serif" font-size="24.00">Laerdal</text>
</g>
<!-- M Simulation -->
<g id="node19" class="node">
<title>M Simulation</title>
<polygon fill="#800000" stroke="#800000" points="2458.69,-29.76 2397.78,-57.28 2275.96,-57.28 2215.05,-29.76 2275.96,-2.24 2397.78,-2.24 2458.69,-29.76"/>
<text text-anchor="middle" x="2336.87" y="-23.56" font-family="Times,serif" font-size="24.00" fill="#ffd700">M Simulation</text>
</g>
<!-- Laerdal&#45;&gt;M Simulation -->
<g id="edge10" class="edge">
<title>Laerdal&#45;&gt;M Simulation</title>
<path fill="none" stroke="black" d="M1959.34,-29.76C2017.02,-29.76 2119.42,-29.76 2202.88,-29.76"/>
<polygon fill="black" stroke="black" points="2202.75,-33.26 2212.75,-29.76 2202.75,-26.26 2202.75,-33.26"/>
</g>
<!-- RelationalAI -->
<g id="node25" class="node">
<title>RelationalAI</title>
<polygon fill="darkblue" stroke="darkblue" points="2842.53,-55.26 2670.53,-55.26 2670.53,-14.26 2842.53,-14.26 2842.53,-55.26"/>
<text text-anchor="middle" x="2756.53" y="-27.26" font-family="Times,serif" font-size="30.00" fill="#ff7f00">RelationalAI</text>
</g>
<!-- M Simulation&#45;&gt;RelationalAI -->
<g id="edge11" class="edge">
<title>M Simulation&#45;&gt;RelationalAI</title>
<path fill="none" stroke="black" d="M2456.72,-31.18C2520.71,-31.95 2598.65,-32.88 2658.88,-33.6"/>
<polygon fill="black" stroke="black" points="2658.74,-37.1 2668.79,-33.72 2658.83,-30.1 2658.74,-37.1"/>
</g>
<!-- MnSCU0 -->
<g id="node20" class="node">
<title>MnSCU0</title>
<polygon fill="#104e8b" stroke="#104e8b" points="156.65,-125.76 117.52,-153.28 39.25,-153.28 0.12,-125.76 39.25,-98.24 117.52,-98.24 156.65,-125.76"/>
<text text-anchor="middle" x="78.38" y="-119.56" font-family="Times,serif" font-size="24.00" fill="white">MnSCU</text>
</g>
<!-- MVCC -->
<g id="node22" class="node">
<title>MVCC</title>
<polygon fill="darkcyan" stroke="darkcyan" points="547.42,-125.76 512.21,-153.28 441.77,-153.28 406.55,-125.76 441.77,-98.24 512.21,-98.24 547.42,-125.76"/>
<text text-anchor="middle" x="476.99" y="-119.56" font-family="Times,serif" font-size="24.00" fill="white">MVCC</text>
</g>
<!-- MnSCU0&#45;&gt;MVCC -->
<g id="edge1" class="edge">
<title>MnSCU0&#45;&gt;MVCC</title>
<path fill="none" stroke="black" d="M157.27,-125.76C225.75,-125.76 325.09,-125.76 394.6,-125.76"/>
<polygon fill="black" stroke="black" points="394.41,-129.26 404.41,-125.76 394.41,-122.26 394.41,-129.26"/>
</g>
<!-- MnSCU1&#45;&gt;Laerdal -->
<g id="edge8" class="edge">
<title>MnSCU1&#45;&gt;Laerdal</title>
<path fill="none" stroke="black" d="M1439.75,-28.04C1551.85,-28.45 1756.42,-29.19 1855.47,-29.55"/>
<polygon fill="black" stroke="black" points="1855.2,-33.05 1865.22,-29.59 1855.23,-26.05 1855.2,-33.05"/>
</g>
<!-- NHTSA OEMS -->
<g id="node23" class="node">
<title>NHTSA OEMS</title>
<ellipse fill="black" stroke="black" cx="702" cy="-125.76" rx="118.59" ry="24.08"/>
<text text-anchor="middle" x="702" y="-119.56" font-family="Times,serif" font-size="24.00" fill="white">NHTSA OEMS</text>
</g>
<!-- MVCC&#45;&gt;NHTSA OEMS -->
<g id="edge2" class="edge">
<title>MVCC&#45;&gt;NHTSA OEMS</title>
<path fill="none" stroke="black" d="M547.94,-125.76C555.58,-125.76 563.52,-125.76 571.59,-125.76"/>
<polygon fill="black" stroke="black" points="571.56,-129.26 581.56,-125.76 571.56,-122.26 571.56,-129.26"/>
</g>
<!-- UCLA CPC -->
<g id="node29" class="node">
<title>UCLA CPC</title>
<polygon fill="#1c86ee" stroke="#1c86ee" points="1070.68,-125.76 1017.21,-153.28 910.29,-153.28 856.83,-125.76 910.29,-98.24 1017.21,-98.24 1070.68,-125.76"/>
<text text-anchor="middle" x="963.75" y="-119.56" font-family="Times,serif" font-size="24.00" fill="gold">UCLA CPC</text>
</g>
<!-- NHTSA OEMS&#45;&gt;UCLA CPC -->
<g id="edge3" class="edge">
<title>NHTSA OEMS&#45;&gt;UCLA CPC</title>
<path fill="none" stroke="black" d="M820.72,-125.76C828.56,-125.76 836.47,-125.76 844.32,-125.76"/>
<polygon fill="black" stroke="black" points="844.25,-129.26 854.25,-125.76 844.25,-122.26 844.25,-129.26"/>
</g>
<!-- NWHSU -->
<g id="node24" class="node">
<title>NWHSU</title>
<polygon fill="#009acd" stroke="#009acd" points="364.77,-261.76 192.77,-261.76 192.77,-225.76 370.77,-225.76 370.77,-255.76 364.77,-261.76"/>
<polyline fill="none" stroke="#009acd" points="364.77,-261.76 364.77,-255.76"/>
<polyline fill="none" stroke="#009acd" points="370.77,-255.76 364.77,-255.76"/>
<text text-anchor="middle" x="281.77" y="-237.56" font-family="Times,serif" font-size="24.00" fill="white">NWHSU: M.Ac.</text>
</g>
<!-- RelationalAI&#45;&gt;March 2023 -->
<g id="edge13" class="edge">
<title>RelationalAI&#45;&gt;March 2023</title>
<path fill="none" stroke="black" d="M2842.99,-41.68C2905.83,-46.77 2990.51,-53.63 3051.21,-58.54"/>
<polygon fill="black" stroke="black" points="3050.88,-62.03 3061.13,-59.34 3051.44,-55.05 3050.88,-62.03"/>
</g>
<!-- SLPOEC&#45;&gt;September 2013 -->
<g id="edge9" class="edge">
<title>SLPOEC&#45;&gt;September 2013</title>
<path fill="none" stroke="black" d="M1653.69,-93.76C1748.67,-93.76 1897.94,-93.76 1995.33,-93.76"/>
<polygon fill="black" stroke="black" points="1995.13,-97.26 2005.13,-93.76 1995.13,-90.26 1995.13,-97.26"/>
</g>
<!-- TESC -->
<g id="node27" class="node">
<title>TESC</title>
<polygon fill="#800000" stroke="#800000" points="1814.21,-220.76 1686.21,-220.76 1686.21,-184.76 1820.21,-184.76 1820.21,-214.76 1814.21,-220.76"/>
<polyline fill="none" stroke="#800000" points="1814.21,-220.76 1814.21,-214.76"/>
<polyline fill="none" stroke="#800000" points="1820.21,-214.76 1814.21,-214.76"/>
<text text-anchor="middle" x="1753.21" y="-196.56" font-family="Times,serif" font-size="24.00" fill="white">TESC: B.A.</text>
</g>
<!-- Thinkful -->
<g id="node28" class="node">
<title>Thinkful</title>
<polygon fill="none" stroke="black" stroke-width="3" points="2616.53,-164.76 2512.53,-164.76 2512.53,-128.76 2616.53,-128.76 2616.53,-164.76"/>
<text text-anchor="middle" x="2564.53" y="-140.56" font-family="Times,serif" font-size="24.00">𝗧𝗵𝗶𝗻𝗸𝗳𝘂𝗹</text>
</g>
<!-- Thinkful&#45;&gt;October 2020 -->
<g id="edge12" class="edge">
<title>Thinkful&#45;&gt;October 2020</title>
<path fill="none" stroke="black" d="M2617.9,-143.94C2673.83,-140.39 2764.9,-133.08 2842.53,-119.76 2852.94,-117.97 2863.82,-115.73 2874.52,-113.31"/>
<polygon fill="black" stroke="black" points="2875.15,-116.76 2884.09,-111.08 2873.56,-109.94 2875.15,-116.76"/>
</g>
<!-- UCLA CPC&#45;&gt;August 2010 -->
<g id="edge4" class="edge">
<title>UCLA CPC&#45;&gt;August 2010</title>
<path fill="none" stroke="black" d="M1047.22,-138.27C1063.12,-140.68 1079.76,-143.21 1095.59,-145.61"/>
<polygon fill="black" stroke="black" points="1095.04,-149.06 1105.45,-147.1 1096.09,-142.14 1095.04,-149.06"/>
</g>
</g>
</svg>
