<svg width="1136" height="500" xmlns="http://www.w3.org/2000/svg" xmlns:xlink="http://www.w3.org/1999/xlink" viewBox="0.00 0.00 1250.50 1967.30">
<g id="graph0" class="graph" transform="translate(52.26520369995433,1931.4436993259728) scale(0.9627003309457421)">
<polygon fill="white" stroke="none" points="-4,4 -4,-1963.3 1246.5,-1963.3 1246.5,4 -4,4"></polygon>
<!-- 1 -->
<g id="node1" class="node">
<title>1</title>
<ellipse fill="#00bc01" stroke="#00bc01" cx="153.5" cy="-1494.4" rx="79" ry="79"></ellipse>
<text text-anchor="middle" x="153.5" y="-1484.8" font-family="Times,serif" font-size="32.00" fill="white">Minor</text>
</g>
<!-- 5 -->
<g id="node5" class="node">
<title>5</title>
<ellipse fill="#bddffe" stroke="#bddffe" cx="137.5" cy="-1178.5" rx="137.5" ry="137.5"></ellipse>
<text text-anchor="middle" x="137.5" y="-1188.1" font-family="Times,serif" font-size="32.00">Secondary</text>
<text text-anchor="middle" x="137.5" y="-1149.7" font-family="Times,serif" font-size="32.00">Triage</text>
</g>
<!-- 1&#45;&gt;5 -->
<g id="edge1" class="edge">
<title>1-&gt;5</title>
<path fill="none" stroke="black" d="M149.52,-1415.4C148.15,-1388.4 146.56,-1357.19 144.99,-1326.49"></path>
<polygon fill="black" stroke="black" points="148.47,-1325.91 144.46,-1316.1 141.48,-1326.27 148.47,-1325.91"></polygon>
<text text-anchor="middle" x="181.25" y="-1343" font-family="Times,serif" font-size="30.00">0.052</text>
</g>
<!-- 2 -->
<g id="node2" class="node">
<title>2</title>
<ellipse fill="#fefe00" stroke="#fefe00" cx="1163.5" cy="-254.5" rx="79" ry="79"></ellipse>
<text text-anchor="middle" x="1163.5" y="-244.9" font-family="Times,serif" font-size="32.00">Delayed</text>
</g>
<!-- 3 -->
<g id="node3" class="node">
<title>3</title>
<ellipse fill="red" stroke="red" cx="708.5" cy="-254.5" rx="254.5" ry="254.5"></ellipse>
<text text-anchor="middle" x="708.5" y="-244.9" font-family="Times,serif" font-size="32.00" fill="white">Immediate</text>
</g>
<!-- 4 -->
<g id="node4" class="node">
<title>4</title>
<ellipse fill="black" stroke="black" cx="465.5" cy="-890" rx="79" ry="79"></ellipse>
<text text-anchor="middle" x="465.5" y="-880.4" font-family="Times,serif" font-size="32.00" fill="white">Expectant</text>
</g>
<!-- 6 -->
<g id="node6" class="node">
<title>6</title>
<ellipse fill="white" stroke="black" cx="287.5" cy="-1816.05" rx="143.01" ry="143.01"></ellipse>
<text text-anchor="middle" x="287.5" y="-1806.45" font-family="Times,serif" font-size="32.00">Able to Walk?</text>
</g>
<!-- 6&#45;&gt;1 -->
<g id="edge2" class="edge">
<title>6-&gt;1</title>
<path fill="none" stroke="black" d="M232.42,-1683.65C217.31,-1647.6 201.36,-1609.56 187.79,-1577.18"></path>
<polygon fill="black" stroke="black" points="190.93,-1575.64 183.84,-1567.77 184.48,-1578.34 190.93,-1575.64"></polygon>
<text text-anchor="middle" x="250.25" y="-1627.79" font-family="Times,serif" font-size="30.00">0.014</text>
</g>
<!-- 7 -->
<g id="node7" class="node">
<title>7</title>
<ellipse fill="white" stroke="black" cx="437.5" cy="-1494.4" rx="106.29" ry="106.29"></ellipse>
<text text-anchor="middle" x="437.5" y="-1504" font-family="Times,serif" font-size="32.00">Spontaneous</text>
<text text-anchor="middle" x="437.5" y="-1465.6" font-family="Times,serif" font-size="32.00">Breathing?</text>
</g>
<!-- 6&#45;&gt;7 -->
<g id="edge3" class="edge">
<title>6-&gt;7</title>
<path fill="none" stroke="black" d="M348.08,-1685.95C361.45,-1657.47 375.45,-1627.62 388.3,-1600.24"></path>
<polygon fill="black" stroke="black" points="391.54,-1601.59 392.61,-1591.05 385.2,-1598.61 391.54,-1601.59"></polygon>
<text text-anchor="middle" x="409.25" y="-1627.79" font-family="Times,serif" font-size="30.00">0.014</text>
</g>
<!-- 8 -->
<g id="node8" class="node">
<title>8</title>
<ellipse fill="white" stroke="black" cx="437.5" cy="-1178.5" rx="79" ry="79"></ellipse>
<text text-anchor="middle" x="437.5" y="-1188.1" font-family="Times,serif" font-size="32.00">Position</text>
<text text-anchor="middle" x="437.5" y="-1149.7" font-family="Times,serif" font-size="32.00">Airway</text>
</g>
<!-- 7&#45;&gt;8 -->
<g id="edge4" class="edge">
<title>7-&gt;8</title>
<path fill="none" stroke="black" d="M437.5,-1388C437.5,-1349.09 437.5,-1305.43 437.5,-1268.15"></path>
<polygon fill="black" stroke="black" points="441,-1267.81 437.5,-1257.81 434,-1267.81 441,-1267.81"></polygon>
<text text-anchor="middle" x="471.25" y="-1343" font-family="Times,serif" font-size="30.00">0.052</text>
</g>
<!-- 9 -->
<g id="node9" class="node">
<title>9</title>
<ellipse fill="white" stroke="black" cx="697.5" cy="-1178.5" rx="97.9" ry="97.9"></ellipse>
<text text-anchor="middle" x="697.5" y="-1188.1" font-family="Times,serif" font-size="32.00">Respiratory</text>
<text text-anchor="middle" x="697.5" y="-1149.7" font-family="Times,serif" font-size="32.00">Rate</text>
</g>
<!-- 7&#45;&gt;9 -->
<g id="edge5" class="edge">
<title>7-&gt;9</title>
<path fill="none" stroke="black" d="M505.13,-1411.74C543.18,-1365.81 590.57,-1308.6 628.79,-1262.45"></path>
<polygon fill="black" stroke="black" points="631.65,-1264.49 635.33,-1254.56 626.25,-1260.03 631.65,-1264.49"></polygon>
<text text-anchor="middle" x="601.25" y="-1343" font-family="Times,serif" font-size="30.00">0.052</text>
</g>
<!-- 8&#45;&gt;3 -->
<g id="edge6" class="edge">
<title>8-&gt;3</title>
<path fill="none" stroke="black" d="M398.44,-1109.53C377.95,-1069.93 354.98,-1018.23 344.5,-969 329.88,-900.32 324.42,-878.29 344.5,-811 382.95,-682.18 461.87,-555.48 536.44,-455.68"></path>
<polygon fill="black" stroke="black" points="539.28,-457.73 542.48,-447.63 533.68,-453.52 539.28,-457.73"></polygon>
<text text-anchor="middle" x="395.25" y="-766" font-family="Times,serif" font-size="30.00">0.052</text>
</g>
<!-- 8&#45;&gt;4 -->
<g id="edge7" class="edge">
<title>8-&gt;4</title>
<path fill="none" stroke="black" d="M445.11,-1099.59C448.76,-1062.32 453.13,-1017.55 456.89,-979.05"></path>
<polygon fill="black" stroke="black" points="460.4,-979.19 457.89,-968.89 453.43,-978.51 460.4,-979.19"></polygon>
<text text-anchor="middle" x="489.25" y="-996" font-family="Times,serif" font-size="30.00">0.052</text>
</g>
<!-- 9&#45;&gt;3 -->
<g id="edge8" class="edge">
<title>9-&gt;3</title>
<path fill="none" stroke="black" d="M698.66,-1080.14C700.24,-947.92 703.12,-706.56 705.36,-519"></path>
<polygon fill="black" stroke="black" points="708.86,-519.03 705.48,-508.98 701.86,-518.94 708.86,-519.03"></polygon>
<text text-anchor="middle" x="735.25" y="-766" font-family="Times,serif" font-size="30.00">0.052</text>
</g>
<!-- 10 -->
<g id="node10" class="node">
<title>10</title>
<ellipse fill="white" stroke="black" cx="877.5" cy="-890" rx="79" ry="79"></ellipse>
<text text-anchor="middle" x="877.5" y="-880.4" font-family="Times,serif" font-size="32.00">Perfusion</text>
</g>
<!-- 9&#45;&gt;10 -->
<g id="edge9" class="edge">
<title>9-&gt;10</title>
<path fill="none" stroke="black" d="M749.32,-1095.02C774.81,-1054.44 805.32,-1005.89 830.18,-966.33"></path>
<polygon fill="black" stroke="black" points="833.36,-967.84 835.71,-957.51 827.43,-964.12 833.36,-967.84"></polygon>
<text text-anchor="middle" x="847.25" y="-996" font-family="Times,serif" font-size="30.00">0.052</text>
</g>
<!-- 10&#45;&gt;3 -->
<g id="edge10" class="edge">
<title>10-&gt;3</title>
<path fill="none" stroke="black" d="M857.37,-813.53C837.38,-738.61 805.61,-619.51 776.54,-510.55"></path>
<polygon fill="black" stroke="black" points="779.88,-509.47 773.92,-500.71 773.11,-511.28 779.88,-509.47"></polygon>
<text text-anchor="middle" x="869.25" y="-651" font-family="Times,serif" font-size="30.00">0.052</text>
</g>
<!-- 11 -->
<g id="node11" class="node">
<title>11</title>
<ellipse fill="white" stroke="black" cx="1107.5" cy="-660" rx="79" ry="79"></ellipse>
<text text-anchor="middle" x="1107.5" y="-669.6" font-family="Times,serif" font-size="32.00">Mental</text>
<text text-anchor="middle" x="1107.5" y="-631.2" font-family="Times,serif" font-size="32.00">Status</text>
</g>
<!-- 10&#45;&gt;11 -->
<g id="edge11" class="edge">
<title>10-&gt;11</title>
<path fill="none" stroke="black" d="M933.18,-833.81C966.69,-800.59 1009.46,-758.19 1044.24,-723.71"></path>
<polygon fill="black" stroke="black" points="1046.9,-726 1051.54,-716.47 1041.97,-721.03 1046.9,-726"></polygon>
<text text-anchor="middle" x="1039.25" y="-766" font-family="Times,serif" font-size="30.00">0.052</text>
</g>
<!-- 11&#45;&gt;2 -->
<g id="edge12" class="edge">
<title>11-&gt;2</title>
<path fill="none" stroke="black" d="M1118.23,-581.68C1127.69,-513.52 1141.46,-414.28 1151.33,-343.18"></path>
<polygon fill="black" stroke="black" points="1154.85,-343.29 1152.76,-332.9 1147.92,-342.33 1154.85,-343.29"></polygon>
<text text-anchor="middle" x="1159.25" y="-536" font-family="Times,serif" font-size="30.00">0.052</text>
</g>
<!-- 11&#45;&gt;3 -->
<g id="edge13" class="edge">
<title>11-&gt;3</title>
<path fill="none" stroke="black" d="M1052.44,-603.32C1011.13,-561.54 952.01,-501.76 894.41,-443.51"></path>
<polygon fill="black" stroke="black" points="896.55,-440.69 887.03,-436.04 891.57,-445.61 896.55,-440.69"></polygon>
<text text-anchor="middle" x="1044.25" y="-536" font-family="Times,serif" font-size="30.00">0.052</text>
</g>
</g>
</svg>